<svg xmlns="http://www.w3.org/2000/svg" viewBox="0 0 75.15 121.08"><defs><style>.cls-1{fill:#140f0b;}.cls-2{fill:#060402;}.cls-3{fill:#555351;}.cls-4{fill:#444;}.cls-5{fill:#4e4d4c;}.cls-6{fill:#494949;}.cls-7{fill:#17120c;}.cls-8{fill:#403d3a;}.cls-9{fill:#909090;}.cls-10{fill:#535251;}.cls-11{fill:#353535;}.cls-12{fill:#201101;}.cls-13{fill:#bcbcbc;}.cls-14{fill:#767676;}.cls-15{fill:#f48001;}.cls-16{fill:#a55701;}.cls-17{fill:#1c1207;}.cls-18{fill:#1e1104;}.cls-19{fill:#1c1308;}.cls-20{fill:#1e1102;}.cls-21{fill:#110a02;}.cls-22{fill:#3c2001;}.cls-23{fill:#292929;}.cls-24{fill:#0d0803;}.cls-25{fill:#522d04;}.cls-26{fill:#c56802;}.cls-27{fill:#432300;}.cls-28{fill:#c06501;}</style></defs><title>Asset 14</title><g id="Layer_2" data-name="Layer 2"><g id="Layer_1-2" data-name="Layer 1"><path class="cls-1" d="M21,35.41,27,31.28,37.21,28l2-.33L41,26.24l.69-6.68,14.8,8,.6,3.2,2.15,1.66,1.89.15,1.06,1c4.47,12.67,17.42,23.52,8.4,39.09l-6.18-1.22-.12-2c5.08-2.86,2.07-6.54,1-10,0-1.34,0-2.67,0-4,3.75-2.46,1-4.18-.69-6L62.4,48.25,59,43.59l-.91-2.09L56,38.63l-9-3.52L45.11,35,38.8,35l-5.45,1.77-4.58,1.17C28.32,30.62,23.37,37,21,35.41Z"/><path class="cls-2" d="M21,35.41c2.33,1.6,7.28-4.79,7.73,2.53l-.25-.12-4.3,5.6-3.16,4.24-3,3.64-2.62,4.28a8.05,8.05,0,0,1-.18,1C10.62,60.49,9.91,65.82,10,71.44L6.13,73.91c-8.13-13.09,2-22.1,7.19-32.2l1.12-1.12L17.16,39Z"/><path class="cls-3" d="M13.32,41.71C8.09,51.81-2,60.82,6.13,73.9q.48,2.7.94,5.39c-2.56,7.39,3.85,10.56,7.14,15.2L14,96.4c-2.22,7-10,14-3.63,21,3.35,3.66,9.1-1.28,12.67-5L25,111.07l5.18-.54.1,5.94c-2.22-4.13-3.89-3.63-7.65-.79-3.56,2.69-9.7,5-13.41,3.71C3.9,117.57,5.34,110.58,7.46,107,17.5,90.2-6.41,78.22,1.72,61.32,5.09,54.33,6.75,46.69,13.32,41.71Z"/><path class="cls-4" d="M56.47,27.59l-14.8-8c-.25-2.47-.49-4.93-.74-7.4l4.48-2.62,1.91,1.7,1.1-2.36,4.41-4,6.48.46c.52,1.23,1,2.45,1.55,3.68,0,2.13,0,4.25,0,6.38-.1.92-.21,1.84-.31,2.77-.32.86-.63,1.73-.94,2.59Q58.06,24.2,56.47,27.59Z"/><path class="cls-5" d="M70.58,72.69c9-15.57-3.94-26.42-8.41-39.09C78,43,79.85,71.33,64.93,85.68c-5.29,5.1-8.7,9.24-4.54,16.53,1.37,2.42.92,5.27-3.1,5.29a.28.28,0,0,1-.47,0l.3-1.11,1-6.82L56,94.39q5.72-8.28,11.44-16.57Z"/><path class="cls-6" d="M28.22,22.47c-5.85-2-5-7.22-5-11.6-.05-2.49,1.34-5,2.08-7.51l5.18,3.91,1,2.47,1.23,2.35c.18,1.14.35,2.28.53,3.42-.32,2-.65,4-1,6l-1,0-2-2.4Z"/><path class="cls-7" d="M30.23,116.47q-.06-3-.1-5.94l-2.9-2,12-1.07,2,1.12c-2.18,1.94-5.45,3.85-.17,6l0,2.72-.07.05-10.41,0A.88.88,0,0,1,30.23,116.47Z"/><path class="cls-8" d="M41.08,114.6c-5.28-2.17-2-4.08.17-6l8,1,.31.32,4.35,2.68,4-1.2.33,1.63-.25.94.65-.49,1.53.14-.33,1.89C53.26,122.42,47.51,111.09,41.08,114.6Z"/><path class="cls-9" d="M48.42,8.88l-1.1,2.36-1.91-1.7Q42.23,5.85,39,2.17C49-5,44.31,8,48.42,8.88Z"/><path class="cls-10" d="M37.21,28,27,31.28l1.8-4.61-.07.09L32,25.09c3.45,1.24,4-.8,4.06-3.52l2-3.13Z"/><path class="cls-3" d="M41.08,114.6c6.43-3.51,12.18,7.82,18.77.85-5.29,10.21-12.89-2.73-18.73,1.87Z"/><path class="cls-11" d="M39,2.17q3.2,3.68,6.37,7.37l-4.48,2.62-1.2-.59-2.23-.05c.16-2.42.31-4.84.47-7.25Z"/><path class="cls-9" d="M38,4.27c-.16,2.41-.31,4.83-.47,7.25l-4.29,4c-.18-1.14-.35-2.28-.53-3.42Z"/><path class="cls-3" d="M30.64,117.33l10.41,0C37.56,121.25,34.08,123.3,30.64,117.33Z"/><path class="cls-3" d="M60.18,113.56l-1.53-.14a1.33,1.33,0,0,1-.4-.45l-.33-1.63c-.23-.93-.46-1.87-.7-2.8C57.52,110.62,64.06,109,60.18,113.56Z"/><path class="cls-12" d="M57.22,108.54c.24.93.47,1.87.7,2.8l-4,1.2c-.29-1-.58-2.08-.88-3.12.24-.66.47-1.31.7-2h3.06a.28.28,0,0,0,.47,0Z"/><path class="cls-13" d="M32,25.09l-3.32,1.67-.39-3.19-.07-1.1,1-3.39,2,2.4Z"/><path class="cls-9" d="M59.31,5.39l-6.48-.46Z"/><path class="cls-9" d="M60.91,15.45c0-2.13,0-4.25,0-6.38C60.88,11.2,60.9,13.32,60.91,15.45Z"/><path class="cls-14" d="M28.29,23.57l.39,3.19.07-.09C24.54,26.25,27.63,24.73,28.29,23.57Z"/><path class="cls-3" d="M17.16,39l-2.72,1.6Z"/><path class="cls-5" d="M59.22,32.45l-2.15-1.66,1.87.39Z"/><path class="cls-9" d="M31.45,9.74l-1-2.47Z"/><path class="cls-9" d="M59.66,20.81c.31-.86.62-1.73.94-2.59C60.28,19.08,60,20,59.66,20.81Z"/><path class="cls-9" d="M59.22,32.45l-.28-1.27,2.17,1.42Z"/><path class="cls-15" d="M53.76,107.46c-.23.65-.46,1.3-.7,2a1.16,1.16,0,0,0-.86,0l-2.3-1-1.46-2.64-1.26-3.22-1-3-1.84-3.36c-2.54-2.26-4.89-2.44-6.93.65a1.32,1.32,0,0,1-.17.7l-2.09,0c-5.54-1.19-9.28.88-11.26,6.17l-.66.73-3.68,2.82-2.36,1.25-.87-2,3.72-7c3.65-6-.42-9.88-3.94-13.88-5.35-9.53-5.21-19.23-.81-29a8.05,8.05,0,0,0,.18-1l2.62-4.28c1-1.21,2-2.43,3-3.64-2.33,9.36,5.88,5.74,9.55,7.48,1.24.59,3.3-.59,5-1-.75-2.57-.7-6.56-2.37-7.48-6.81-3.8-2.94-6.69.12-9.93L38.8,35l6.31,0,1.89.16,9,3.52c.69,1,1.39,1.92,2.09,2.87.3.7.6,1.4.91,2.09,1.13,1.56,2.27,3.11,3.4,4.66C63,50,63.69,51.7,64.33,53.42l.94,2c0,1.34,0,2.67,0,4q-.5,5-1,10l.12,2-.34,1-6.79,9.13-3.21,3.87-1,1.67-2.83,2.38-.7,4.76a.38.38,0,0,0,.18.55q.72,3.36,1.46,6.7l.59,2.16.4-.12,1,2,.51.92Z"/><path class="cls-16" d="M33.35,36.77c-3.06,3.24-6.93,6.13-.12,9.93,1.67.92,1.62,4.91,2.37,7.48-1.69.37-3.75,1.55-5,1C26.94,53.4,18.73,57,21.06,47.66c1.05-1.42,2.11-2.83,3.16-4.24l4.3-5.6.25.12Z"/><path class="cls-13" d="M39.73,11.57l1.2.59c.25,2.47.49,4.93.74,7.4L41,26.24l-1.74,1.45-2,.33.9-9.58Z"/><path class="cls-17" d="M64.05,72.43l.34-1,6.18,1.22-3.12,5.13-3.38-3.4Z"/><path class="cls-17" d="M64.27,69.49q.51-5,1-10C66.34,63,69.35,66.63,64.27,69.49Z"/><path class="cls-16" d="M56,38.63l-9-3.52Z"/><path class="cls-17" d="M65.27,55.47l-.94-2c.08-1.32.17-2.64.25-4C66.32,51.29,69,53,65.27,55.47Z"/><path class="cls-16" d="M45.11,35,38.8,35Z"/><path class="cls-16" d="M64.58,49.46c-.08,1.32-.17,2.64-.25,4C63.69,51.7,63,50,62.4,48.25Z"/><path class="cls-10" d="M39.24,27.69,41,26.24Z"/><path class="cls-16" d="M59,43.59c-.31-.69-.61-1.39-.91-2.09C58.39,42.2,58.69,42.9,59,43.59Z"/><path class="cls-16" d="M15.28,56.56c-4.4,9.81-4.54,19.51.81,29l-4.86-4.31-.82-.82Q9.78,78,9.14,75.53l.55.61.25-.73.07-4C9.91,65.82,10.62,60.49,15.28,56.56Z"/><path class="cls-18" d="M10,71.44c0,1.32,0,2.65-.07,4a5.52,5.52,0,0,0-.8.12q.64,2.46,1.27,4.94L7.07,79.29q-.47-2.69-.94-5.39Z"/><path class="cls-1" d="M28.52,37.82l-4.3,5.6Z"/><path class="cls-16" d="M18.08,51.3l-2.62,4.28Z"/><path class="cls-19" d="M17.18,108.5l2.36-1.24,3.54,5.18c-3.57,3.72-9.32,8.66-12.67,5-6.42-7,1.41-14.06,3.63-21l6,3.08-3.72,7-4.83,1.89,1.75,2.81Z"/><path class="cls-20" d="M23.08,112.44l-3.54-5.18,3.68-2.83.65.89V103.7c2-5.29,5.72-7.36,11.26-6.17l2,2.91,1.12.19,1,6.83-12,1.07L25,111.07Zm8.18-8.79a8.19,8.19,0,0,0-1.4-1.56c-.22-.14-.75.22-1.15.35a6.37,6.37,0,0,0,.93,1.49C29.82,104.09,30.41,103.81,31.26,103.65Z"/><path class="cls-18" d="M20,99.48,14,96.4c.06-.63.11-1.27.17-1.91q-1.48-6.6-3-13.2l4.86,4.31C19.61,89.6,23.68,93.45,20,99.48Z"/><path class="cls-19" d="M11.23,81.29q1.48,6.6,3,13.2c-3.29-4.64-9.7-7.81-7.14-15.2l3.34,1.18Z"/><path class="cls-8" d="M25,111.07l2.28-2.54,2.9,2Z"/><path class="cls-21" d="M64.07,74.42l3.38,3.4Q61.72,86.1,56,94.39l-6.31.4a.38.38,0,0,1-.18-.55c.24-1.59.47-3.17.7-4.76l2.83-2.38,1.52.76-.52-2.43,3.21-3.87Z"/><path class="cls-22" d="M49.7,94.79l6.31-.4,2.09,5.13c-3-.33-5.45-.07-4.88,4l-1.08,0-.39.12c-.2-.72-.4-1.44-.59-2.16Q50.43,98.15,49.7,94.79Z"/><path class="cls-12" d="M53.22,103.48c-.57-4,1.92-4.29,4.88-4q-.48,3.42-1,6.82l-2.8-.82Z"/><path class="cls-21" d="M54.32,105.52l2.8.82-.3,1.11H53.76l-.09-1,.57-.84Z"/><path class="cls-23" d="M39.73,11.57l-1.62,6.87-2,3.13-3.82-.07c.32-2,.65-4,1-6l4.29-4Z"/><path class="cls-1" d="M32.24,21.5l3.82.07c0,2.72-.61,4.76-4.06,3.52l-.75-3.61Z"/><path class="cls-24" d="M39.25,107.46c-.33-2.28-.65-4.56-1-6.84l7.9-1.12c.33,1,.67,2,1,3l1.26,3.22,1.46,2.64c-.21.39-.41.79-.62,1.19l-8-1Z"/><path class="cls-25" d="M52.2,109.39a1.16,1.16,0,0,1,.86,0c.3,1,.59,2.08.88,3.12-1.45-.89-2.9-1.79-4.35-2.67Z"/><path class="cls-26" d="M52.2,109.39l-2.61.48-.31-.33c.21-.4.41-.8.62-1.19Z"/><path class="cls-12" d="M58.65,113.42l-.65.49.25-.94A1.33,1.33,0,0,0,58.65,113.42Z"/><path class="cls-27" d="M46.17,99.5l-7.9,1.12-1.12-.18c0-1,.06-2,.08-3a1.33,1.33,0,0,0,.17-.71l6.93-.64Z"/><path class="cls-18" d="M17.18,108.5l-3.95,2.65-1.75-2.81,4.83-1.89Z"/><path class="cls-26" d="M64.07,74.42l-6.81,7.14,6.79-9.13C64.05,73.1,64.06,73.76,64.07,74.42Z"/><path class="cls-28" d="M44.33,96.14l-6.93.64C39.44,93.7,41.79,93.88,44.33,96.14Z"/><path class="cls-25" d="M48.44,105.71l-1.26-3.22Z"/><path class="cls-22" d="M50.22,89.48c-.23,1.59-.46,3.17-.7,4.76C49.75,92.66,50,91.07,50.22,89.48Z"/><path class="cls-22" d="M54.05,85.43l.52,2.43-1.52-.76Z"/><path class="cls-28" d="M37.23,97.49c0,1,0,2-.08,3l-2-2.91Z"/><path class="cls-25" d="M53.22,103.48l1.1,2-.08,0-1.08-.08-1-2Z"/><path class="cls-26" d="M51.16,101.49c.19.72.39,1.44.59,2.16C51.55,102.93,51.35,102.21,51.16,101.49Z"/><path class="cls-19" d="M23.88,103.7v1.62l-.65-.89Z"/><path class="cls-12" d="M53.16,105.49l1.08.08-.57.84Z"/><path class="cls-22" d="M9.14,75.53a5.52,5.52,0,0,1,.8-.12l-.25.73Z"/><path class="cls-7" d="M31.26,103.65c-.85.16-1.44.44-1.62.28a6.37,6.37,0,0,1-.93-1.49c.4-.13.93-.49,1.15-.35A8.19,8.19,0,0,1,31.26,103.65Z"/></g></g></svg>