<svg xmlns="http://www.w3.org/2000/svg" viewBox="0 0 102.46 134.46"><defs><style>.cls-1{fill:#070907;}.cls-2{fill:#696969;}.cls-3{fill:#121312;}.cls-4{fill:#293625;}.cls-5{fill:#1c201a;}.cls-6{fill:#0e0e0e;}.cls-7{fill:#090c09;}.cls-8{fill:#a9aba8;}.cls-9{fill:#111;}.cls-10{fill:#515151;}.cls-11{fill:#161616;}.cls-12{fill:#5d5d5d;}.cls-13{fill:#4d4d4d;}.cls-14{fill:#171717;}.cls-15{fill:#87c371;}.cls-16{fill:#5c844e;}.cls-17{fill:#669356;}.cls-18{fill:#0a0c09;}.cls-19{fill:#282828;}.cls-20{fill:#d8d8d8;}.cls-21{fill:gray;}.cls-22{fill:#191919;}.cls-23{fill:#787878;}.cls-24{fill:#303030;}.cls-25{fill:#424242;}.cls-26{fill:#222f1d;}.cls-27{fill:#040504;}.cls-28{fill:#c2c3c2;}.cls-29{fill:#878a86;}</style></defs><title>Asset 7</title><g id="Layer_2" data-name="Layer 2"><g id="Layer_1-2" data-name="Layer 1"><path class="cls-1" d="M21,109.44l4.56-7,2.76-.11c3.57,1.79,3.65,4.16.95,6.75-4.65,4.47-9.4,8.84-14.11,13.25l2.95,2,5,.51,7,.54,7.94,1,4.11,0,17-.76,3-.16L63.28,127l.88-2,3.81-1,4.13.49,2-1.05-.17-.44,2.14.27q.63,2.93,1.28,5.85l-.39.07-11.87,2.18-27.89,1.32-2.19,0-3.9-.37c-1.85-3-3.91-2.55-6.06-.35l-5.93-.66c-1.22-3.64-3.38-3.71-6.1-1.59l-4.06-2c-.41-5.89-4.63-2.45-7.24-3l.22-.37-.2.38c.79-3,1.59-6.11,2.39-9.16l16.05-5.1h0Z"/><path class="cls-2" d="M27.89,79.73C33,61.52,38.18,43.45,58.47,35.82c4.42-1.66,8-5,3.48-8.93-2.9-2.5-8.26-2.13-12.52-3.05l1.69-.39,11,.88a6.2,6.2,0,0,0,1,.16c1.72,2.17,3.42,5.2,5.28.1l5.79,2.15L69.28,30c1.5,1.08,2.92,3,4.51,3.12C94.29,35,99.72,49,101,66.46L90.45,43.86c-5.85-8.5-15.31-11.64-23.85-9.31C51.46,38.68,39.4,48,34.94,64.45l-2.56,4.14-1.59,6.86-1.6,3.07Z"/><path class="cls-3" d="M90.45,43.86,101,66.46c.16.88.33,1.77.5,2.65l.52,3.36c.06,3.26.11,6.53.16,9.79l-2.51.8,2.53,1.62-.1,3.8-1.54.84,1.91.92c-.13,1.41-.25,2.82-.38,4.24l-1-.15-6.78.13-1.18-1,0-3c3.88-5.32,3.45-10.65.08-16Q92,67,90.9,59.52q-.8-2.55-1.6-5.1l-1.5-3.53c-.27-1.46-.54-2.91-.82-4.36Z"/><path class="cls-4" d="M87,46.53c.28,1.45.55,2.9.82,4.35-13.72-16.52-25.84-10.7-38,2.33-13,13.94-8.42,35.36-21.52,49.11l-2.76.11c.62-.86,1.94-2,1.72-2.53a23.91,23.91,0,0,0-3-4.33l2.95-4.16c10-2.5,4.44-13.2,9.61-18.62,1.83-1.92-.94-4.81-4.47-4.2l2.56-4.14c3.67,3.16,5.43,2.11,7.45-2.24C53.47,38.26,70.27,32.5,87,46.53Z"/><path class="cls-5" d="M94.26,94.46l6.78-.13.33,5.46c-.15,1.9-.31,3.81-.46,5.71l-1.19,4.69.15,4.34-1.08,2.86-2.66,3.18a6.39,6.39,0,0,0-.31.83L93,123.3l-1,1-14.65,4.82q-.64-2.92-1.28-5.85l.58-1.23,4.3-1.17,2.63-1c3.58-1.4,7.6-2.37,7.49-7.48l.46-2.15.41-1.88.69-8.1.51-4.85Z"/><path class="cls-6" d="M63.05,24.49a6.2,6.2,0,0,1-1-.16l-1-2.86,3.39-2.94H66l9.28,3.21C77.85,23,80,23.24,80,19.32l-6.93-1.85-6.7-.84-2.44,1.12L53.61,15l6.56-7.52,2.53-.05Q63.86,9.5,65,11.59L66.1,13l1.2-2.46,5.86-2.83L75,6.31c0,1.41.07,2.81.1,4.22l2.18,1c.33,0,.66-.05,1-.1a1.56,1.56,0,0,1,.69-.25l6.92,4.39.87,4.92-2.4,4.26,0,.06-2.26,1.69-1.68.38-4.56-.12-1.72,0-5.79-2.15Z"/><path class="cls-7" d="M32.38,68.59c3.53-.61,6.3,2.28,4.47,4.2-5.17,5.42.43,16.12-9.61,18.62-.17-1.74-.33-3.49-.5-5.24L27,84.49l.47-3,.47-1.78,1.3-1.21,1.6-3.07Z"/><path class="cls-8" d="M77.33,129.17,92,124.35c-16.92,12.05-36.22,10.33-55.36,9.57l.56-1.18,27.89-1.32,11.87-2.18Z"/><path class="cls-2" d="M86.78,20.45l-.87-4.92c-6.62-4.1,6.53-8,.13-12.09C89.75.21,88.4,5.33,89.88,5.77c-6.4,5.6,7.32,16.87-5.79,20.57l.25-1.57,0-.06Z"/><path class="cls-9" d="M86,3.44c6.4,4.1-6.75,8-.13,12.09L79,11.14l2.87-3.39-3.69,0-1-2.83.17-.25-.22-.2Z"/><path class="cls-8" d="M31.09,132.34l3.9.37c.18.4.35.81.53,1.21-11.13,1.06-22,.68-31.56-6.17l5,0,4.06,2,6.1,1.59L25,132Z"/><path class="cls-10" d="M53.61,15l10.33,2.75a1.66,1.66,0,0,0,.52.78l-3.39,2.94c-3.86.71-7.15.1-9-3.88L53,15.11l.27-.29Z"/><path class="cls-8" d="M20.16,110.56l-16,5.1L0,119.47C2.49,106.93,13.79,114.31,20.16,110.56Z"/><path class="cls-11" d="M62.7,7.43l-2.53.05,2.16-4.89,6.75.88h0l0,3-3,.84Z"/><path class="cls-12" d="M69.08,3.47l-6.75-.88C65.22-2,67.21.28,69.08,3.47Z"/><path class="cls-5" d="M8.94,127.77l-5,0L1.7,124.81C4.31,125.32,8.53,121.88,8.94,127.77Z"/><path class="cls-12" d="M69.1,6.48l0-3,5.76.77c.2.2.39.41.59.62-.14.48-.27,1-.4,1.45L73.16,7.67Z"/><path class="cls-2" d="M26.74,86.17c.17,1.75.33,3.5.5,5.24l-2.95,4.16C25.11,92.44,25.92,89.31,26.74,86.17Z"/><path class="cls-5" d="M0,119.47l4.11-3.81c-.8,3-1.6,6.11-2.39,9.16Q.85,122.15,0,119.47Z"/><path class="cls-2" d="M53,15.11c-.3.83-.61,1.65-.92,2.48l-2.7,3.59-.68,2C45.08,17.82,49.45,16.69,53,15.11Z"/><path class="cls-2" d="M99.72,110.19l1.19-4.69c-.19,2.11-.37,4.23-.56,6.34Z"/><path class="cls-2" d="M101.37,99.79,101,94.33l1,.15Z"/><path class="cls-13" d="M99.72,110.19l.63,1.65-.48,2.69Z"/><path class="cls-2" d="M75.84,26.72l4.56.12Z"/><path class="cls-13" d="M102.19,84.68l-2.53-1.62,2.51-.8C102.18,83.06,102.19,83.87,102.19,84.68Z"/><path class="cls-13" d="M96.13,120.57l2.66-3.18Z"/><path class="cls-2" d="M102,72.47l-.52-3.36Z"/><path class="cls-2" d="M27.42,81.51l-.47,3Z"/><path class="cls-5" d="M35.52,133.92c-.18-.4-.35-.81-.53-1.21l2.19,0c-.19.39-.37.78-.56,1.18Z"/><path class="cls-13" d="M93,123.3l2.8-1.9Z"/><path class="cls-10" d="M48.69,23.2c.23-.67.45-1.34.68-2,.58.76,1.16,1.52,1.75,2.27l-1.69.39Z"/><path class="cls-14" d="M84.34,24.77l-.25,1.57-2,.12Z"/><path class="cls-12" d="M74.84,4.24l2.24.2.22.2-.17.25-1.7,0C75.23,4.65,75,4.44,74.84,4.24Z"/><path class="cls-13" d="M102.46,90.24l-1.91-.92,1.54-.84Z"/><path class="cls-8" d="M21,109.44l-.84,1.12Z"/><path class="cls-15" d="M80.93,120.92l-4.3,1.17-2.72,1,.17.44-2,.07-4.12.49-3.81,1-2.09.38-3,.16-17-.3-4,.13h-8l-7-.54-6.18-2.23-1.77-.32c4.71-4.41,9.46-8.78,14.11-13.25,2.7-2.59,2.62-5-.95-6.75,13.1-13.75,8.55-35.17,21.52-49.11,12.12-13,24.24-18.85,38-2.33l1.5,3.54q.81,2.55,1.6,5.1Q92,67,93.11,74.47q0,8-.08,16l0,3,0,2-.51,4.85-.69,8.1c-.14.63-.28,1.26-.41,1.88s-.31,1.44-.46,2.15c.11,5.11-3.91,6.08-7.5,7.48ZM76.26,53.3h0c-5.73-7.64-12.09-5.2-18-.61-5.6,4.37-6.77,11.71-3,16.42,4.94,6.24,12.7,3,17.85-1C77.35,64.79,81.52,59.55,76.26,53.3Z"/><path class="cls-16" d="M42.08,125.27l17,.3-17,.76Z"/><path class="cls-5" d="M76.94,129.24l-11.87,2.18Z"/><path class="cls-16" d="M30.09,125.41h8a4.41,4.41,0,0,1,0,1Z"/><path class="cls-5" d="M19.1,131.33,13,129.74C15.72,127.62,17.88,127.69,19.1,131.33Z"/><path class="cls-16" d="M16.93,122.64l6.18,2.23-5-.51C17.72,123.79,17.33,123.21,16.93,122.64Z"/><path class="cls-5" d="M31.09,132.34,25,132C27.18,129.79,29.24,129.38,31.09,132.34Z"/><path class="cls-17" d="M68,124.05l4.12-.49a3.57,3.57,0,0,1,0,1Z"/><path class="cls-5" d="M38,126.36a4.41,4.41,0,0,0,0-1l4-.13.06,1.06Z"/><path class="cls-5" d="M16.93,122.64c.4.57.79,1.15,1.18,1.72l-2.95-2Z"/><path class="cls-5" d="M62.07,125.41l2.09-.38-.88,2Z"/><path class="cls-5" d="M72.1,124.54a3.57,3.57,0,0,0,0-1l2-.07Z"/><path class="cls-17" d="M73.91,123.05l2.72-1-.58,1.23Z"/><path class="cls-18" d="M87,46.53c-16.71-14-33.51-8.27-44.59,15.68-2,4.35-3.78,5.4-7.45,2.24C39.4,48,51.46,38.68,66.6,34.55c8.54-2.33,18,.81,23.85,9.31Z"/><path class="cls-14" d="M51.12,23.45c-.59-.75-1.17-1.51-1.75-2.27l2.7-3.59c1.85,4,5.14,4.59,9,3.88l1,2.86Z"/><path class="cls-14" d="M63.05,24.49l5.28.1C66.47,29.69,64.77,26.66,63.05,24.49Z"/><path class="cls-4" d="M30.79,75.45l-1.6,3.07Z"/><path class="cls-17" d="M93,90.47q0-8,.08-16C96.48,79.82,96.91,85.15,93,90.47Z"/><path class="cls-4" d="M90.9,59.52q-.8-2.55-1.6-5.1Q90.11,57,90.9,59.52Z"/><path class="cls-17" d="M93.12,95.49l0-2,1.18,1Z"/><path class="cls-17" d="M91.92,108.44l.69-8.1Z"/><path class="cls-17" d="M91.05,112.47c.15-.71.31-1.43.46-2.15C91.36,111,91.2,111.76,91.05,112.47Z"/><path class="cls-17" d="M80.93,120.92l2.62-1Z"/><path class="cls-10" d="M66.38,16.63l6.7.84c-4.27,4.29,3.32.67,2,3l.15,1.27L66,18.53C66.1,17.89,66.24,17.26,66.38,16.63Z"/><path class="cls-19" d="M69.1,6.48l4.06,1.19L67.3,10.5l-.8-.14-.4-3Z"/><path class="cls-20" d="M75.08,20.47c1.32-2.33-6.27,1.29-2-3L80,19.32Z"/><path class="cls-21" d="M78.17,7.72l3.69,0L79,11.14a1.56,1.56,0,0,0-.69.25l-1.23-.69.1-2.19Z"/><path class="cls-22" d="M78.17,7.72l-1,.79-2,2c0-1.41-.07-2.81-.1-4.22.13-.48.26-1,.4-1.45l1.7,0Z"/><path class="cls-14" d="M75.08,20.47,80,19.32c0,3.92-2.16,3.65-4.78,2.42Z"/><path class="cls-14" d="M86.78,20.45l-2.4,4.26Z"/><path class="cls-23" d="M66.1,7.32l.39,3L65,11.59Q63.86,9.5,62.7,7.43Z"/><path class="cls-24" d="M75.13,10.53l2-2c0,.73-.07,1.46-.1,2.18a3.86,3.86,0,0,1,.24.8Z"/><path class="cls-25" d="M65,11.59l1.49-1.23.81.14L66.1,13Z"/><path class="cls-14" d="M66.38,16.63c-.14.63-.28,1.26-.43,1.9H64.46a1.66,1.66,0,0,1-.52-.78Z"/><path class="cls-9" d="M77.31,11.49a3.86,3.86,0,0,0-.24-.8l1.23.7C78,11.44,77.64,11.47,77.31,11.49Z"/><path class="cls-26" d="M76.27,53.3c5.25,6.25,1.08,11.49-3.18,14.79-5.15,4-12.91,7.25-17.85,1-3.72-4.71-2.55-12,3-16.42,5.88-4.59,12.24-7,18,.61C69.52,50.39,63,49.71,57.74,56c-.28.34,2.13,3,3.28,4.5l-.08,3-4.83,2.84c1.35,1.09,2.59,2.94,4.06,3.14C72.48,71.14,76,63.8,76.27,53.3Z"/><path class="cls-27" d="M61,60.47c-1.15-1.55-3.56-4.16-3.28-4.5,5.28-6.26,11.78-5.58,18.52-2.68h0C76,63.8,72.48,71.14,60.17,69.47c-1.47-.2-2.71-2-4.06-3.14l4.83-2.84,3.19,1.79c.19-.12.39-.23.59-.34l-.63-.47-.06-5,.55-3.28L62,59.45Z"/><path class="cls-28" d="M61,60.47l1-1,2,0,.06,5a.61.61,0,0,0,0,.81l-3.19-1.79C61,62.49,61,61.48,61,60.47Z"/><path class="cls-29" d="M64,59.47l-2,0,2.55-3.26Z"/><path class="cls-29" d="M64.09,64.47l.63.47c-.2.11-.4.22-.59.34A.61.61,0,0,1,64.09,64.47Z"/></g></g></svg>