<svg xmlns="http://www.w3.org/2000/svg" viewBox="0 0 68.33 123.24"><defs><style>.cls-1{fill:#131004;}.cls-2{fill:#0f0d07;}.cls-3{fill:#040404;}.cls-4{fill:#605f5e;}.cls-5{fill:#151515;}.cls-6{fill:#100e06;}.cls-7{fill:#171716;}.cls-8{fill:#0b0b0b;}.cls-9{fill:#16140d;}.cls-10{fill:#30302f;}.cls-11{fill:#676661;}.cls-12{fill:#a2a2a2;}.cls-13{fill:#393831;}.cls-14{fill:#0e0c06;}.cls-15{fill:#525252;}.cls-16{fill:#565656;}.cls-17{fill:#f0c006;}.cls-18{fill:#0a0803;}.cls-19{fill:#4e3f04;}.cls-20{fill:#453702;}.cls-21{fill:#6b5912;}.cls-22{fill:#111110;}.cls-23{fill:#060603;}.cls-24{fill:#343430;}.cls-25{fill:#bc9708;}.cls-26{fill:#cdcdcd;}</style></defs><title>Asset 5</title><g id="Layer_2" data-name="Layer 2"><g id="Layer_1-2" data-name="Layer 1"><path class="cls-1" d="M16.62,112.27a.94.94,0,0,1-.74.37l-3.15-.18-2.24.53c-5,1.81-6.61-.81-5.84-5,.86-4.67,2.53-9.18,3.85-13.77l4.23-.69,1.92.27,2.6,1.89-5,9.65,13.34-6.84,4.53-.61.23.24q-.75,3.78-1.49,7.55l1.85,4.9,0,0L32,112l1-2.48c3.6-.58,7.18-5.54,10.79,0-4.46-.91-4.95,1.83-4.76,5.18l-1.07,1c-7.78,3.69-12.28-3.29-18.2-5.61Z"/><path class="cls-2" d="M17,47.54l4.7-1.88,1.7.86L23.71,44a.64.64,0,0,1,.52-.4C35.57,44.7,48,41.88,56.72,52.51L57,55.37,50.84,56.5c-4.28-4.9-8.57-9.78-16.16-6.65l-4.42.21-7.58,2.32-1.46.74-1.2.66-.06.06-3.27,2.59a.66.66,0,0,1-.51.44c-5.23-.7-5.37,2.92-5.55,6.52l0,0L4.77,66.8c-.36-1.11-.71-2.22-1.07-3.33L2,62.49,7.92,54.6l2-2.85.08-.09,2-1,3.13-1.88Z"/><path class="cls-3" d="M31,8.12l2.44-2.87,2.27.25C39.2,9.21,31.15,16.7,40,18.64l-5,4.93c-3.85-.14-2.09,9.21-8.37,5l-2.73-3.11L23.41,24c1.72-3.77-2.63-9.42,3.64-11.78l3.23-2.44Z"/><path class="cls-4" d="M26.65,28.53c6.28,4.25,4.52-5.1,8.37-5l2.62.26c-6.38,4-4.83,10.86-6.23,16.67,4,.69,8,1.28,12,2.08A22.53,22.53,0,0,1,59,53.5l-2.23-1C48,41.88,35.57,44.7,24.23,43.61a3.71,3.71,0,0,1-.12-.73c0-.09.21-.17.32-.25q0-3.06.07-6.13l-.54-8Z"/><path class="cls-5" d="M27.05,12.19c-6.27,2.36-1.92,8-3.63,11.77L21.17,25.2l-.33,0-.11.32-5.25-4.67L14,18.4a1,1,0,0,1-.36-.79q-.37-3.88-.76-7.77l2.45-3.39,3.37-2.8,2-.06a.71.71,0,0,0,0,.93Q23.87,8.35,27.05,12.19Z"/><path class="cls-6" d="M50.84,56.5,57,55.37l1.71.13.13,1.34Q61,59,63.22,61.11l.77,1.1q0,3.12.08,6.24l-.4,1q-2.39,5-4.78,10Q54.84,68.91,50.8,58.32Z"/><path class="cls-7" d="M58.89,79.51l4.79-10q1.49,2.57,3,5.12l1,1.12.67,7.65L66,85.06l2,1.47L67.28,89l-2.21.45H56.63Z"/><path class="cls-8" d="M40,18.64C31.15,16.7,39.2,9.21,35.72,5.5l9.82-3.89,1.73,3.9-4.67,11,0,1.86a.59.59,0,0,1-.4.59Z"/><path class="cls-9" d="M0,73.54l0-2.07,1.31-2,7.16,4.08,0,1.84C1,80.74,9.93,85.89,8.63,91.15l-5.56-2.8c-.52-.87-1-1.74-1.57-2.61l-.38-3.17L.31,78.4C.21,76.78.1,75.16,0,73.54Z"/><path class="cls-10" d="M64.43,111.51l-.25,1.62c-3.07,2.93-6.16,5.43-9.61.47q2-7,4.09-14l2.16-5.08L61,96.65l1,3.71Q63.21,105.94,64.43,111.51Z"/><path class="cls-11" d="M3.07,88.35l5.56,2.79c0,1-.09,2-.14,3-1.31,4.59-3,9.1-3.84,13.77-.77,4.24.87,6.86,5.84,5l2.24-.53,3.15.18L5,114.34c-.29-3.66-2.22-8.55-.56-10.74C9.08,97.5,4.08,93.31,3.07,88.35Z"/><path class="cls-12" d="M54.57,113.6c3.45,5,6.54,2.46,9.61-.47-5.16,8.06-11.7,7.92-18,2.06-2.88-2.67-4.54-3.39-7.2-.55-.19-3.35.3-6.09,4.76-5.18l5.09,2.07.91,2.88,3.86.06Z"/><path class="cls-13" d="M19.69,110c5.92,2.32,10.42,9.3,18.2,5.61-.39,1-.77,2-1.16,2.92l-2.34,1.54a3,3,0,0,0-.66.47l-8.09,1.1-5.77-10.7Z"/><path class="cls-14" d="M60.82,94.56l-2.16,5.07-6.95-.12-.53-1.4,4.59-8.46a6,6,0,0,1,.86-.18h8.44l.48,1.91-2.94,3Z"/><path class="cls-4" d="M18.71,3.65l-3.37,2.8L12.89,9.84q.39,3.89.76,7.77C8.69,9.78,10.63,4.43,18.71,3.65Z"/><path class="cls-4" d="M45.54,1.61,35.72,5.5l-2.27-.25C36.6,1.1,40.05-2,45.54,1.61Z"/><path class="cls-15" d="M42.6,16.54l4.67-11c0,1.32,0,2.64-.07,4l-2.43,6.14-.43.85Z"/><path class="cls-16" d="M27.05,12.19q-3.19-3.84-6.38-7.67l4.11,1,1.94,2,3.56,2.23Z"/><path class="cls-15" d="M58.72,55.5,57,55.37c-.09-.95-.19-1.91-.29-2.86l2.23,1,2,2.43,1.38,2.61c.3.86.59,1.72.89,2.57Q61,59,58.85,56.84C58.81,56.39,58.76,56,58.72,55.5Z"/><path class="cls-12" d="M64.43,111.51Q63.2,105.93,62,100.36,63.21,105.94,64.43,111.51Z"/><path class="cls-15" d="M40,18.64l2.21.35c-.22.5-.45,1-.68,1.5L39.68,22l-2,1.84L35,23.57Z"/><path class="cls-12" d="M25.64,121.62l8.09-1.1C31.21,122.2,28.85,125.05,25.64,121.62Z"/><path class="cls-4" d="M64.07,68.45q0-3.12-.08-6.24c.6,2.11,1.21,4.21,1.82,6.32Z"/><path class="cls-11" d="M20.73,25.5l.11-.32.34,0,2.74.22,2.73,3.11-2.69,0Z"/><path class="cls-9" d="M3.7,63.47c.36,1.11.71,2.22,1.07,3.33L1.09,68.5.36,67.19.85,65.5l1-.81Z"/><path class="cls-11" d="M24.5,36.5q0,3.07-.07,6.13Q24.46,39.57,24.5,36.5Z"/><path class="cls-15" d="M64.07,68.45l1.74.08L65.93,70c.25,1.55.5,3.11.74,4.66q-1.5-2.55-3-5.12Z"/><path class="cls-4" d="M44.77,15.61,47.2,9.47Z"/><path class="cls-11" d="M0,73.54c.1,1.62.21,3.24.31,4.86Z"/><path class="cls-15" d="M68,86.53l-2-1.47,2.33-1.68C68.21,84.43,68.08,85.48,68,86.53Z"/><path class="cls-4" d="M66.67,74.61c-.24-1.55-.49-3.11-.74-4.66.58,1.92,1.15,3.85,1.73,5.78Z"/><path class="cls-4" d="M24.78,5.5l-4.11-1a.71.71,0,0,1,0-.93Z"/><path class="cls-11" d="M.36,67.19c.25.43.49.87.73,1.31.08.33.16.67.25,1L0,71.47Z"/><path class="cls-4" d="M30.28,9.75,26.72,7.52l4.29.6Z"/><path class="cls-4" d="M23.71,44l-.29,2.51-1.7-.86Z"/><path class="cls-12" d="M65.55,91.39l-.48-1.91L67.28,89C66.7,89.81,66.13,90.6,65.55,91.39Z"/><path class="cls-11" d="M1.12,82.57l.38,3.17Z"/><path class="cls-11" d="M19.69,110l.18.94-3.25,1.35Z"/><path class="cls-11" d="M9.88,51.75l-2,2.85Z"/><path class="cls-4" d="M62.33,58.54,61,55.93Z"/><path class="cls-11" d="M1.81,64.69l-1,.81.66-2.43Z"/><path class="cls-4" d="M39.68,22l1.89-1.5Z"/><path class="cls-16" d="M14,18.4l1.47,2.43Z"/><path class="cls-4" d="M42.6,16.54l1.74-.08c-.56.65-1.12,1.3-1.69,1.94Z"/><path class="cls-12" d="M60.82,94.56l1.79-.19L61,96.65Z"/><path class="cls-11" d="M17,47.54l-1.9,1.21Z"/><path class="cls-11" d="M12,50.63l-2,1Z"/><path class="cls-12" d="M34.39,120.05l2.34-1.54Z"/><path class="cls-4" d="M1.81,64.69l-.3-1.62L2,62.49l1.66,1Z"/><path class="cls-17" d="M51.18,98.11l.53,1.4c.33,2.58.65,5.16,1,7.74l-6.42-6.82-1.59-2.9c-5-7-9.42,3.27-14.29.55l-.23-.24-4.53.61-13.34,6.84,5-9.65-2.6-1.89-1.92-.27-4.26-18c0-.62,0-1.23,0-1.84q1-5.09,2.11-10.16l0,0,5.55-6.52a.66.66,0,0,0,.51-.44L20,53.84l.06-.06,1.2-.66,1.46-.74,7.58-2.32,4.42-.21L50.8,58.32q4.05,10.59,8.09,21.19-1.12,5-2.26,10a6,6,0,0,0-.86.18C51.77,91.13,48.5,93,51.18,98.11ZM17.59,76.46c-2.78,2.11-3,4.12.24,6l.71,1c-2.88,4.43,1.31,6,3.65,7.07,8.07,3.8,14.84,1.89,19.57-6l2-2.07c.33-.34.66-.69,1-1l1-1c5.75-4.17,5.15-10.31,3.38-15.59-2.33-6.93-8.81-9.66-15.63-9.13-9.85.76-15.7,6.27-15.71,16.75C17.68,73.83,17.63,75.15,17.59,76.46Z"/><path class="cls-18" d="M44.68,97.53l1.59,2.9c-8.06,5.73,6.19,6.37,2.54,11.1l-5.09-2.07c-3.61-5.51-7.19-.55-10.79,0l-2.21,1,0,0c0-1.65-.07-3.31-.11-5C35.78,103.69,36.71,94.46,44.68,97.53Z"/><path class="cls-19" d="M8.47,75.43l4.26,18-4.23.69c0-1,.09-2,.13-3C9.93,85.89,1,80.74,8.47,75.43Z"/><path class="cls-20" d="M44.68,97.53c-8-3.07-8.9,6.16-14,8l-1.74.06q.74-3.76,1.49-7.55C35.26,100.8,39.64,90.54,44.68,97.53Z"/><path class="cls-21" d="M30.72,110.48l2.21-1c-.32.83-.65,1.66-1,2.48Z"/><path class="cls-20" d="M25.63,98.45l4.53-.61Z"/><path class="cls-21" d="M28.9,105.63l1.74-.06c0,1.65.07,3.31.11,5C30.13,108.9,29.51,107.26,28.9,105.63Z"/><path class="cls-19" d="M14.65,93.75l2.6,1.89Z"/><path class="cls-13" d="M12.73,112.46l-2.24.53Z"/><path class="cls-19" d="M50.8,58.32,34.68,49.85c7.59-3.13,11.88,1.75,16.16,6.65C50.83,57.11,50.81,57.71,50.8,58.32Z"/><path class="cls-19" d="M10.6,63.43Q9.54,68.5,8.49,73.59L1.33,69.51l-.24-1,3.68-1.7Z"/><path class="cls-19" d="M16.18,56.87l-5.55,6.52C10.81,59.79,11,56.17,16.18,56.87Z"/><path class="cls-19" d="M30.26,50.06l-7.58,2.32Z"/><path class="cls-19" d="M20,53.84l-3.27,2.59Z"/><path class="cls-19" d="M21.22,53.12l-1.2.66Z"/><path class="cls-4" d="M23.92,25.42l-2.74-.22L23.42,24C23.58,24.45,23.75,24.94,23.92,25.42Z"/><path class="cls-16" d="M12.89,9.84l2.45-3.39Z"/><path class="cls-2" d="M58.72,55.5c0,.45.09.89.13,1.34C58.81,56.4,58.76,56,58.72,55.5Z"/><path class="cls-20" d="M48.81,111.53c3.65-4.73-10.6-5.37-2.54-11.1l6.42,6.82c-.33-2.58-.65-5.16-1-7.74l6.95.12q-2,7-4.09,14l-1,.87-3.86-.06Z"/><path class="cls-22" d="M49.72,114.41l3.86.06Z"/><path class="cls-20" d="M51.18,98.11c-2.68-5.11.59-7,4.59-8.46Z"/><path class="cls-23" d="M45.68,80.48l-1,1-1,1-2,2.07-5,1.12-.27-2.46c-1.29-3-2.83-6-3.81-9.16a88.53,88.53,0,0,1-1.93-9.24L23.93,70.6l-3.31-.19C19.55,59.61,28.46,57.61,34.9,58,49.91,59,48.33,69.92,45.68,80.48Z"/><path class="cls-24" d="M36.52,83.23l.27,2.46C30.1,90,23.91,90.13,18.54,83.49l-.71-1-.24-6c0-1.31.09-2.63.13-3.95l2.9-2.1,3.31.19C22.81,80.11,24.3,87,36.52,83.23Z"/><path class="cls-25" d="M20.62,70.41l-2.9,2.1c0-10.48,5.86-16,15.71-16.75,6.82-.53,13.3,2.2,15.63,9.13,1.77,5.28,2.37,11.42-3.38,15.59C48.33,69.92,49.91,59,34.9,58,28.46,57.61,19.55,59.61,20.62,70.41Z"/><path class="cls-25" d="M18.54,83.49c5.37,6.64,11.56,6.51,18.25,2.2l5-1.12c-4.73,7.88-11.5,9.79-19.57,6C19.85,89.45,15.66,87.92,18.54,83.49Z"/><path class="cls-25" d="M17.59,76.46l.24,6C14.56,80.58,14.81,78.57,17.59,76.46Z"/><path class="cls-25" d="M43.71,82.5c.33-.34.66-.69,1-1Z"/><path class="cls-26" d="M36.52,83.23C24.3,87,22.81,80.11,23.93,70.6l6.85-5.77a88.53,88.53,0,0,0,1.93,9.24C33.69,77.21,35.23,80.18,36.52,83.23Z"/></g></g></svg>