<svg xmlns="http://www.w3.org/2000/svg" viewBox="0 0 84.17 104.04"><defs><style>.cls-1{fill:#a8a8a8;}.cls-2{fill:#0a0e09;}.cls-3{fill:#aeb2ac;}.cls-4{fill:#3f463d;}.cls-5{fill:#9f9f9f;}.cls-6{fill:#5a5a5a;}.cls-7{fill:#696969;}.cls-8{fill:#969696;}.cls-9{fill:#909090;}.cls-10{fill:#b9b9b9;}.cls-11{fill:#0d0e0c;}.cls-12{fill:#080a08;}.cls-13{fill:#0b0e0b;}.cls-14{fill:#232323;}.cls-15{fill:#3c3c3c;}.cls-16{fill:#222;}.cls-17{fill:#171917;}.cls-18{fill:#608952;}.cls-19{fill:#4c4f4b;}.cls-20{fill:#212e1d;}.cls-21{fill:#1b2817;}.cls-22{fill:#2d2d2d;}.cls-23{fill:#383838;}.cls-24{fill:#bdbdbd;}.cls-25{fill:#666;}.cls-26{fill:#3b3b3b;}.cls-27{fill:#89c674;}.cls-28{fill:#121a0f;}</style></defs><title>Asset 15</title><g id="Layer_2" data-name="Layer 2"><g id="Layer_1-2" data-name="Layer 1"><path class="cls-1" d="M23.1,8.09C25.27,3,31.66-3,33.91,1.72c4.5,9.45,31.2-.62,18.61,23.24C41.7,45.48,56.07,55.44,73.66,61.86c4.12,1.51,8.67,3.07,9.09,8.7l-11.86-7L58,59.57a1.13,1.13,0,0,0-.89-.22l-9.25-7.94c1-11.36-6.58-23.68,3.86-34q-1-2.13-2-4.25C45.61,3.84,37.67,16.41,33,10.28l-.07-1.89,2-.29.17-1.85c-7-7.36-7.4,1.19-10.12,4.15l-1.2-.05Z"/><path class="cls-2" d="M1.58,71.41l.45-4,4-21,6.72-1Q13.39,62.39,14,79.3a6.64,6.64,0,0,0-.1,1,5.31,5.31,0,0,0-.88.38L2.43,75.43Z"/><path class="cls-3" d="M6,46.43l-4,21c.74-7.75-.62-16.57,2.67-23,6.51-12.76-.85-24.55.44-36.61.5-4.68,3-9.68,9.82-6.4L14.9,3.6c-4.13-2.08-5.73.61-7.1,3.75-1.46,4.49.55,7.62,4,10.19.43,1.67.85,3.33,1.27,5l.79.78c.3,1.34.6,2.68.89,4Q10.38,36.89,6,46.43Z"/><path class="cls-4" d="M70.89,63.54l11.86,7c6.32,18.2-10,12.06-17.11,15.8-1.62.86-3.74.78-5.63,1.14l-3.08,1.55-2.9.48c-8.23,0-16.72,4.37-24.59-1.51,8.67-.55,19.57,1.91,25.44-2.43C61.49,80.7,98.58,93.31,70.89,63.54Z"/><path class="cls-3" d="M29.44,88C37.31,93.9,45.8,89.53,54,89.53c-14.06,10.2-28.49.17-42.69.08-4.46,0-12.67-5-11.16-13.81a32,32,0,0,1,1.4-4.39c.28,1.34.57,2.68.85,4C5.12,88.66,14.26,90.15,25.37,88Z"/><path class="cls-5" d="M11.25,101.52c2.58-.34,5.2-1.14,7.72-.88,2.81.29,5.53,1.54,8.28,2.38-.66.35-1.34,1.06-2,1-6.79-.47-18.14.95-19.43-2-3.21-7.32,4.42,3.77,5-1.4A1.12,1.12,0,0,0,11.25,101.52Z"/><path class="cls-6" d="M18.38,4.67l1.88,2.78c.23,1,.47,2.06.71,3.09l1.13.81,1.63-.21.3,3.21-5.48.24c-1.42-1.91-2.85-3.82-4.27-5.74l-2.39,4.58-.88-4,5.87-3.91Z"/><path class="cls-7" d="M70.93,97.58l1-.21,1.94,1.95-7,2.84c.08-.55.16-1.1.23-1.65Z"/><path class="cls-3" d="M23.73,11.13l-1.63.22L21,10.54c-.24-1-.48-2.06-.71-3.09l2.84.64.63,2.26A2,2,0,0,1,23.73,11.13Z"/><path class="cls-5" d="M70.93,97.58l-3.84,2.93q-.44,0-.87-.06Z"/><path class="cls-5" d="M73.22,96.93c2-1.17,4-2.18,4.33,1.48a2.16,2.16,0,0,0-.62-.15Z"/><path class="cls-1" d="M18.38,4.67l-1.5.86-2-1.93L15,1.38Z"/><path class="cls-8" d="M73.22,96.93l3.71,1.33q0,.48,0,1l-3,.1L72,97.37Z"/><path class="cls-3" d="M56.93,89.05,60,87.5Z"/><path class="cls-9" d="M66.22,100.45q.44,0,.87.06c-.07.55-.15,1.1-.23,1.65Z"/><path class="cls-3" d="M76.9,99.22q0-.48,0-1a2.16,2.16,0,0,1,.62.15l.75.41Z"/><path class="cls-3" d="M11.53,100.13l2-.35-1.43.84A2.06,2.06,0,0,0,11.53,100.13Z"/><path class="cls-10" d="M10.84,100.64a1.07,1.07,0,0,1,.69-.5,1.87,1.87,0,0,1,.57.48l-.85.9A1.12,1.12,0,0,1,10.84,100.64Z"/><path class="cls-11" d="M14.73,27.35c-.29-1.35-.59-2.69-.89-4l2.22-1.66h6.3l.44.1.41-.18,4.62-.76,2.66-6q1.25-2.29,2.5-4.57c4.68,6.13,12.62-6.44,16.74,2.92L44.6,15.62l-4.4,4,2.37,2.57,2-1.93.89-1.86,6.21-1c-10.44,10.28-2.88,22.6-3.86,34l-4,.82C34,47.17,43.79,22.41,21.44,29.81l-3.19,2.84-.05.06C8.82,36.24,18.91,27.18,14.73,27.35Z"/><path class="cls-12" d="M29.44,88H25.37l-7.54-2.45L24,82.51c8.36-.84,17.27,2.67,25-3.13l4.87-.4,18.86-3.44c-2.1-6.49-8.6-6-13.25-8.42-1.68-.89-3-2.44-4.5-3.69l.07-.06,2-2,1-1.83,12.92,4c27.69,29.77-9.4,17.16-16,22.05C49,89.93,38.11,87.47,29.44,88Z"/><path class="cls-13" d="M43.86,52.23l4-.82,9.25,7.94L56,61.41l-1,2-.07.06C51.5,59.44,42.74,60.72,43.86,52.23Z"/><path class="cls-14" d="M34.88,8.1l-2,.29-8,2c2.72-3,3.16-11.51,10.11-4.15C35,6.87,34.93,7.48,34.88,8.1Z"/><path class="cls-15" d="M24.93,10.4l8-2L33,10.28q-1.26,2.28-2.5,4.57L28,14.49l-4-.14-.3-3.21a2.1,2.1,0,0,0,0-.79Z"/><path class="cls-16" d="M44.6,15.62l5.13-2.42q1,2.12,2,4.25l-6.21,1C45.19,17.49,44.89,16.56,44.6,15.62Z"/><path class="cls-17" d="M56,61.41l1.12-2.06a1.13,1.13,0,0,1,.89.22L57,61.4Z"/><path class="cls-15" d="M34.88,8.1c0-.62.11-1.23.16-1.85C35,6.87,34.93,7.48,34.88,8.1Z"/><path class="cls-18" d="M43.86,52.23c-1.12,8.49,7.64,7.21,11.07,11.2,1.49,1.25,2.82,2.8,4.5,3.69,4.65,2.46,11.15,1.93,13.25,8.42L53.82,79c15.84-3.29,13.3-7.16.48-11.77C51,66,46.44,64.54,45.08,61.87c-4.64-9.18-8-19-12.1-28.46-1.7-3.89-5.24-4-8.45-2.22-2,1.13-3.48,3.32-5.19,5,.95.21,2.07.87,2.83.58,5.09-2,9.46-2,10.61,4.53,1.29,7.37-1.27,14.68-9.09,14.17-15.11-1-7.57,9.82-8.39,15.07C14,78.8,20.51,79.8,27.19,79.52c7.25-.29,14.51-.11,21.76-.14-7.73,5.8-16.64,2.29-25,3.13l-10.29-.19L13,80.67a5.31,5.31,0,0,1,.88-.38c0-.33.06-.66.1-1q-.64-16.9-1.28-33.82L18.2,32.71l.05-.06,3.19-2.84C43.79,22.41,34,47.17,43.86,52.23Zm-13-8.66c.12-2.41-.21-5.67-5.17-5.18-5.66.55-8.1,3.64-7.83,9.32.17,3.52,1.26,6,5.11,5.76C28.17,53.07,31.26,50.39,30.9,43.57Z"/><path class="cls-19" d="M13,80.67c.21.55.42,1.1.62,1.65l.3,2.09,1,1,2.86.14L25.37,88c-11.11,2.12-20.25.63-22.94-12.6Z"/><path class="cls-20" d="M18.2,32.71,12.74,45.48,6,46.43q4.37-9.54,8.71-19.08C18.91,27.18,8.82,36.24,18.2,32.71Z"/><path class="cls-21" d="M14,79.3c0,.33-.07.66-.1,1A6.64,6.64,0,0,1,14,79.3Z"/><path class="cls-22" d="M14.9,3.6l2,1.93L11,9.44,7.8,7.35C9.17,4.21,10.77,1.52,14.9,3.6Z"/><path class="cls-23" d="M7.8,7.35,11,9.44c.29,1.33.59,2.66.88,4,.35,1.08.69,2.16,1,3.23l-1.15.88C8.35,15,6.34,11.84,7.8,7.35Z"/><path class="cls-6" d="M16.06,21.66l-2.22,1.66-.79-.78c.2-1.6.41-3.21.62-4.82Z"/><path class="cls-23" d="M13.67,17.72c-.21,1.61-.42,3.22-.62,4.82-.42-1.67-.84-3.33-1.27-5l1.15-.87Z"/><path class="cls-24" d="M13.67,17.72l-.74-1c-.35-1.08-.69-2.16-1-3.24.79-1.53,1.59-3,2.39-4.58,1.42,1.92,2.85,3.83,4.27,5.74l3.81,7.08h-6.3Q14.86,19.7,13.67,17.72Z"/><path class="cls-25" d="M22.36,21.67l-3.81-7.08L24,14.35l4,.14c-.39,1-.78,2-1.18,3l-3.64,4.11-.41.18Z"/><path class="cls-25" d="M21,10.54l1.13.81Z"/><path class="cls-10" d="M44.6,15.62c.29.94.59,1.87.88,2.81-.29.62-.59,1.24-.89,1.86l-2,1.93L40.2,19.65Z"/><path class="cls-5" d="M26.85,17.48c.4-1,.79-2,1.18-3l2.46.36c-.89,2-1.77,4-2.66,6Z"/><path class="cls-26" d="M26.85,17.48l1,3.35-4.62.76Z"/><path class="cls-20" d="M21.44,29.81l-3.19,2.84Z"/><path class="cls-16" d="M42.57,22.22l2-1.93Z"/><path class="cls-27" d="M49,79.38c-7.25,0-14.51-.15-21.76.14C20.51,79.8,14,78.8,15.3,70.58c.82-5.25-6.72-16.07,8.39-15.07,7.82.51,10.38-6.8,9.09-14.17-1.15-6.53-5.52-6.48-10.61-4.53-.76.29-1.88-.37-2.83-.58,1.71-1.72,3.16-3.91,5.19-5,3.21-1.78,6.75-1.67,8.45,2.22,4.1,9.46,7.46,19.28,12.1,28.46C46.44,64.54,51,66,54.3,67.21c12.82,4.61,15.36,8.48-.48,11.77Z"/><path class="cls-11" d="M17.83,85.58,15,85.44l-1-1-.3-2.09L24,82.51Z"/><path class="cls-28" d="M56,61.41h1l-2,2Z"/><path class="cls-28" d="M30.9,43.57c.36,6.82-2.73,9.5-7.89,9.9-3.85.29-4.94-2.24-5.11-5.76-.27-5.68,2.17-8.77,7.83-9.32C30.69,37.9,31,41.16,30.9,43.57Z"/><path class="cls-12" d="M14,84.41l1,1Z"/></g></g></svg>