<svg xmlns="http://www.w3.org/2000/svg" viewBox="0 0 79.47 94.9"><defs><style>.cls-1{fill:#cecece;}.cls-2{fill:#0a080a;}.cls-3{fill:#6c6c6c;}.cls-4{fill:#3b393c;}.cls-5{fill:#353435;}.cls-6{fill:#3b3b3b;}.cls-7{fill:#121012;}.cls-8{fill:#222;}.cls-9{fill:#9b56a0;}.cls-10{fill:#341f35;}.cls-11{fill:#090809;}.cls-12{fill:#171717;}.cls-13{fill:#d7d7d7;}.cls-14{fill:#221323;}.cls-15{fill:#a5a5a5;}.cls-16{fill:#706f70;}.cls-17{fill:#575757;}</style></defs><title>Asset 8</title><g id="Layer_2" data-name="Layer 2"><g id="Layer_1-2" data-name="Layer 1"><path class="cls-1" d="M14.63,14.54c.4-1.38,1.09-4,1.15-4C27.09,13.29,33.52,4.05,42.06.08c.76-.36,3.08.64,3.06.91C44,21,66.84,23.61,72.47,38.65l-4.85-.24c.85-5.24-3.92-6.85-6.17-10.17-6.69-9.86-21.17-.65-26.91-11.71,1-2.8,1.5-6,3.19-8.28,1.44-2,4.26-2.93,6.47-4.34-1.58-.46-4.13-1.75-4.55-1.25a63.06,63.06,0,0,0-6.21,9.25c-.49.86,0,2.26,0,3.41l-2.07.92C25.82,15.46,21.21,5.3,14.63,14.54Z"/><path class="cls-2" d="M35.55,84.47a33.59,33.59,0,0,1-25.16-6.79c-.13-2.83-.25-5.66-.38-8.48l3.66,1.37,5.16,2.64,0,.05c8.85,9.17,18.71,7.08,28.79,2.58L50,75l2.58-1.3,12.47-5.85,2.1-1.69a1.55,1.55,0,0,1,.42-.62c3-4.33,6-10.58,8.73.16L76,66.82,69.6,73.66l-1.43.45L59.44,78.2l-2.89,1.41-5.17,1.48a2.49,2.49,0,0,0,.23.59l-2.09-.31Z"/><path class="cls-3" d="M10,69.19c.13,2.83.25,5.66.38,8.49C13.88,64-10.61,53.83,5.6,38.62L7.92,37.3c.44,1,.89,2.06,1.34,3.08L1.75,44.92l9.76-.24,2.05.71C21.87,54,1,58,10.12,66.72l0,2.44Z"/><path class="cls-4" d="M76.33,65.72c-2.71-10.74-5.74-4.49-8.73-.16q0-13.25-.1-26.47a.58.58,0,0,1,.12-.68l4.85.24a.88.88,0,0,0,.32.8Q74.67,46,76.56,52.52l.65,2.87Z"/><path class="cls-5" d="M14.63,14.54c6.58-9.24,11.19.92,16.75,1.7q-1,3.26-2,6.51l-7.87-6.64q.64,7.63,1.27,15.27l-7.29-2.91-.92-2,0-3,0-6Z"/><path class="cls-1" d="M14.6,26.51l.92,2c-3.42,2.18-12.83-.79-7.6,8.83L5.6,38.62C1.44,29.26,7.55,27.54,14.6,26.51Z"/><path class="cls-1" d="M56.55,79.61l2.89-1.41,8.73-4.09,1.43-.45,1.92-.17c-4.65,5.69-11.09,7.41-18,8.13Z"/><path class="cls-1" d="M76.33,65.72l.88-10.33c2.9,5.71,3.93,11.09-2.62,15.16L76,66.82Z"/><path class="cls-4" d="M35.55,84.47l14-3.1v1.11l-2,1.13L37.4,85.44Z"/><path class="cls-1" d="M76.56,52.52Q74.67,46,72.79,39.45,74.67,46,76.56,52.52Z"/><path class="cls-1" d="M37.4,85.44l10.18-1.83Z"/><path class="cls-4" d="M76,66.82l-1.38,3.73-3.07,2.94-1.92.17Z"/><path class="cls-1" d="M14.52,17.53l0,6Z"/><path class="cls-6" d="M16.51,94.9l-1.64-1a27.2,27.2,0,0,1,3.71-1.75c.44-.13,1.15.6,1.74.93Z"/><path class="cls-4" d="M56.55,79.61l-3,2-2.16-.53Z"/><path class="cls-1" d="M49.53,82.48V81.37l2.09.31Z"/><path class="cls-7" d="M29.41,22.75q1-3.26,2-6.51l2.07-.92,1.09,1.21c5.74,11.06,20.22,1.85,26.91,11.71,2.25,3.32,7,4.93,6.17,10.17a.58.58,0,0,0-.12.68c-11.74-3.76-20.44-22.16-36-7.48l-1-4.19,0,0,1.89-2.24L30.2,23.7Z"/><path class="cls-8" d="M34.54,16.53l-1.09-1.21c0-1.15-.5-2.55,0-3.41a63.06,63.06,0,0,1,6.21-9.25c.42-.5,3,.79,4.55,1.25-2.21,1.41-5,2.37-6.47,4.34C36,10.55,35.55,13.73,34.54,16.53Z"/><path class="cls-9" d="M31.49,31.61c15.57-14.68,24.27,3.72,36,7.48q0,13.23.1,26.47a1.55,1.55,0,0,0-.42.62l-2.1,1.69L52.61,73.72,50,75l-2.38.82C38,76.11,28,79.3,18.86,73.26l0-.05Q18,67.83,17.25,62.42q5.13-11.94,10.24-23.89c0-1.47,0-2.94.05-4.41v-.26Zm14.66,20,3.47,5.51c2.21-2.41,4.83-4.6,6.35-7.4.42-.77-2.46-3.34-3.82-5.08Z"/><path class="cls-10" d="M18.86,73.26C28,79.3,38,76.11,47.65,75.84,37.57,80.34,27.71,82.43,18.86,73.26Z"/><path class="cls-10" d="M17.25,62.42q.8,5.4,1.58,10.79l-5.16-2.64,1.85-3,0-4Z"/><path class="cls-4" d="M68.17,74.11,59.44,78.2Z"/><path class="cls-11" d="M15.52,67.53l-1.85,3L10,69.2a.37.37,0,0,1,.15,0Z"/><path class="cls-4" d="M65.08,67.87l2.1-1.69Z"/><path class="cls-10" d="M50,75l2.58-1.3Z"/><path class="cls-11" d="M17.25,62.42l-1.7,1.1-5.43,3.2C1,58,21.87,54,13.56,45.39L12.4,43.1l-.89,1.58-9.76.24,7.51-4.54,6.28-1.9c.32,0,.65.05,1,.06v0L17.55,41l1,.5,3.05-3,1.84-.28,4,.28Q22.38,50.47,17.25,62.42Z"/><path class="cls-12" d="M15.54,38.48l-6.28,1.9c-.45-1-.9-2.05-1.34-3.08-5.23-9.62,4.18-6.65,7.6-8.83l7.29,2.91,4.73,2.74c0,1.47,0,2.94-.05,4.41l-4-.28-5-.63.15,3.9-1-.5L16.5,38.51v0c0-.76.07-1.52.11-2.28l-1.69,0Z"/><path class="cls-2" d="M10.12,66.72l5.43-3.2,0,4-5.36,1.64C10.14,68.35,10.13,67.54,10.12,66.72Z"/><path class="cls-12" d="M11.51,44.68l.89-1.58,1.16,2.29Z"/><path class="cls-13" d="M27.54,34.12l-4.73-2.74q-.63-7.64-1.27-15.27l7.87,6.64c.26.32.52.64.79.95.07,1.25.15,2.5.22,3.74l0,0-2.91,6.44Z"/><path class="cls-5" d="M27.53,33.86l2.91-6.44,1,4.19Z"/><path class="cls-5" d="M30.42,27.44c-.07-1.24-.15-2.49-.22-3.74l2.11,1.5Z"/><path class="cls-14" d="M46.15,51.65l6-7C53.51,46.42,56.39,49,56,49.76c-1.52,2.8-4.14,5-6.35,7.4Z"/><path class="cls-15" d="M18.55,41.52l-.15-3.9,3.2.91Z"/><path class="cls-16" d="M21.6,38.53l-3.2-.91,5,.63Z"/><path class="cls-17" d="M15.54,38.48l-.61-2.24,1.69,0c0,.76-.07,1.52-.11,2.28C16.19,38.53,15.86,38.51,15.54,38.48Z"/><path class="cls-16" d="M16.5,38.51,17.55,41Z"/></g></g></svg>