<svg xmlns="http://www.w3.org/2000/svg" viewBox="0 0 91.84 163.02"><defs><style>.cls-1{fill:#4b484b;}.cls-2{fill:#ddd;}.cls-3{fill:#211722;}.cls-4{fill:#0d090d;}.cls-5{fill:#0f0d0f;}.cls-6{fill:#161616;}.cls-7{fill:#141414;}.cls-8{fill:#0b090b;}.cls-9{fill:#4e4a4f;}.cls-10{fill:#4a494a;}.cls-11{fill:#19101a;}.cls-12{fill:#959595;}.cls-13{fill:#2c2c2c;}.cls-14{fill:#443d44;}.cls-15{fill:#1f1d1f;}.cls-16{fill:#a45aa9;}.cls-17{fill:#221623;}.cls-18{fill:#070608;}.cls-19{fill:#0e0c0e;}.cls-20{fill:#2b252c;}.cls-21{fill:#cacaca;}.cls-22{fill:#100d11;}.cls-23{fill:#140d15;}.cls-24{fill:#2e1a30;}.cls-25{fill:#5b5b5b;}.cls-26{fill:#170f17;}.cls-27{fill:#2d182e;}.cls-28{fill:#120a13;}.cls-29{fill:#382938;}</style></defs><title>Asset 6</title><g id="Layer_2" data-name="Layer 2"><g id="Layer_1-2" data-name="Layer 1"><path class="cls-1" d="M44.44.19c2,4.85,5.65,9.66,5.74,14.55C50.56,34.09,80,35.67,76.57,53.1c-5,25.27,20,42,14.45,66-.56-2.69-1.12-5.37-1.69-8.06l-.3-5.41L82,107.05c-.54-2-1.07-4-1.61-6l6.09-2.07-2-6-4-4.89L73.63,81.8l2.61-16.75-1.75-9.24-2-1.81c3.08-7.32-.4-11.46-6.85-14.16-5.79-4.64-10.87-10.66-19.4-10l-1.14-4.6,3.31-.16,2.11.81L50.26,23c-.16-2.71.6-6-3.92-5.8l-.15-.16,0-2.08C49.87,9.55,46.3,5,44.44.19Z"/><path class="cls-2" d="M51.41,152.12c-2.39,3.52-1.9,9.85-8.78,9-.86-3-2.13-2.6-3.62-.45L11.4,159,.19,158.39a70.32,70.32,0,0,0,6.69-2.46c.25-.12-.29-1.94-.47-3l2-.11,3,.19c7.22-3.35,15.86,6.2,22.49-2.47,5.07-4.83,8.77,3.15,13.5,1.45Z"/><path class="cls-3" d="M51.41,152.12l-4-.11-5.1-3.92c5-.14,1.31-3.59,2-5.35,1.85.5,5,1.9,5.35,1.39,7.46-11,17.24,5.36,24.78-2.24,6.26,8.19,7.15,3,7.72-3.09l2.2-1.79,2.3-.12.81,4.11c-.65.78-1.29,1.57-1.94,2.36L83.44,147l-8.16,1.05c-.7,2.7-6.27-3.85-5,2.62-.93,1-1.86,2.06-2.8,3.08H66.06c-.4-7.07-6-2.13-8.71-3.74l-4.77,1.36Z"/><path class="cls-4" d="M7.9,99.53,8.42,98l1.19-2-.07-2,4.27-7.23.34.21.38-.13,3.77-.23L21.4,88q-3,8.06-5.95,16.11L10.66,126l-5-1-2-3.07a.51.51,0,0,0-.83-.1l1.2-4.66L4.45,114l-.27-2.09.15.28.31,0,1.88-1.21L5.31,110l0-4,1.42-1.86Z"/><path class="cls-5" d="M46.21,29.87c8.53-.69,13.61,5.33,19.4,10Q64.4,42,63.2,44.1C61.82,42.36,60.79,40,59,39c-11.5-6.62-21.21,1.11-31.48,4.3l-3-4.3.09-1.39,1.94-1.52,7.85-5.73L38.52,29,39.38,30l4.27.7Z"/><path class="cls-6" d="M44.44.19C46.3,5,49.87,9.55,46.16,15l-2.22,1,2.25,1,.15.16-3.17.9-1.87.19a1.26,1.26,0,0,0-.66-.31l-.25-1,0-1c3.15-4-.59-5.4-2.71-7.44L38.38,4C38.74.09,41.27-.36,44.44.19Z"/><path class="cls-7" d="M89.33,111c.57,2.69,1.13,5.37,1.69,8.06-.06,1.59-.13,3.19-.19,4.78q-.08,3.6-.13,7.19l-.24,3-3.73.19-2.35.79-1.51.09,0-5.14c0-2,0-4.11-.07-6.16l-.06-1.63c.47-2.32.93-4.65,1.39-7Z"/><path class="cls-8" d="M11.4,153l-3-.19L5.51,151a2,2,0,0,0-.78-.1L3.44,146l-.58-2.16a.47.47,0,0,0-.47.18l.33-4.9,1.81-4.06,5.9,3Q10.91,145.53,11.4,153Z"/><path class="cls-9" d="M13.85,74.36,12.31,68c0-3.69-.07-7.38-.1-11.06l1.44-2.8,1.78,2.63,3,.21c-8.26,7.3,3,15.05-.51,22.46Z"/><path class="cls-10" d="M24.49,39l3,4.3q-2.91,5.44-5.84,10.88l-4.32-3.25-2.6-.27L16.88,46l1.38-2.38,2.53-2.53L22.4,39h0Z"/><path class="cls-11" d="M10.43,138l-5.9-3-1.71-7.13,0-1.82L5.7,125l5,1c.27,2,.55,4,.82,6.07L11.43,136V138A5.46,5.46,0,0,0,10.43,138Z"/><path class="cls-12" d="M11.4,159,39,160.66c.21.2.42.4.62.61a3.65,3.65,0,0,0-.22.8C30,161.28,20,166.31,11.4,159Z"/><path class="cls-13" d="M38.52,29l-4.15,1.39-.54-5.22.36-5.2,5.38-.84,2.7,2.66,2.17,2.85Z"/><path class="cls-2" d="M72.83,155.45l6,4.82c-1.11.56-2.23,1.64-3.32,1.6-3.9-.13-7.78-.65-11.68-1Z"/><path class="cls-1" d="M86.73,134.23l3.73-.19-.11,3c-.62,3.34-1.25,6.69-1.87,10l-.3,1.6L86.34,151l-1.36.64-.77-.78c-.26-1.28-.51-2.56-.76-3.83.69-1.22,1.39-2.43,2.09-3.65.65-.79,1.29-1.58,1.94-2.36-.27-1.37-.54-2.74-.82-4.11C86.68,136,86.71,135.12,86.73,134.23Z"/><path class="cls-9" d="M40.35,16l0,1h-6l4-13c-.25,1.51-.49,3-.74,4.55Z"/><path class="cls-1" d="M70.3,150.68c-1.29-6.47,4.28.08,5-2.62,1.59,5.38,5.37,3.73,8.93,2.78l.77.78-2.62,2.32-8-.92Z"/><path class="cls-1" d="M57.35,150c2.75,1.61,8.31-3.33,8.71,3.74L59.4,153,58.28,152Z"/><path class="cls-2" d="M2.72,139.11,2.39,144c-3.31-4.65-3-9.33-.12-14Z"/><path class="cls-9" d="M33.83,25.12l.54,5.22-7.85,5.73C31,33.78,33.61,30.25,33.83,25.12Z"/><path class="cls-2" d="M13.85,74.36q2,2.55,4,5.11L18,81,14.53,86.9l-.38.13-.34-.21Q13.83,80.58,13.85,74.36Z"/><path class="cls-2" d="M12.21,57c0,3.68.07,7.37.1,11.06C9.23,64.37,9.34,60.68,12.21,57Z"/><path class="cls-14" d="M2.72,139.11,2.27,130l.55-2.06,1.71,7.13C3.93,136.4,3.32,137.75,2.72,139.11Z"/><path class="cls-2" d="M88.48,147c.62-3.34,1.25-6.69,1.87-10C92.11,140.78,92.12,144.25,88.48,147Z"/><path class="cls-2" d="M59.4,153l6.66.81H67.5C64.38,157.75,61.76,156.7,59.4,153Z"/><path class="cls-2" d="M74.38,153l8,.92C79.2,158,76.75,155.88,74.38,153Z"/><path class="cls-10" d="M34.39,17h6c.08.33.17.65.25,1l-1.24,1.1h.17l-5.38.84C34.26,19,34.33,18,34.39,17Z"/><path class="cls-1" d="M90.7,131.06q.06-3.59.13-7.19Q90.76,127.47,90.7,131.06Z"/><path class="cls-15" d="M14.76,50.64l2.6.27c-.64,2-1.29,3.93-1.93,5.89l-1.78-2.63Z"/><path class="cls-14" d="M5.7,125,2.8,126.1,2.42,124l1.32-2.11Z"/><path class="cls-9" d="M7.9,99.53l-1.14,4.61Z"/><path class="cls-2" d="M57.35,150l.93,2-5.7-.65Z"/><path class="cls-2" d="M5.34,106l0,4h-1Z"/><path class="cls-2" d="M3.44,146l1.29,4.86c-.76-1.65-1.52-3.29-2.29-4.94Z"/><path class="cls-2" d="M4.18,111.91,4.45,114l-1.09,1Z"/><path class="cls-12" d="M39,160.66c1.49-2.15,2.76-2.55,3.62.45l-1.09.42-1.91-.26C39.43,161.06,39.22,160.86,39,160.66Z"/><path class="cls-14" d="M5.51,151l2.94,1.89-2,.11Z"/><path class="cls-14" d="M3.36,115l1.09-1-.34,3.15Z"/><path class="cls-9" d="M4.29,110h1l1.21.93-1.88,1.21Z"/><path class="cls-14" d="M3.44,146l-1-.08.42-2.08Z"/><path class="cls-9" d="M22.4,39c-.54.7-1.08,1.39-1.61,2.09C21.32,40.41,21.86,39.72,22.4,39Z"/><path class="cls-9" d="M24.49,39l-2.08,0,2.17-1.43Z"/><path class="cls-2" d="M86.34,151l1.84-2.35Z"/><path class="cls-2" d="M9.54,94.05l.07,2h-1Z"/><path class="cls-2" d="M3.74,121.91,2.42,124l.49-2.21A.51.51,0,0,1,3.74,121.91Z"/><path class="cls-9" d="M8.56,96.05h1c-.39.66-.79,1.32-1.19,2Z"/><path class="cls-2" d="M39.63,161.27l1.91.26-2.13.54A3.65,3.65,0,0,1,39.63,161.27Z"/><path class="cls-9" d="M18.26,43.64,16.88,46Z"/><path class="cls-16" d="M11.48,132c-.27-2-.55-4-.82-6.07q2.4-10.92,4.79-21.85Q20.91,95,26.35,86v0c2.64-2.35,3.53-4.73.17-7.22L21.22,57l.3-2.94.16.07q2.92-5.44,5.84-10.88C37.79,40.09,47.5,32.36,59,39c1.79,1,2.82,3.38,4.2,5.12q2.1,4.95,4.19,9.91l1,2,.4,1.9v7.18L68.64,68c-8.36,11-4.09,18.46,6.87,24l2,3L80,99.57l.34,1.43c.54,2,1.07,4,1.61,6l.63,7.79.12,7.35.06,1.62c0,2,0,4.11.07,6.16l0,5.14c-.23,1.23-.47,2.46-.7,3.69-.57,6-1.46,11.28-7.72,3.09-7.54,7.6-17.32-8.72-24.78,2.24-.34.51-3.5-.89-5.35-1.39-4.49-3.83-8.7-6.05-11.11,1.95q-3.36,2.12-6.7,4.25c-1.6-8.39-10.5-6.67-15.09-10.91,0-.68,0-1.37,0-2.05C11.45,134.66,11.47,133.35,11.48,132ZM35,57.31c11.72,3.74,15.39,5.09,19.16,6,.83.19,3-1.84,3-2-2-4-.48-10.91-7-11C46.75,50.18,43.28,53.28,35,57.31Zm-1,6.1c1.84-1.65,4.45-3.69,4.3-3.91-2.17-3.3-4.71-6.36-7.16-9.48L24.3,58.57Z"/><path class="cls-17" d="M75.51,92c-11-5.51-15.23-12.93-6.87-24h1.69c-.2,2-.09,4-.66,5.92-1,3.14-7.34,4.56-3.35,9,.91,1,4.79-.67,7.31-1.11l6.73,6.27c-.32,1.3-.64,2.6-1,3.9Z"/><path class="cls-18" d="M73.63,81.8c-2.52.44-6.4,2.12-7.31,1.11-4-4.42,2.4-5.84,3.35-9,.57-1.87.46-3.94.66-5.92l2.92-2.2A3.56,3.56,0,0,1,73.4,65l2.84,0Z"/><path class="cls-19" d="M67.39,54q-2.1-4.95-4.19-9.91,1.2-2.13,2.41-4.26c6.45,2.7,9.93,6.84,6.85,14.16l-1.1,0Z"/><path class="cls-19" d="M82.59,114.84,82,107.05,89,105.62l.3,5.41-5.23,4.18Z"/><path class="cls-7" d="M76.24,65.05,73.4,65,68.81,57.9l-.4-1.9,3-1,3.1.81Zm-3.62-6.63-.34-.13c0,.1-.13.26-.1.3a1.08,1.08,0,0,0,.33.13Z"/><path class="cls-5" d="M44.44,24.59l-2.17-2.85.9-3.63,3.17-.9C50.86,17,50.1,20.3,50.26,23l-1.88,2.1-3.31.16A.92.92,0,0,1,44.44,24.59Z"/><path class="cls-5" d="M80.35,101c-.11-.48-.23-1-.34-1.43L84.4,93l2,6Z"/><path class="cls-20" d="M84.4,93,80,99.57c-.81-1.53-1.63-3-2.45-4.58l1.83-3c.33-1.3.65-2.6,1-3.9Z"/><path class="cls-21" d="M44.44,24.59a.92.92,0,0,0,.63.68l1.14,4.6-2.56.85L39.38,30,38.52,29Z"/><path class="cls-15" d="M48.38,25.11,50.26,23c.07,1,.15,1.94.23,2.91Z"/><path class="cls-15" d="M74.49,55.81,71.39,55l0-1,1.1,0Z"/><path class="cls-5" d="M46.19,17.05l-2.25-1,2.22-1Z"/><path class="cls-14" d="M11.42,138c4.59,4.24,13.49,2.52,15.09,10.91l2.75.19,4,.75.63.68c-6.63,8.67-15.27-.88-22.49,2.47q-.48-7.5-1-15A5.46,5.46,0,0,1,11.42,138Z"/><path class="cls-14" d="M42.29,148.09l5.1,3.92c-4.73,1.7-8.43-6.28-13.5-1.45l-.63-.68c.07-.62.13-1.23.2-1.85l.94-.94Z"/><path class="cls-22" d="M42.29,148.09l-7.89-1-1.19-2.4c2.41-8,6.62-5.78,11.11-1.95C43.6,144.5,47.28,148,42.29,148.09Z"/><path class="cls-15" d="M84.21,150.84c-3.56.95-7.34,2.6-8.93-2.78L83.44,147C83.7,148.28,84,149.56,84.21,150.84Z"/><path class="cls-1" d="M82.17,138.8c.23-1.23.47-2.46.7-3.69l1.51-.09c0,.67,0,1.33,0,2Z"/><path class="cls-15" d="M84.37,137c0-.66,0-1.32,0-2l2.35-.79c0,.89,0,1.77-.07,2.66Z"/><path class="cls-15" d="M87.48,141c-.65.78-1.29,1.57-1.94,2.36C86.19,142.57,86.83,141.78,87.48,141Z"/><path class="cls-23" d="M21.22,57l5.31,21.72c-.05,2.41-.11,4.81-.17,7.22v0l-5,2-3.1-1.33Q18.15,83.82,18,81l-.09-1.49c3.53-7.41-7.75-15.16.51-22.46h1Z"/><path class="cls-24" d="M21.4,88l5-2q-5.45,9.06-10.9,18.12Q18.44,96.06,21.4,88Z"/><path class="cls-9" d="M18,81q.16,2.87.32,5.71l-3.77.23Z"/><path class="cls-25" d="M39.38,30l4.27.7Z"/><path class="cls-10" d="M40.35,16,37.64,8.55C39.76,10.59,43.5,12,40.35,16Z"/><path class="cls-12" d="M43.17,18.11l-.9,3.63-2.7-2.66H39.4l1.9-.79Z"/><path class="cls-13" d="M41.3,18.3l-1.9.79L40.64,18A1.26,1.26,0,0,1,41.3,18.3Z"/><path class="cls-1" d="M82.59,114.84l1.51.37c-.46,2.32-.92,4.65-1.39,7Z"/><path class="cls-1" d="M82.84,130c0-2,0-4.11-.07-6.16C82.79,125.86,82.81,127.92,82.84,130Z"/><path class="cls-26" d="M19.39,57h-1l-3-.21c.64-2,1.29-3.92,1.93-5.89l4.32,3.25-.16-.07Z"/><path class="cls-14" d="M11.48,132c0,1.32,0,2.63-.05,3.95C11.45,134.66,11.47,133.35,11.48,132Z"/><path class="cls-27" d="M35,57.31c8.28-4,11.75-7.13,15.16-7.06,6.48.11,5,7.07,7,11,.08.17-2.13,2.2-3,2C50.39,62.4,46.72,61.05,35,57.31Z"/><path class="cls-28" d="M34,63.41,24.3,58.57,31.13,50c2.45,3.12,5,6.18,7.16,9.48C38.44,59.72,35.83,61.76,34,63.41Z"/><path class="cls-29" d="M68.81,57.9,73.4,65a3.56,3.56,0,0,0-.15.79l-4.44-.73Z"/><path class="cls-3" d="M33.21,144.69l1.19,2.4c-.31.32-.63.63-.95.94l-4.19,1.1-2.75-.19Q29.85,146.81,33.21,144.69Z"/><path class="cls-24" d="M26.36,86c.06-2.41.12-4.81.17-7.22C29.89,81.24,29,83.62,26.36,86Z"/><path class="cls-1" d="M79.39,92l-1.83,3-2-3Z"/><path class="cls-15" d="M68.81,65.08l4.44.73L70.33,68H68.64C68.7,67,68.75,66.06,68.81,65.08Z"/><path class="cls-17" d="M19.39,57l2.13-2.92L21.22,57Z"/><path class="cls-29" d="M71.36,54l0,1-3,1-1-2Z"/><path class="cls-15" d="M72.62,58.42l-.11.3a1.08,1.08,0,0,1-.33-.13s.06-.2.1-.3Z"/><path class="cls-22" d="M29.26,149.13l4.19-1.1c-.06.62-.12,1.23-.19,1.85Z"/></g></g></svg>