<svg xmlns="http://www.w3.org/2000/svg" viewBox="0 0 76.63 120.06"><defs><style>.cls-1{fill:#444443;}.cls-2{fill:#040503;}.cls-3{fill:#4d4d4d;}.cls-4{fill:#0a0b09;}.cls-5{fill:#0e1a05;}.cls-6{fill:#161815;}.cls-7{fill:#282928;}.cls-8{fill:#6e6e6e;}.cls-9{fill:#2a6502;}.cls-10{fill:#080b06;}.cls-11{fill:#090f04;}.cls-12{fill:#0b0d0b;}.cls-13{fill:#10170c;}.cls-14{fill:#060e00;}</style></defs><title>Asset 9</title><g id="Layer_2" data-name="Layer 2"><g id="Layer_1-2" data-name="Layer 1"><path class="cls-1" d="M29.37,10.4C28,27.41,50.15,27.08,52.53,43.34s4,32.09,18.82,47.18c16.11,16.38-9,15.37-17.35,16.53-15.5,2.15-31.51,1-47.29.72C1.64,107.69-.65,104,.16,99.34c3.92,6,5.2.26,7.34-1.65l1-.35,1.9,2.78L6.29,103.4a26.2,26.2,0,0,0,4.33,2.11c14.4,4,29.1,2.37,43.12-.6,5.48-1.17,19.88,6.17,16.83-10.48,2.85-3,1-5-1.54-6.73-5.76-3.78-11.57-7.48-17.36-11.21,4.24-11,1.74-21.26-3.13-31.32l-.8-3.87c-4-6.94-6.66-14.47-15.81-17.25C24.24,21.71,26.5,15.69,29.37,10.4Z"/><path class="cls-2" d="M29.37,10.4c-2.87,5.29-5.13,11.31,2.56,13.65,9.15,2.78,11.86,10.31,15.8,17.25l-7.29,0c-5.11-9.06-10.55-17-21.3-6L16.5,39.6l-2.14,6.8L8.18,47.48l-.86-2C7.55,32,26.15,27.08,22.63,11.09c-1.43-6.5-13,1-8.46-7.43C15.63,1,23,1.42,27.62.43l5.51,0,3.12,2,.15,4,0,0C34.3,7.9,29.63,3.69,29.5,9.58A.75.75,0,0,1,29.37,10.4Z"/><path class="cls-3" d="M27.62.43c-4.65,1-12,.52-13.45,3.23-4.53,8.42,7,.93,8.46,7.43C26.15,27.08,7.55,32,7.32,45.46c-2.35-8.35,2.94-14,8.35-18,6.06-4.43,3.91-10,4.55-15.23.05-.44-4.78-1.07-6.9-2.34-1.58-1-3.8-3.85-3.4-4.58C14.05-2.06,21.21.37,27.62.43Z"/><path class="cls-4" d="M7.5,97.69C5.36,99.6,4.08,105.38.16,99.34q.95-12,1.9-24.07l4.29-.88,2.84,0v2.94l-.85,3,0,9Z"/><path class="cls-5" d="M9.19,74.43l-2.84,0-3.24-1.9c.15-1.69.3-3.38.44-5.08l2.82-4-2.88-2,.57-3.09c5.28-1.05,4.08-4.55,3-8,.36-.93.72-1.87,1.09-2.8l6.18-1.08Q11.78,60.41,9.19,74.43Z"/><path class="cls-3" d="M36.25,2.43l-3.12-2c1.84.34,3.79.41,5.42,1.18.45.21-.09,2.51-.18,3.84Z"/><path class="cls-3" d="M29.5,9.58c.13-5.89,4.8-1.68,6.93-3.12Z"/><path class="cls-6" d="M7.09,50.28c1.05,3.45,2.25,6.95-3,8Z"/><path class="cls-6" d="M6.37,63.41l-2.82,4-.2-4Z"/><path class="cls-6" d="M3.11,72.49l3.24,1.9-4.29.88Z"/><path class="cls-7" d="M6.37,63.41l-3,0,.14-2Z"/><path class="cls-1" d="M36.25,2.43l2.12,3-2,1Z"/><path class="cls-8" d="M55.05,120.06l-2.44-1.22a12.6,12.6,0,0,1,2.71-.57,12.36,12.36,0,0,1,2.69.59Z"/><path class="cls-9" d="M9.19,74.43q2.6-14,5.17-28c.72-2.27,1.43-4.53,2.14-6.8l2.64-4.25c10.75-11,16.19-3.07,21.3,6l3.9,10.06q1,11.49,2.09,23c1,5.95.12,12.58,9.28,13.74,3.12.39,5.71,4.94,8.55,7.59L61.37,98.5l-5.93.72-2.08.16-42.95.73c-.64-.92-1.27-1.85-1.9-2.77-.07-2.65-.13-5.3-.2-7.94l0-9c.29-1,.57-2,.85-3ZM36.24,44.21c-4.08-2.89-6.67-5.89-9.68-6.39-1.58-.27-3.9,3.82-5.88,5.94,3.18,1.18,6.3,2.67,9.58,3.38C31.48,47.41,33.09,45.83,36.24,44.21Z"/><path class="cls-10" d="M55.44,99.22l5.93-.72c5.22,3.53,5.43-4.29,9.2-4.07,3.05,16.65-11.35,9.31-16.83,10.48-14,3-28.72,4.61-43.12.6a26.2,26.2,0,0,1-4.33-2.11l4.12-3.28,43-.74Z"/><path class="cls-11" d="M70.57,94.43c-3.77-.22-4,7.6-9.2,4.07l2.89-2.77c-2.84-2.65-5.43-7.2-8.55-7.59C46.55,87,47.4,80.35,46.42,74.4l5.25,2.09C57.46,80.22,63.27,83.92,69,87.7,71.6,89.4,73.42,91.42,70.57,94.43Z"/><path class="cls-12" d="M51.67,76.49,46.42,74.4q-1-11.49-2.08-23l4.2-6.24C53.41,55.23,55.91,65.52,51.67,76.49Z"/><path class="cls-13" d="M48.54,45.17l-4.2,6.24-3.9-10.06,7.29-.05Z"/><path class="cls-5" d="M8.31,89.4c.07,2.64.13,5.29.2,7.94l-1,.35Z"/><path class="cls-5" d="M19.14,35.35,16.5,39.6Z"/><path class="cls-5" d="M9.19,77.37c-.28,1-.56,2-.85,3C8.63,79.38,8.91,78.38,9.19,77.37Z"/><path class="cls-14" d="M36.24,44.21c-3.15,1.62-4.76,3.2-6,2.93-3.28-.71-6.4-2.2-9.58-3.38,2-2.12,4.3-6.21,5.88-5.94C29.57,38.32,32.16,41.32,36.24,44.21Z"/><path class="cls-11" d="M55.44,99.22l-2.08.16Z"/></g></g></svg>