<svg xmlns="http://www.w3.org/2000/svg" viewBox="0 0 73.94 157.62"><defs><style>.cls-1{fill:#4d5050;}.cls-2{fill:#080b0b;}.cls-3{fill:#0a0a0a;}.cls-4{fill:#1c3238;}.cls-5{fill:#0f1314;}.cls-6{fill:#9fa7a9;}.cls-7{fill:#121212;}.cls-8{fill:#1a2122;}.cls-9{fill:#686868;}.cls-10{fill:#373737;}.cls-11{fill:#4a4c4c;}.cls-12{fill:#0a0e0f;}.cls-13{fill:#090b0c;}.cls-14{fill:#121313;}.cls-15{fill:#1b1b1b;}.cls-16{fill:#181818;}.cls-17{fill:#63bcd4;}.cls-18{fill:#585858;}.cls-19{fill:#5da7bb;}.cls-20{fill:#304045;}.cls-21{fill:#0c1416;}.cls-22{fill:#254149;}.cls-23{fill:#060a0b;}.cls-24{fill:#040606;}.cls-25{fill:#16292e;}.cls-26{fill:#293639;}.cls-27{fill:#bdccd0;}</style></defs><title>Asset 10</title><g id="Layer_2" data-name="Layer 2"><g id="Layer_1-2" data-name="Layer 1"><path class="cls-1" d="M45.61,15.25c-2.49,2.5-5.8,4.59-7.26,7.59-2,4.19-2.93,9-3.6,13.67C34.68,37,39.4,38.44,42,39c23.2,4.56,35.18,28.92,24.81,50.16-.91,1.86,0,4.63.14,7l-.56.55c-9.69-6.55,3-13.63-.49-20.32a3.55,3.55,0,0,0,.86-.1l.07-1.14,1.12-4.68Q65,62.3,62.08,54.21L62,54.14l-6.22-7.79c-11-5.3-22.43-10.5-34.47-5C13.34,45.05,5.15,50,4.94,60.84q-1,5.31-2.09,10.63L2.4,73.75c-2-15.64,3.14-28,18.19-33.8,5.44-2.1,7.53-4.61,8.08-9.64.32-2.18.63-4.36.95-6.55Z"/><path class="cls-2" d="M2.69,108.21l5.88-11.7c2-1.75,5.36-3.13,1.73-6.4l-.53-.87L8.43,87.07,5.6,82.47l.31-2.88L8.51,79C14.83,84,21.33,89,17,98.59a.73.73,0,0,1-.44.62l-4.78,7.05c-5.24,8-3.66,17.2-4.15,26l-5.91.06-1.67-7,.6-4.8Q1.65,114.37,2.69,108.21Z"/><path class="cls-3" d="M45.61,15.25l-16,8.51L19.84,15.3l6.09-.11,2.72-1.88L32.73,8.2l7.15-6.68c3-.6,6-1.66,8.95-1.5.89,0,1.61,3.47,2.4,5.34l-2.58,6.73Z"/><path class="cls-4" d="M17,98.59C21.33,89,14.83,84,8.51,79l-3.76-1.7-1.56-.16c-.26-1.15-.53-2.29-.79-3.43l.45-2.28c6.58-.78.72-6.78,3.79-9,1.57-.87,4.24-1.47,4.54-2.66,2.42-9.85,8.92-14.11,18.56-14.56l-3.6,2.47C11,52,6,73.26,17.89,85.3,23.33,90.83,22,94.5,17,98.59Z"/><path class="cls-5" d="M72.64,121.29q-1,8-2,16l-1.8,2-5-6,.47-4.9c.25-2.69.49-5.37.74-8l.43-4.18c2.34-1.23,3.11-6.4,7.32-2.91.31,1.34.61,2.67.91,4-.17.66-.34,1.32-.52,2a.45.45,0,0,0-.64-.12c-.1.75-.2,1.5-.29,2.25l.23.12Z"/><path class="cls-6" d="M64,156.6c-11.82-.12-23.65-.1-35.46-.48-2.69-.09-5.33-1.58-8-2.43l1.2-1.15,4.31-3.22,3.63,2.9c8.63,5.64,18.14.43,27.09,2.18,2,1.76,3.6,4.75,6.79,1.74Z"/><path class="cls-7" d="M32.73,8.2l-4.08,5.11-2.72,1.88-6.09.11-2.42-3-.18-3.76C22.31,3.78,27.47,3.44,32.73,8.2Z"/><path class="cls-8" d="M2.83,156.18l-1.26-1.8c.08-.7.16-1.4.23-2.09.25-.91.5-1.82.74-2.72l4-7.31,3.18,1.91,4.09,7.21.1,2.14-.92.89-5.24,2Z"/><path class="cls-9" d="M32.73,8.2c-5.26-4.76-10.42-4.42-15.49.31,3.43-15.67,17.28,2.42,22.64-7Z"/><path class="cls-10" d="M72.8,113.28c-4.21-3.49-5,1.68-7.32,2.91q-1.5-4.8-3-9.61l8.3-.3,3.11,5,0,1.92Z"/><path class="cls-11" d="M2.54,149.57c-.24.9-.49,1.81-.74,2.72L.49,151.9Q.24,138.61,0,125.32l1.68,7c0,.63,0,1.25,0,1.88Z"/><path class="cls-9" d="M17.42,12.27l2.42,3,9.78,8.46c-.32,2.19-.63,4.37-.95,6.55C30.21,21,14,22.75,17.42,12.27Z"/><path class="cls-6" d="M68.81,139.29l1.8-2L64,156.6l-.43-.46Q66.19,147.73,68.81,139.29Z"/><path class="cls-1" d="M73.9,111.33l-3.11-5-2-4.07-2-2.93-.36-2.64.56-.55Z"/><path class="cls-1" d="M2.69,108.21q-1,6.15-2.09,12.31Q1.65,114.37,2.69,108.21Z"/><path class="cls-1" d="M48.65,12.09l2.58-6.73Z"/><path class="cls-1" d="M10.3,90.11c3.63,3.27.29,4.65-1.73,6.4C9.15,94.37,9.72,92.24,10.3,90.11Z"/><path class="cls-6" d="M2.83,156.18l4.88.24,1.18,1.2Z"/><path class="cls-1" d="M3.19,77.18l1.56.16c.39.75.78,1.5,1.16,2.25L5.6,82.47Z"/><path class="cls-11" d="M8.89,157.62l-1.18-1.2,5.24-2Z"/><path class="cls-1" d="M72.8,113.28l1.14,0-.23,4C73.41,116,73.11,114.62,72.8,113.28Z"/><path class="cls-11" d="M21.78,152.54l-1.2,1.15-2.85-.34v-1Z"/><path class="cls-1" d="M8.43,87.07l1.34,2.17Z"/><path class="cls-1" d="M72.55,119.14a.45.45,0,0,1,.64.12c-.18.68-.37,1.36-.55,2l-.15.22-.23-.12C72.36,120.64,72.45,119.89,72.55,119.14Z"/><path class="cls-11" d="M13.87,153.52c0-.71-.07-1.43-.1-2.14l1.94.7,0,1.16Z"/><path class="cls-6" d="M.49,151.9l1.31.39c-.07.69-.15,1.39-.23,2.09Z"/><path class="cls-6" d="M15.74,153.24l0-1.16,2,.26v1Z"/><path class="cls-12" d="M29.74,45.22c-9.64.45-16.14,4.71-18.56,14.56-.3,1.19-3,1.79-4.54,2.65l-1.7-1.59C5.15,50,13.34,45.05,21.27,41.39c12-5.54,23.48-.34,34.47,5l-.45,7.85-1.56-1.89-3.46-3.76L45.83,47l-6.08-1.7L37.67,45l-5.93.26Z"/><path class="cls-13" d="M68.78,102.21l2,4.07-8.3.3-.06,0L58,100.2a.84.84,0,0,1-.49-.61l-1.93-3.14v0l-2.47-3.29,3.76-5.85Q58,85,59.07,82.76l4.59-6.51,2.23.07c3.51,6.69-9.2,13.77.49,20.32l.36,2.64Z"/><path class="cls-14" d="M55.29,54.2l.45-7.85L62,54.14l-2.18.54c.08.13.21.39.24.38.69-.27,1.37-.56,2.06-.85Q65,62.31,67.94,70.4l-5.31.92q-2.34-5-4.7-10Z"/><path class="cls-11" d="M4.94,60.84l1.7,1.59c-3.07,2.26,2.79,8.26-3.79,9Q3.9,66.16,4.94,60.84Z"/><path class="cls-15" d="M62.63,71.32l5.31-.92c-.37,1.56-.75,3.12-1.12,4.68,0,.38,0,.76-.07,1.14a3.55,3.55,0,0,1-.86.1l-2.23-.07C63.31,74.61,63,73,62.63,71.32Z"/><path class="cls-16" d="M66.75,76.22c0-.38,0-.76.07-1.14C66.79,75.46,66.77,75.84,66.75,76.22Z"/><path class="cls-17" d="M62.63,71.32c.34,1.65.68,3.29,1,4.93l-4.59,6.51c-.74,1.52-1.49,3-2.23,4.57l-3.76,5.85,2.47,3.29v0l1.93,3.14a.84.84,0,0,0,.49.61l4.47,6.33.06,0q1.5,4.8,3,9.61c-.14,1.39-.29,2.79-.43,4.18-.25,2.68-.49,5.36-.74,8-.16,1.63-.31,3.27-.47,4.9-2.2,6.13-.18,13.94-7.17,18.19-.66-2.55-.5-6.07-2.14-7.47-5.59-4.75-5.24,1.59-6.81,4.24-5.73,4-4.09-11.95-11.24-4.17l-.25,1.71c-5.25-7.69-16.76,2-21.3-7.7l0,0h-2.4l-1,.93-1.76,4.27a2.27,2.27,0,0,0-.11.86L6.5,142.26l.37-1.92q.36-4,.71-8.07c.49-8.81-1.09-18,4.15-26l4.78-7.05a.73.73,0,0,0,.44-.62c5.08-4.09,6.38-7.76.94-13.29C6,73.26,11,52,26.14,47.69c.52,1.14,1,2.28,1.55,3.41l-4.94,5.19C16.86,63.9,19,70.45,26.38,75c6.33,3.89,12-.47,17.36-3.69,12.08,7.16-5.67-28.22,14.19-10Z"/><path class="cls-8" d="M7.58,132.27q-.35,4-.71,8.07-2.61-3.08-5.23-6.13c0-.63,0-1.25,0-1.88Z"/><path class="cls-4" d="M16.51,99.21l-4.78,7.05Z"/><path class="cls-11" d="M5.91,79.59c-.38-.75-.77-1.5-1.16-2.25L8.51,79Z"/><path class="cls-18" d="M25.93,15.19l2.72-1.88Z"/><path class="cls-19" d="M27.69,51.1c-.52-1.13-1-2.27-1.55-3.41l3.6-2.47,2,.08L37.67,45l2.08.22L45.83,47l4.44,1.59q1.74,1.88,3.46,3.76l1.56,1.89,2.64,7.13c-19.86-18.26-2.11,17.12-14.19,10l1.35-6.93c2-4,2.95-7.77-2.08-10.35a1,1,0,0,0-.79-.3l-5.61-2.08-1.79-.16-2.2.11Z"/><path class="cls-20" d="M56.67,151.51c7-4.25,5-12.06,7.17-18.19l5,6q-2.61,8.43-5.21,16.85c-3.19,3-4.83,0-6.79-1.74Z"/><path class="cls-20" d="M64.31,128.42c.25-2.69.49-5.37.74-8C64.8,123.05,64.56,125.73,64.31,128.42Z"/><path class="cls-10" d="M72.55,119.14c-.1.75-.19,1.5-.29,2.25C72.35,120.64,72.45,119.89,72.55,119.14Z"/><path class="cls-21" d="M56.67,151.51l.14,2.89c-9-1.75-18.46,3.46-27.09-2.18,3.61-.67,10.23,1.73,6.51-6.4.08-.57.17-1.14.25-1.71,5.69-3.85,3.89,12.48,11.24,4.17,1.57-2.65,1.22-9,6.81-4.24C56.17,145.44,56,149,56.67,151.51Z"/><path class="cls-22" d="M36.23,145.82c3.72,8.13-2.9,5.73-6.51,6.4l-3.63-2.9c-8,.55-9.31-5.61-11.16-11.2C19.47,147.78,31,138.13,36.23,145.82Z"/><path class="cls-23" d="M14.93,138.12c1.85,5.59,3.13,11.75,11.16,11.2l-4.31,3.22-4.05-.2-2-.26-1.94-.7-4.09-7.21a2.27,2.27,0,0,1,.11-.86q.89-2.13,1.76-4.27l1-.93h2.4Z"/><path class="cls-2" d="M1.64,134.21q2.63,3.06,5.23,6.13c-.12.64-.25,1.28-.37,1.92l-4,7.31Z"/><path class="cls-10" d="M68.78,102.21l-2-2.93Z"/><path class="cls-4" d="M37.67,45l-5.93.26Z"/><path class="cls-4" d="M45.83,47l-6.08-1.7Z"/><path class="cls-4" d="M53.73,52.31Q52,50.42,50.27,48.55,52,50.43,53.73,52.31Z"/><path class="cls-20" d="M62.43,106.53,58,100.2Z"/><path class="cls-20" d="M56.84,87.33c.74-1.53,1.49-3,2.23-4.57Q57.95,85,56.84,87.33Z"/><path class="cls-20" d="M55.55,96.47l-2.47-3.29C53.91,94.27,54.73,95.37,55.55,96.47Z"/><path class="cls-20" d="M57.47,99.59l-1.93-3.14Z"/><path class="cls-12" d="M62.08,54.21c-.69.29-1.37.58-2.06.85,0,0-.16-.25-.24-.38L62,54.14Z"/><path class="cls-24" d="M27.69,51.1l4.94.48,2.19-.11,1.79.16q-.55,2.86-1.12,5.75l-.78,1.91-1.33,2.65a.52.52,0,0,1-.17.66c-6.05.82-3.58,5.28-3.69,8.64-12.26-.45-6.65-9-6.77-14.95Z"/><path class="cls-25" d="M22.75,56.29c.12,6-5.49,14.5,6.77,14.95l1.55-.14,11.67-6.81,2.35.07-1.35,6.93c-5.39,3.22-11,7.58-17.36,3.69C19,70.45,16.86,63.9,22.75,56.29Z"/><path class="cls-22" d="M47.72,148.28c-7.35,8.31-5.55-8-11.24-4.17C43.63,136.33,42,152.24,47.72,148.28Z"/><path class="cls-22" d="M11.55,139q-.87,2.15-1.76,4.27Q10.68,141.18,11.55,139Z"/><path class="cls-22" d="M14.91,138.1h0Z"/><path class="cls-26" d="M45.09,64.36l-2.35-.07c-1.22-3.56-1.43-8.17-7.25-6.91q.57-2.88,1.12-5.75l5.61,2.08L39.61,54.8l1.17,1.28L43,54C48,56.59,47.13,60.36,45.09,64.36Z"/><path class="cls-24" d="M43,54l-2.23,2.07L39.61,54.8l2.61-1.09A1,1,0,0,1,43,54Z"/><path class="cls-26" d="M34.82,51.47l-2.19.11Z"/><path class="cls-27" d="M35.49,57.38c5.82-1.26,6,3.35,7.25,6.91L31.07,71.1c.71-2.83,1.42-5.67,2.14-8.5a.52.52,0,0,0,.17-.66l1.33-2.65Z"/><path class="cls-26" d="M33.21,62.6c-.72,2.83-1.43,5.67-2.14,8.5l-1.55.14C29.63,67.88,27.16,63.42,33.21,62.6Z"/><path class="cls-26" d="M34.71,59.29l-1.33,2.65C33.83,61.06,34.27,60.17,34.71,59.29Z"/></g></g></svg>