<svg xmlns="http://www.w3.org/2000/svg" viewBox="0 0 109.42 123.43"><defs><style>.cls-1{fill:#090603;}.cls-2{fill:#0b0b0b;}.cls-3{fill:#150e07;}.cls-4{fill:#4a4a4a;}.cls-5{fill:#0e0c09;}.cls-6{fill:#171616;}.cls-7{fill:#b2b2b2;}.cls-8{fill:#c9c7c5;}.cls-9{fill:#1e1b19;}.cls-10{fill:#595652;}.cls-11{fill:#434343;}.cls-12{fill:#363534;}.cls-13{fill:#1e1e1e;}.cls-14{fill:#4f4f4f;}.cls-15{fill:#f58103;}.cls-16{fill:#a55c0c;}.cls-17{fill:#562f04;}.cls-18{fill:#101010;}.cls-19{fill:#ababab;}.cls-20{fill:#2d241a;}.cls-21{fill:#4e2900;}.cls-22{fill:#492600;}</style></defs><title>Asset 13</title><g id="Layer_2" data-name="Layer 2"><g id="Layer_1-2" data-name="Layer 1"><path class="cls-1" d="M43,115.47l-2.79.22-3-.19-2,0-4.91-.35-16.1,2.44-7.89-.28-3.17-6,18.23-2.19,3.9-.17,7.85,0,2.12-.16,37.91,0h2.1l21-1.18,0,0,.07-1.12c-4-7-16.51-1.27-18-12l12.15,2.9,11.67,4.29,1.12,3.89c-.35,2-.71,4-1.06,6L101,113.37l.17.31-2,.13-4.22.38-.06.27.24.13h-4l-2,.64-1.52.07-4.46-.46-3,.21-5-.15-3.2.94-3.71.18-7.1-.93-1-1.22-1,1.21-2.05,0c-2.36-3.8-4.65-2.86-6.93.08Z"/><path class="cls-2" d="M49.14,24.57l-1.5.41-13.59.77.08-.09-.87-7.29c6.28.49,6.17-4.92,7.93-8.6L44.43,8l-.19-.25.22.22,5.53-3L51.17,6l1-2.4,6.92-1.86Q60.5,7.19,61.9,12.61L60,16.51l-4.75,4.14-6,3.09A.54.54,0,0,0,49.14,24.57ZM51,12.46,47.6,17a11.65,11.65,0,0,0,1.12.7c1.14-1.46,2.22-3,3.3-4.48l1.55-2.42Z"/><path class="cls-3" d="M13,66.56a5.05,5.05,0,0,0,.19-.94L15,64.54c7.9,2.12,3.29-4.73,5-7h0q4.11-3.32,8.2-6.65a2,2,0,0,1,.71-.4l17.26-6.71,5.92-.22c4.77,4.64,15.19,3.78,13.92,14.29L61,58c-1.19-1.21-2.39-2.41-3.58-3.61l-2.36-1.52a1.63,1.63,0,0,0-.62-.49L43.65,50.87l-5.42,1.87L33.88,55.4,31.31,58c-9,1.39-9.6,10.25-14,15.68l-5.14-3.13Z"/><path class="cls-4" d="M46.22,43.76,29,50.47c.1-.59.21-1.18.31-1.78l1-.93c2.87-1.23,7.42-.08,7.47-5.29l-.24-13.08-2.3-1.81h0l-1.14-1.83L47.64,25l-1,2.1c-.25,1.52-.5,3.05-.74,4.57-.12,1.14-.24,2.27-.35,3.41l-.87,3.58c0,1.17,0,2.34-.05,3.51C45.15,42.69,45.68,43.23,46.22,43.76Z"/><path class="cls-5" d="M12.13,70.51l5.14,3.13L9,95.51,6.22,96.76,5.14,86.62l.86-4Q9.06,76.55,12.13,70.51Z"/><path class="cls-6" d="M72.45,58.44l1.7,2.18.14,2,1,2,.43.17.45-.1c.41,1,.82,1.94,1.24,2.9l-.35,2.13.72,2,.41,1.92c-.65,2-1.31,3.94-2,5.91l-4.07,1.1-2.1-2-.18-1.94-.64-1.17-.41-3.76q-1.3-6.54-2.62-13.09Z"/><path class="cls-7" d="M61.16,120.62c10.62.21,21.25.39,31.87.66.51,0,1,.73,1.5,1.13-.46.35-.93,1-1.38,1-10.65-.24-21.31-.56-32-.86C61.18,121.92,61.17,121.27,61.16,120.62Z"/><path class="cls-8" d="M34.05,25.75l1.14,1.83C25.08,24.35,20.41,15.36,23.64,7.33c5.61-13.95,13.7-.47,20.79.62L41.19,9.77l-1.85-1.4c-3.48-1.26-6.89-3-10.49-3.53-1.21-.19-4.37,3.32-4.09,3.89,2.82,5.79,6.17,11.33,9.37,16.93Z"/><path class="cls-8" d="M61.16,120.62c0,.65,0,1.3,0,1.95L43,115.47l7.22-.27,6.93-.08,2.05,0h2l7.1.93-11.51,2.75Z"/><path class="cls-9" d="M72.15,80.62l4.07-1.1,3.43,1.16.88.84L80,82.59l-2.28,1.1,4.12,4,.36,1.92-5.16,1.17a2.67,2.67,0,0,0-.89,0l-.08-2.24Z"/><path class="cls-4" d="M72.45,58.44l-6.25.23a2.64,2.64,0,0,1-.14-.84c1.27-10.51-9.15-9.65-13.92-14.29a1.46,1.46,0,0,0,0-.9l2-.07,5,2,1.43.62,6.47,4.49h0l1.88,2.2a1,1,0,0,0,.4.63c.53.79,1.07,1.58,1.6,2.38Z"/><path class="cls-8" d="M102.1,101.72,90.43,97.43l-5.51-3.58.53-.49c6.69,2.44,15.25.26,19.81,8Z"/><path class="cls-10" d="M3.1,111.33q1.58,3,3.17,6l-2.21.48C2.71,115.42,1.35,113,0,110.59c.28-2,.57-4.06.85-6.09L2,101.58l3.2,1.18.23,1.52Z"/><path class="cls-10" d="M102.1,101.72l3.16-.36,2.21,3.13-.21,7.17L101,113.37l1.14-1.81c.35-2,.71-4,1.06-6Z"/><path class="cls-8" d="M59.09,1.78,52.17,3.64,50,4.89l-5.53,3c4.23-6.77,9.68-10.15,17.7-6.3Z"/><path class="cls-8" d="M12.13,70.51Q9.06,76.54,6,82.58c-.48-6.56,1.66-12,7-16Z"/><path class="cls-11" d="M59.09,1.78l3.07-.16,2.09,2q-1.19,4.51-2.35,9Q60.49,7.2,59.09,1.78Z"/><path class="cls-8" d="M4.06,117.83l2.21-.48,7.88.28,8-.55C16.34,122,10.21,120.23,4.06,117.83Z"/><path class="cls-8" d="M80.14,115.05l3-.21,4.08,1.27L72,115.84l3.2-.94Z"/><path class="cls-8" d="M5.14,86.62,6.22,96.76,4.55,99.58,2.3,96.82Z"/><path class="cls-10" d="M22.19,117.08l-8,.55,16.11-2.44-2.1,1.48Z"/><path class="cls-8" d="M61.9,12.61q1.17-4.52,2.35-9c3.86,6.06,1.17,10-4.28,12.93Z"/><path class="cls-4" d="M20.07,57.51c-1.75,2.3,2.86,9.15-5,7,0-.65,0-1.31,0-2a1.07,1.07,0,0,0,.31-.67l1.89-2.22Z"/><path class="cls-4" d="M28.25,50.87q-4.09,3.33-8.2,6.65l3.2-4.76Z"/><path class="cls-12" d="M79.65,80.68l-3.43-1.16c.65-2,1.31-3.94,2-5.91l2.12,4C80.08,78.62,79.86,79.65,79.65,80.68Z"/><path class="cls-8" d="M82.22,89.6l-.36-1.92c-.61-1.7-1.23-3.39-1.84-5.09l.51-1.07,4.92,11.84-.53.49Z"/><path class="cls-8" d="M80.3,77.59l-2.12-4-.41-1.92-.72-2,.35-2.13Q78.84,72.55,80.3,77.59Z"/><path class="cls-8" d="M37.72,42.47c0,5.21-4.6,4.06-7.47,5.29Z"/><path class="cls-13" d="M2.3,96.82l2.25,2.76c.23,1.06.45,2.12.67,3.18L2,101.58Z"/><path class="cls-8" d="M28.16,116.67l2.1-1.48,4.91.35v1.09Z"/><path class="cls-8" d="M52.16,42.64a1.46,1.46,0,0,1,0,.9l-5.92.22c-.54-.53-1.07-1.07-1.6-1.61Z"/><path class="cls-8" d="M67.05,49.73l-6.47-4.49Z"/><path class="cls-8" d="M107.26,111.66l.21-7.17C110,107,110.23,109.36,107.26,111.66Z"/><path class="cls-8" d="M28.25,50.87l-5,1.89,6-4.07c-.1.6-.21,1.19-.31,1.78A2,2,0,0,0,28.25,50.87Z"/><path class="cls-4" d="M49.24,23.74l6-3.09-3,3.1Z"/><path class="cls-8" d="M.85,104.5,0,110.59C.28,108.56.57,106.53.85,104.5Z"/><path class="cls-8" d="M59.15,44.62l-5-2Z"/><path class="cls-8" d="M76.16,64.61l-.45.1-.43-.17-1-2-.14-2Z"/><path class="cls-10" d="M95,114.19l4.22-.38a1.67,1.67,0,0,1,0,.94Z"/><path class="cls-8" d="M45.89,31.65c.24-1.52.49-3,.74-4.57C46.38,28.6,46.13,30.13,45.89,31.65Z"/><path class="cls-8" d="M91.15,114.59h4l-4,1.13Z"/><path class="cls-10" d="M87.24,116.11l-4.08-1.27,4.46.46A.63.63,0,0,1,87.24,116.11Z"/><path class="cls-8" d="M15.07,62.58c0,.65,0,1.31,0,2l-1.87,1.08Z"/><path class="cls-8" d="M49.24,23.74h3l-3.08.82A.54.54,0,0,1,49.24,23.74Z"/><path class="cls-8" d="M44.67,38.64l.87-3.58Z"/><path class="cls-8" d="M37.14,115.5l3,.19-3,.9Z"/><path class="cls-8" d="M8.89,123.41c-.22-.76-.49-1.2-.4-1.55s.63-.35,1-.52c.12.27.4.6.33.82A6,6,0,0,1,8.89,123.41Z"/><path class="cls-14" d="M26.26,122l-1.67-.72a8.2,8.2,0,0,1,2.15-.62,6,6,0,0,1,1.89.67Z"/><path class="cls-8" d="M68.92,51.92,67,49.72Z"/><path class="cls-8" d="M17.27,59.69l-1.89,2.22Z"/><path class="cls-10" d="M91.15,114.59l0,1.13-2-.49Z"/><path class="cls-8" d="M99.18,114.75a1.67,1.67,0,0,0,0-.94l2-.13Z"/><path class="cls-8" d="M35.18,27.58l2.3,1.81Z"/><path class="cls-8" d="M70.92,54.93c-.53-.8-1.07-1.59-1.6-2.38C69.85,53.34,70.39,54.13,70.92,54.93Z"/><path class="cls-10" d="M37.14,115.5v1.09l-2,0v-1.09Z"/><path class="cls-15" d="M5.22,102.76c-.22-1.06-.44-2.12-.67-3.18l1.67-2.82L9,95.51C19.63,84.88,18.55,67.31,31.31,58l2.57-2.56,4.35-2.66,5.42-1.87,10.79,1.49a1.63,1.63,0,0,1,.62.49l2.36,1.52c1.19,1.2,2.39,2.4,3.58,3.61l7.82,13.78c.14,1.25.27,2.51.41,3.76l.64,1.17.18,1.94c-.1,1.4-.28,2.8-.28,4.2,0,15.68,12.12,19.9,23.46,24.87l-18,1.17h-2.1l-37.91,0-2.12.16-7.85,0-3.9.17c-5.58-.69-12.85,4.14-15.88-4.87ZM60.06,67.37l-8.27-7.51-7.13,8.26c3.56.47,7.12,1.1,10.7,1.32C56.48,69.51,57.67,68.47,60.06,67.37Zm-31,5.11,10-4.87c-1.79-1.62-4.26-4.93-5.23-4.54C31,64.22,28.74,66.81,26.43,69A39.7,39.7,0,0,0,29.08,72.48Z"/><path class="cls-16" d="M93.23,107.7c-11.34-5-23.48-9.19-23.46-24.87,0-1.4.18-2.8.28-4.2l2.1,2,3.94,7.86c0,.75,0,1.49.08,2.24a2.6,2.6,0,0,1,.88,0l1.23,3.76c1.52,10.74,14,5,18,12l-.06,1.12,0,0Z"/><path class="cls-17" d="M35.2,108.84l37.91,0Z"/><path class="cls-17" d="M5.45,104.28c3,9,10.3,4.18,15.88,4.87L3.1,111.34C3.88,109,4.67,106.63,5.45,104.28Z"/><path class="cls-17" d="M93.23,107.7h3l-21,1.18Z"/><path class="cls-12" d="M78.28,94.53l-1.23-3.76,5.17-1.17,2.7,4.25,5.51,3.58Z"/><path class="cls-10" d="M57.12,115.12l-6.93.08C52.47,112.26,54.76,111.32,57.12,115.12Z"/><path class="cls-17" d="M25.23,109l7.85,0Z"/><path class="cls-1" d="M103.22,105.61c-.35,2-.71,4-1.06,6C102.51,109.57,102.87,107.59,103.22,105.61Z"/><path class="cls-10" d="M80.14,115.05l-5-.15Z"/><path class="cls-10" d="M61.15,115.09h-2l1-1.21Z"/><path class="cls-17" d="M96.24,107.66l.06-1.12Z"/><path class="cls-18" d="M34.13,25.66c-3.2-5.6-6.55-11.14-9.37-16.93-.28-.57,2.88-4.08,4.09-3.89,3.6.55,7,2.27,10.49,3.53,1.82,5.68-12.53,1.5-6.08,10Z"/><path class="cls-11" d="M33.26,18.37c-6.45-8.5,7.9-4.32,6.08-10l1.85,1.4C39.43,13.45,39.54,18.86,33.26,18.37Z"/><path class="cls-19" d="M52,13.2c-1.08,1.51-2.16,3-3.3,4.48A11.65,11.65,0,0,1,47.6,17L51,12.46Z"/><path class="cls-11" d="M50,4.89l2.18-1.25-1,2.4Z"/><path class="cls-19" d="M51,12.46l2.56-1.68L52,13.2Z"/><path class="cls-16" d="M31.31,58C18.55,67.31,19.63,84.88,9,95.51l8.24-21.87C21.71,68.21,22.35,59.35,31.31,58Z"/><path class="cls-16" d="M68.82,71.76,61,58l5.06-.15a2.64,2.64,0,0,0,.14.84Q67.51,65.21,68.82,71.76Z"/><path class="cls-16" d="M54.44,52.36,43.65,50.87Z"/><path class="cls-16" d="M38.23,52.74,33.88,55.4Z"/><path class="cls-16" d="M57.42,54.37l-2.36-1.52Z"/><path class="cls-12" d="M77.05,69.64l.72,2Z"/><path class="cls-4" d="M74.29,62.59l1,2Z"/><path class="cls-16" d="M69.87,76.69l-.64-1.17Z"/><path class="cls-12" d="M80,82.59c.61,1.7,1.23,3.39,1.84,5.09l-4.12-4Z"/><path class="cls-20" d="M76.17,90.72c0-.75,0-1.49-.08-2.24C76.12,89.23,76.14,90,76.17,90.72Z"/><path class="cls-21" d="M60.06,67.37c-2.39,1.1-3.58,2.14-4.7,2.07-3.58-.22-7.14-.85-10.7-1.32l7.13-8.26Z"/><path class="cls-22" d="M29.08,72.48A39.7,39.7,0,0,1,26.43,69c2.31-2.19,4.55-4.78,7.37-5.93,1-.39,3.44,2.92,5.23,4.54Z"/></g></g></svg>