<svg xmlns="http://www.w3.org/2000/svg" viewBox="0 0 97.67 150.37"><defs><style>.cls-1{fill:#0c0508;}.cls-2{fill:#585355;}.cls-3{fill:#160a0f;}.cls-4{fill:#929292;}.cls-5{fill:#4e4e4e;}.cls-6{fill:#403d3f;}.cls-7{fill:#3f3f3f;}.cls-8{fill:#181214;}.cls-9{fill:#240611;}.cls-10{fill:#330b19;}.cls-11{fill:#4a4949;}.cls-12{fill:#494345;}.cls-13{fill:#c30a4e;}.cls-14{fill:#370316;}.cls-15{fill:#1f0c13;}.cls-16{fill:#360718;}.cls-17{fill:#0a0205;}.cls-18{fill:#101010;}</style></defs><title>Asset 11</title><g id="Layer_2" data-name="Layer 2"><g id="Layer_1-2" data-name="Layer 1"><path class="cls-1" d="M38.13,29.89l.23-6.48-5.22-3,4.2-7.32,7.22-1.5,3.6-5.2.32-3,1.79-1.18h4.16l3-.23L59,3.56,58,4.85l1.22.47L58,8.11l-1.55.33L54,12C40.87,17.68,42.4,26.94,47.78,37.14l-3.35,2c-10.2.25-16.62,6.4-22.06,14.1l-.83,1.13h0c-4.54,3.24-7.26,7.43-6.93,13.22l-4.09,4.08L7.33,68.28,8.4,64.44H10l-.45-1.19-.1-5,1.5-1.8,2.43-4.3,3-5c.25-.37.51-.74.76-1.12l.12-.1L38,32.51Z"/><path class="cls-2" d="M68,54.9c8.21,19.74,9.29,40.39,7.58,61.33-.12,1.47-2.72,2.74-4.16,4.1,1.32-7.39,4.23-14.72.76-22.27q-2.36-11.79-4.72-23.59l-2.07-6.58,0-6.37Z"/><path class="cls-3" d="M68,54.9c-.87,2.21-1.75,4.41-2.63,6.62L44.43,39.17l3.34-2c9.55-.33,10.89,10.49,18.1,13.32l1.83,3.92-.48.6.63-.29Z"/><path class="cls-4" d="M81.14,138.27c4.63-1.07,9.25-2.19,13.89-3.17a8.2,8.2,0,0,1,2.64.34c-1.08,1-2,2.75-3.27,3-11.74,2.34-23.52,4.44-35.31,6.52-.61.11-1.38-.6-2.07-.93.73-.94,1.3-2.49,2.21-2.73,7.09-1.91,14.24-3.57,21.38-5.3Z"/><path class="cls-5" d="M65.87,50.46c-7.21-2.83-8.55-13.65-18.1-13.32C42.4,26.94,40.87,17.68,54,12l1.07.23C31.48,32.69,63.64,37.33,65.87,50.46Z"/><path class="cls-6" d="M7.33,68.28l3.23,3.41L8.49,85.15Q5.88,99.24,3.26,113.33l-1.13-1.69c0-.58.07-1.15.1-1.73q.23-14.77.47-29.55l.53-4,2-6.63-.06-.27.23-.13Z"/><path class="cls-7" d="M11.87,142.38C15.15,143.69,19,146,23,146.66c6.15.94,12.48.67,18.73.92-.23.49-.53,1.43-.67,1.41-8.36-1.4-16.93,4.68-25.37-1.31-3.19-2.26-7.94-2.33-12-3.4Z"/><path class="cls-8" d="M43.29,128.68l-1.75.66-2.12,1-4.05.09-2.88-3-6-.94-3-.14-.07-1.17c2.06-4.68,5.8-5.24,10.21-4.14l4.27,4,1,0q3.44-3.52,6.88-7l.39-.07.35.17,2.22,3.08c.42.92.83,1.84,1.24,2.76l-.66.44-4.25,2.76Z"/><path class="cls-9" d="M56.52,130.91l-9.43-1.51c.32-.7.65-1.4,1-2.1l1.26-3,.66-.44,4.26,3.22q2.19-4.9,4.37-9.82l7.58-3,.43,1.63-1.17,3.15Z"/><path class="cls-10" d="M65.46,119.09l1.17-3.15c8.06-4-2.21-13.76,5.55-17.88,3.47,7.55.56,14.88-.76,22.27l-1,.88Z"/><path class="cls-11" d="M37.34,13.05l-4.2,7.32L28,20.42,26.45,18.8,24.3,17.37l.05,0c-.41-3.6.67-6.35,4.62-6.8,1.11-.12,2.35,1,3.53,1.52l-4.95,1.2c.31.35.79,1.07.92,1,1.4-.64,2.75-1.39,4.11-2.11l1.8-1.64,2,.4Z"/><path class="cls-11" d="M38,32.51,17.21,46,37,32.41Z"/><path class="cls-11" d="M2.7,80.36q-.24,14.77-.47,29.55Q2.46,95.14,2.7,80.36Z"/><path class="cls-2" d="M65.46,119.09l4.91,2.12c-8-1.55-8.48,7.55-13.85,9.7Z"/><path class="cls-5" d="M34.38,10.59l-1.8,1.64-.08-.1c-1.18-.54-2.42-1.64-3.53-1.52-3.95.45-5,3.2-4.62,6.8,0-2.25-.24-6.38.2-6.46C27.75,10.37,31.09,10.61,34.38,10.59Z"/><path class="cls-5" d="M37.34,13.05,36.41,11c7.75,3.32,7.78-5.53,12.07-7.66-.11,1-.22,2-.32,3l-3.6,5.2Z"/><path class="cls-11" d="M26.49,126.52l6,.94.95,2.94c-3.68-2.85-6.72-1.82-9.38,1.55-.31-.34-.63-.67-.94-1l.6-1.63Z"/><path class="cls-11" d="M24.06,132c-3.83,4.25-7.26,2.84-10.54-.75l.67-.68,1.21.65h4.07l3.64-.23Z"/><path class="cls-5" d="M28,20.42l5.11-.05,5.22,3Z"/><path class="cls-6" d="M0,124.25c.06-1.64.12-3.27.19-4.91l2.24-.07,1,3-.32,4.09Z"/><path class="cls-11" d="M7.33,68.28l-1.93,1,4-11c0,1.67.07,3.34.1,5L8.4,64.44Z"/><path class="cls-11" d="M13.52,131.2l-10.41-.59c.24-.23.47-.47.7-.71l10.38.61Z"/><path class="cls-11" d="M0,124.25l3.13,2.07c.23,1.19.45,2.38.68,3.58-.23.24-.46.48-.7.71Q1.57,127.43,0,124.25Z"/><path class="cls-5" d="M59,3.56,57.47,1.91c0-.63,0-1.27,0-1.91,3.5.31,4,2.05,2.23,4.8Z"/><path class="cls-11" d="M2.43,119.27l-2.24.07c.25-1,.5-2,.76-3l2.36-.06C3,117.3,2.73,118.28,2.43,119.27Z"/><path class="cls-11" d="M5.23,69.68l-2,6.63Z"/><path class="cls-5" d="M54.43,2.14H50.27l4.16-2Z"/><path class="cls-11" d="M48.07,127.3c-.33.7-.66,1.4-1,2.1l-3.8-.72,1.79-1.59Z"/><path class="cls-11" d="M54.43,2.14V.1l3-.1c0,.64,0,1.28,0,1.91Z"/><path class="cls-11" d="M13.35,52.15l-2.43,4.3Z"/><path class="cls-12" d="M33.44,130.4l-.95-2.94,2.88,3Z"/><path class="cls-6" d="M3.31,116.31,1,116.37c0-.68.06-1.36.1-2.05l2.25-.09C3.31,114.93,3.31,115.62,3.31,116.31Z"/><path class="cls-11" d="M55,12.25,54,12l2.49-3.58v2Z"/><path class="cls-11" d="M3.3,114.23l-2.25.09,1.08-2.68,1.14,1.69A1.83,1.83,0,0,1,3.3,114.23Z"/><path class="cls-5" d="M38,32.51l-.93-.1,1.11-2.52Z"/><path class="cls-5" d="M24.3,17.37l2.15,1.43Z"/><path class="cls-5" d="M56.45,10.48v-2L58,8.11Z"/><path class="cls-11" d="M59,3.56l.65,1.24-.49.52L58,4.85Z"/><path class="cls-11" d="M39.42,130.36l2.12-1Z"/><path class="cls-5" d="M67.85,54.69l-.63.29.48-.6Z"/><path class="cls-11" d="M17.09,46.05c-.25.38-.51.75-.76,1.12C16.58,46.8,16.84,46.43,17.09,46.05Z"/><path class="cls-13" d="M72.18,98.06c-7.76,4.12,2.51,13.85-5.55,17.88-.15-.54-.29-1.08-.43-1.63-1.61-.78-4-2.63-4.67-2.14-1.44,1.08-2,3.34-2.91,5.12l-4.37,9.82L50,123.89c-.41-.92-.82-1.84-1.24-2.76l-2.22-3.08-.35-.17-.4.07c-6.61-1.87-4.09,5.17-6.87,7l-1,0-4.27-4c-5.32-13.1-10.66-2.39-16,0v0c-13.07.76-8-8.78-8.42-15C8.79,99,8.72,92.09,8.49,85.15l2.07-13.46,4.09-4.08C19.31,63,24.56,62,30.49,65c5.51-10.91-8.23-4.71-8.94-10.07a2.13,2.13,0,0,1,0-.5h0c.28-.37.55-.75.83-1.13,5.44-7.7,11.86-13.85,22.06-14.1L65.37,61.52c0,2.12,0,4.24,0,6.37l2.07,6.58Q69.82,86.26,72.18,98.06Z"/><path class="cls-14" d="M21.58,54.39a2.13,2.13,0,0,0,0,.5C22.26,60.25,36,54.05,30.49,65,24.56,62,19.31,63,14.65,67.61,14.32,61.82,17,57.63,21.58,54.39Z"/><path class="cls-11" d="M44.56,11.55l3.6-5.2Z"/><path class="cls-6" d="M8.4,64.44l1.12-1.18L10,64.45Z"/><path class="cls-14" d="M22.37,53.27c-.28.38-.55.76-.83,1.13C21.82,54,22.09,53.65,22.37,53.27Z"/><path class="cls-15" d="M67.46,74.47l-2.07-6.58Z"/><path class="cls-16" d="M8.49,85.15c.23,6.94.3,13.89.74,20.82.4,6.26-4.65,15.8,8.42,15l-14.2,1.22-1-3c.3-1,.59-2,.88-3,0-.69,0-1.38,0-2.08a1.83,1.83,0,0,0,0-.9Q5.87,99.25,8.49,85.15Z"/><path class="cls-17" d="M3.45,122.23,17.65,121v0c-1,5.49,3,4,5.78,4.15,0,.39,0,.78.07,1.17l.21,2.94-.6,1.63-3.65.23H15.4l-1.21-.65L3.81,129.9c-.23-1.2-.45-2.39-.68-3.58C3.24,125,3.34,123.6,3.45,122.23Z"/><path class="cls-16" d="M23.44,125.21c-2.78-.19-6.81,1.34-5.78-4.15,5.33-2.38,10.67-13.09,16,0C29.24,120,25.5,120.53,23.44,125.21Z"/><path class="cls-16" d="M38.91,125c2.78-1.87.26-8.91,6.87-7Z"/><path class="cls-16" d="M33.64,121.07l4.28,4Z"/><path class="cls-12" d="M48.07,127.3l-3-.21,4.25-2.76Z"/><path class="cls-6" d="M23.72,129.32l-.21-2.94,3,.14C25.56,127.45,24.64,128.39,23.72,129.32Z"/><path class="cls-16" d="M46.53,118.05l2.22,3.08Z"/><path class="cls-10" d="M58.62,117.29c.92-1.78,1.47-4,2.91-5.12.64-.49,3.06,1.36,4.67,2.14Z"/><path class="cls-18" d="M32.58,12.23c-1.36.72-2.71,1.47-4.11,2.11-.13.06-.61-.66-.92-1l4.95-1.2Z"/><path class="cls-6" d="M15.4,131.17h0Z"/></g></g></svg>