<svg xmlns="http://www.w3.org/2000/svg" viewBox="0 0 85.1 150.99"><defs><style>.cls-1{fill:#080607;}.cls-2{fill:#0b0607;}.cls-3{fill:#241c1d;}.cls-4{fill:#635e5f;}.cls-5{fill:#0d0b0c;}.cls-6{fill:#aaa;}.cls-7{fill:#b0b0b0;}.cls-8{fill:#262525;}.cls-9{fill:#616161;}.cls-10{fill:#484747;}.cls-11{fill:#1b1b1b;}.cls-12{fill:#525252;}.cls-13{fill:#3c3c3c;}.cls-14{fill:#2c2c2c;}.cls-15{fill:#fb748d;}.cls-16{fill:#0f090a;}.cls-17{fill:#4c242c;}.cls-18{fill:#4f272f;}.cls-19{fill:#c65d71;}.cls-20{fill:#c7c0c1;}.cls-21{fill:#341a1f;}.cls-22{fill:#171717;}.cls-23{fill:#9b9b9b;}.cls-24{fill:#3b3b3b;}.cls-25{fill:#515151;}.cls-26{fill:#582831;}.cls-27{fill:#3d1c22;}</style></defs><title>Asset 2</title><g id="Layer_2" data-name="Layer 2"><g id="Layer_1-2" data-name="Layer 1"><path class="cls-1" d="M5.09,138.23l-1.22-1.7Q3.7,116.9,3.55,97.28L8,97.44,10.8,99.5l.94,1c0,2,0,3.91,0,5.87a.58.58,0,0,0-.72.12l-1.49.88,1.22,1.19.4,0,.29-.27q-.36,5.51-.71,11l-.25,5.11.08,2-.05,2.16,1.08,2.23c1.38,7.14,6.22,4.4,10.37,3.63l4,.09,3-.08,1.89.27a11.83,11.83,0,0,0,13.1.38l1.4-.09.11.77-.07-.77.15-.22c3.52-.64,8,3.47,10.49-2.23l1-.85,1.93.58c.72,1.9,1.43,3.81,2.15,5.71a.6.6,0,0,1-.6.26l-5.65,1-5.92.24-2,.92-3,1H42l-5,.09-11-.07-1.87-.36L6.93,138.53Z"/><path class="cls-2" d="M69,39.39l3.75,5.06,1,3.16c1,2.32,2,4.63,3,7q.21,2.91.4,5.82c-4.49,3.9-5.39-2.44-8.35-2.92-.34-.67-.69-1.33-1-2,.06-.71.11-1.41.17-2.11l-2.71-4L64,47.91c.44-5.91-3.83-6.68-8.11-7.44L54,39.91c-4.42-2.62-8.41-2-12,1.6l-.72,1.39-2.34.53L37.05,44.6l-1.82,2L32,49.6a.57.57,0,0,1-.53.35L29,49.65l-3.5-2.34L44.1,33.83l3.57-.57,5.26-2.58,1.55.92.17.35L61,35.42l2,1.1Z"/><path class="cls-3" d="M61.13,138c-.72-1.9-1.43-3.81-2.15-5.71l2.84-1.16,2,.83,2.18-.25.95-1.21,6-6.08a1,1,0,0,0,0-1c.37-1.32.75-2.64,1.12-4,2.48-1.73,4.2-3.45-.09-5.07l-.71-2.11.09-4.77.57-1.1,3.14-2.06-2.86-1-.34-2.94v-2l-.12-4,1.26-.06L81,91.46c.31.65.61,1.31.92,2l.09,3,.71,4.12.32-.16c-.2,1.64-.39,3.28-.59,4.91,0,.76,0,1.52.07,2.27l0,4.74c-2.94,2.09-4.74,4.18,0,6.27v3.74L81.7,126l-1.46,3.61-2.16,3-9.15,4.74-1.71.84Z"/><path class="cls-4" d="M44.1,33.83,25.5,47.31C9.62,60.21,7.05,78.94,3.55,97.28q.17,19.62.32,39.25c-10.42-12.43,2-72.22,16.3-87.81,5.72-6.23,16.44-7.9,17.56-18.35l3.83.49Z"/><path class="cls-5" d="M81,91.46,75.05,94.4l-1.83-6-.3-5.93c-.9-2.62,5.93-6.07-.86-8.07l-.44.2q-.28-3.58-.56-7.17c-.15-1.3-.29-2.61-.44-3.91l7.58-.39c.91,2.12,1.81,4.23,2.71,6.35,0,1.66,0,3.32,0,5,.22,1.36.44,2.72.67,4.08l.63,3.87Q81.63,86.91,81,91.46Z"/><path class="cls-6" d="M74.9,147.68c-6.06,1.11-12.11,2.24-18.18,3.29a6.8,6.8,0,0,1-2.29-.43,8.26,8.26,0,0,1,1.48-2c8-6,17.44-1.78,26.05-3.52.35-.07.92,1.05,1.39,1.61l-7.92,3.13C75.25,149.08,75.08,148.38,74.9,147.68Z"/><path class="cls-7" d="M82.43,105.29c.2-1.63.39-3.27.59-4.91,2.73,10.83,3.51,21.8-2.23,31.72-2.05,3.54-6.2,7.41-11.86,5.25l9.15-4.74,2.16-3c.48-1.2,1-2.4,1.46-3.61.27-1.24.54-2.47.82-3.71v-10c0-1.58,0-3.16,0-4.74C82.48,106.81,82.45,106.05,82.43,105.29Z"/><path class="cls-4" d="M38.94,7.39C40,5,36.91.7,42.09,0l.27,3.6L44,.45c7.47.61,4.3,7.47,6.55,11.14l-5.63-.47C45,6.52,41.54,7.65,38.94,7.39Z"/><path class="cls-7" d="M61.13,138l6.09.21C57.32,141,47.6,145,37,142.48c0-.32,0-.64,0-1l5-.09h2l3-1,2-.92,5.92-.24,5.65-1A.6.6,0,0,0,61.13,138Z"/><path class="cls-8" d="M52.93,30.68l-5.26,2.58c.92-3.28.95-5.83-3.71-4.66,0-.67,0-1.33.07-2l2-3.21,4.41,0,3,2-.13,3.23Z"/><path class="cls-7" d="M5.09,138.23l1.84.3,17.14,2.56,1.87.36,9.12,1.21C24.76,143.29,14.06,146.56,5.09,138.23Z"/><path class="cls-9" d="M38.33,18.56c.08-.71.15-1.41.23-2.12l3.24-2,2.34.7L46,16.41c-.26.41-.53.81-.79,1.21l-.46.11.34.64.16,2.08-1.47,3.12-1.32-.07L40,21.55Z"/><path class="cls-9" d="M69,39.39l-6-2.87-2-1.1L54.65,32Z"/><path class="cls-10" d="M80.91,69.45q-1.35-3.18-2.71-6.34l-1-2.73-.41-5.82.49-.41,1.85,3.73,1,3.41.75,3.14c.2.92.39,1.84.59,2.75Z"/><path class="cls-11" d="M46,16.41l-1.86-1.27c.21-1,.43-1.92.64-2.89l.09-1.13,5.63.47c0,1.6,0,3.21.08,4.81Z"/><path class="cls-12" d="M44,26.61l-.07,2-2.4,2.26-3.83-.49c0-2,.09-4,.13-5.95H40l1.91,0Z"/><path class="cls-9" d="M44.87,11.12l-.09,1.14-2.87,0-3.33-.79.36-4C41.54,7.65,45,6.52,44.87,11.12Z"/><path class="cls-13" d="M35.06,142.66l-9.12-1.21,11,.07c0,.32,0,.64,0,1Z"/><path class="cls-10" d="M81,91.46q.64-4.54,1.28-9.08l.62,11h-1Z"/><path class="cls-9" d="M53.46,25.34l-3-2c.12-1.28.25-2.57.37-3.86l.69-1.6Z"/><path class="cls-4" d="M38.58,11.42l3.33.79c0,.74-.07,1.49-.11,2.23l-3.24,2C38.56,14.77,38.57,13.09,38.58,11.42Z"/><path class="cls-14" d="M51.48,17.89c-.23.53-.46,1.07-.68,1.6l-5.55,1c0-.69-.11-1.38-.16-2.08a4.88,4.88,0,0,1,.12-.75c.26-.4.53-.8.79-1.21h4.58Z"/><path class="cls-10" d="M76.8,54.56c-1-2.32-2-4.63-3-7l.49-.45,1.67,1.3a5.35,5.35,0,0,0,.25.84c.37,1.62.75,3.24,1.12,4.85Z"/><path class="cls-7" d="M77.29,54.15c-.37-1.61-.75-3.23-1.12-4.85l3,8.58C78.53,56.64,77.91,55.4,77.29,54.15Z"/><path class="cls-7" d="M80.91,69.45l.62-2.27q.31,3.85.64,7.71L81,74.43C80.94,72.77,80.93,71.11,80.91,69.45Z"/><path class="cls-10" d="M81,74.43l1.21.46-.54,3.62Z"/><path class="cls-4" d="M38.33,18.56l1.66,3a2.17,2.17,0,0,1-.1.88h-2Z"/><path class="cls-9" d="M44,.45,42.36,3.6,42.09,0Z"/><path class="cls-10" d="M73.76,47.61l-1-3.16,1.17,1,.34,1.7Z"/><path class="cls-10" d="M82.7,100.54,82,96.42h.48l.48,0Z"/><path class="cls-7" d="M83,96.43l-.48,0H82l-.09-3h1Z"/><path class="cls-7" d="M80.94,64.43l-.75-3.14Z"/><path class="cls-9" d="M52.93,30.68l.4-2.11,1.15,3Z"/><path class="cls-7" d="M74.25,47.16l-.34-1.7,2,3Z"/><path class="cls-9" d="M37.94,22.43h2l.15,2H37.86C37.89,23.76,37.92,23.09,37.94,22.43Z"/><path class="cls-15" d="M70.62,63.49c.15,1.3.29,2.61.44,3.91q.27,3.59.56,7.17l.44-.2c0,2.68-.07,5.37-.1,8.06q.54,8,1.07,16l0,2,.33,7.13-.09,4.77c0,1.39-.07,2.77-.11,4.16l.91,3c-.37,1.32-.75,2.64-1.12,4l0,1-6,6.08-5.14.63L59,132.27l-1.93-.58-9.2,1.48L46,133.5l-4.14.55-5.73-.18-7.16-.37-3,0-4,0-2.87-.39L13,131.19l-1.41-.4-1.08-2.23c0-.72,0-1.44.05-2.16s-.05-1.3-.08-2c.08-1.7.16-3.41.25-5.11q.34-5.5.71-11l.3-2c0-2,0-3.92,0-5.87,0-1,.1-2,.14-3.07.27-1.61.54-3.22.82-4.83L13,90.43l.09-2q.78-2.7,1.54-5.39l2.28-9.7.34.16,1.62-4.24.34-1.73,1.87-2.12L24,61.37l-.21.12.09-.26.54-1.56c1.23,9.65,6.75,9.09,13.47,5.67l0,0c3.68-1.45,1.83-2.61-.19-3.77l-7.72-5.21-1.79-2,.18-1.58.05-.06L31.52,50A.57.57,0,0,0,32,49.6l3.19-3,1.82-2,1.89-1.17,2.34-.52L44,41.62l8.85-1L57,42.39l1.93,1.09L63,47.4a1.11,1.11,0,0,1,.26.62l1.82,2.32,1.85,3.09.89,2c.34.66.69,1.32,1,2,.05.65.1,1.3.16,2l.81,3.06Zm-26-1.91c3.72.89,7.12,2.12,10.58,2.31,1.42.08,4.42-2.53,4.23-3.16-1.22-4-2-8.77-7.81-8.85S46.63,56.56,44.66,61.58Z"/><path class="cls-16" d="M24.4,59.67l-.54,1.56.05.11c-3.17-2.14-2.66.5-2.86,2.21v1.91l-1.87,2.12-2.11,4,.15,2-.34-.16c-5.36,2.17-4.45,6.66-4,11-.14,2.87-7.32,1.83-3.74,6.76l1,3.38c-.69,1-1.38,2-2.08,3l-4.46-.16c3.5-18.34,6.07-37.07,22-50L29,49.65c-.21,1-.41,2.09-.62,3.14l-.05.06L25.9,56.42Z"/><path class="cls-17" d="M8,97.44c.7-1,1.39-2,2.08-3l-1-3.38c-3.58-4.93,3.6-3.89,3.74-6.76l.69.54-.47,3.59-.09,2-.27,2.16c-.28,1.61-.55,3.22-.82,4.83L10.8,99.5Z"/><path class="cls-13" d="M24.07,141.09,6.93,138.53Z"/><path class="cls-18" d="M36.1,133.87l5.73.18,2.1,1a11.83,11.83,0,0,1-13.1-.38Z"/><path class="cls-18" d="M19.07,133.05l2.87.39a3.58,3.58,0,0,1,0,1c-4.15.77-9,3.51-10.37-3.63l1.41.4Z"/><path class="cls-18" d="M46,133.5l1.88-.33,8.16-.63c-2.45,5.7-7,1.59-10.49,2.23Z"/><path class="cls-19" d="M56,132.54l-8.16.63,9.2-1.48Z"/><path class="cls-19" d="M36.1,133.87l-5.27.83-1.89-.27a3.22,3.22,0,0,0,0-.93Z"/><path class="cls-19" d="M46,133.5l-.45,1.27-.14.22h-.05l-1.4.09-2.1-1Z"/><path class="cls-13" d="M60.53,138.24l-5.65,1Z"/><path class="cls-18" d="M10.72,119.34c-.09,1.7-.17,3.41-.25,5.11C10.55,122.75,10.63,121,10.72,119.34Z"/><path class="cls-19" d="M22,134.42a3.58,3.58,0,0,0,0-1l4,0v1Z"/><path class="cls-19" d="M10.8,99.5l1.08-2.08c0,1-.09,2-.14,3.07Z"/><path class="cls-18" d="M26,134.51v-1l3,0a3.22,3.22,0,0,1,0,.93Z"/><path class="cls-18" d="M10.55,126.4c0,.72,0,1.44-.05,2.16C10.52,127.84,10.53,127.12,10.55,126.4Z"/><path class="cls-13" d="M49,139.53l-2,.92Z"/><path class="cls-19" d="M11.73,106.36l-.3,2-.29.27-.4,0,.27-2.07A.58.58,0,0,1,11.73,106.36Z"/><path class="cls-13" d="M44,141.44h0Z"/><path class="cls-18" d="M11,106.48l-.27,2.07-1.22-1.19Z"/><path class="cls-18" d="M45.33,135h.05l.06.77Z"/><path class="cls-20" d="M41.56,30.86,44,28.6c4.66-1.17,4.63,1.38,3.71,4.66l-3.57.57Z"/><path class="cls-21" d="M69,59.42c-.06-.66-.11-1.31-.16-2,3,.48,3.86,6.82,8.35,2.92.34.91.67,1.82,1,2.73l-7.58.38c-.27-.34-.53-.68-.8-1Z"/><path class="cls-17" d="M52.87,40.66l-8.85,1-2-.11c3.59-3.62,7.58-4.22,12-1.6Z"/><path class="cls-17" d="M63.26,48A1.11,1.11,0,0,0,63,47.4l-4.08-3.92L57,42.39c-.36-.64-.73-1.28-1.1-1.92,4.28.76,8.55,1.53,8.11,7.44A3.67,3.67,0,0,1,63.26,48Z"/><path class="cls-17" d="M35.23,46.63,32,49.6Z"/><path class="cls-19" d="M55.89,40.47c.37.64.74,1.28,1.1,1.92l-4.12-1.73L54,39.91Z"/><path class="cls-17" d="M28.38,52.79c.21-1,.41-2.1.62-3.14l2.51.3Z"/><path class="cls-17" d="M66.93,53.43l-1.85-3.09c.07-.34.13-.68.2-1l2.71,4Z"/><path class="cls-10" d="M61,35.42l2,1.1Z"/><path class="cls-19" d="M42,41.51l2,.11-2.74,1.29Z"/><path class="cls-17" d="M38.94,43.43,37.05,44.6Z"/><path class="cls-19" d="M66.93,53.43,68,53.36c-.06.7-.11,1.4-.17,2.11Z"/><path class="cls-19" d="M65.28,49.32c-.07.34-.13.68-.2,1L63.26,48a3.67,3.67,0,0,0,.74-.11Z"/><path class="cls-19" d="M73,98.45q-.52-8-1.07-16l.48,0,.48,0,.3,5.93.57,6.09.12,4A5.19,5.19,0,0,0,73,98.45Z"/><path class="cls-10" d="M82.52,112.3v6.27C77.78,116.48,79.58,114.39,82.52,112.3Z"/><path class="cls-19" d="M73.39,107.54l-.33-7.13.84,0c.12,1,.23,2,.34,2.94-.09,1-.18,2-.28,3Z"/><path class="cls-21" d="M74.1,119.49c-.3-1-.61-2-.91-3,.28-.68.55-1.37.82-2C78.3,116,76.58,117.76,74.1,119.49Z"/><path class="cls-21" d="M73.79,94.46l-.57-6.09,1.83,6Z"/><path class="cls-19" d="M61.82,131.11l5.14-.63L66,131.69l-2.18.25Z"/><path class="cls-21" d="M74,106.44c.1-1,.19-2,.28-3l2.86,1Z"/><path class="cls-19" d="M74,114.42c-.27.68-.54,1.37-.82,2,0-1.39.08-2.77.11-4.16C73.54,113,73.78,113.72,74,114.42Z"/><path class="cls-10" d="M82.52,122.31c-.28,1.24-.55,2.47-.82,3.71C82,124.79,82.24,123.55,82.52,122.31Z"/><path class="cls-10" d="M80.24,129.63l-2.16,3Z"/><path class="cls-18" d="M63.83,131.94l2.18-.25Z"/><path class="cls-21" d="M73.9,100.46l-.84,0,0-2a5.19,5.19,0,0,1,.88,0C73.91,99.09,73.91,99.77,73.9,100.46Z"/><path class="cls-10" d="M82.43,105.29c0,.76,0,1.52.07,2.27C82.48,106.81,82.45,106.05,82.43,105.29Z"/><path class="cls-19" d="M73,124.4l0-1A1,1,0,0,1,73,124.4Z"/><path class="cls-21" d="M72.92,82.44l-.48,0-.48,0c0-2.69.07-5.38.1-8.06C78.85,76.37,72,79.82,72.92,82.44Z"/><path class="cls-19" d="M71.62,74.57q-.28-3.58-.56-7.17Q71.33,71,71.62,74.57Z"/><path class="cls-22" d="M45.25,20.45l5.55-1c-.13,1.29-.26,2.58-.38,3.86L46,23.4l-2.23.17Z"/><path class="cls-23" d="M43.78,23.57,46,23.4l-2,3.21c-.69-.73-1.39-1.45-2.08-2.17l.51-.94Z"/><path class="cls-24" d="M41.8,14.44c0-.74.07-1.49.11-2.23l2.87,0c-.21,1-.43,1.92-.64,2.88Z"/><path class="cls-22" d="M42.46,23.5l-.51.94-1.91,0-.15-2a2.17,2.17,0,0,0,.1-.88Z"/><path class="cls-25" d="M45.21,17.62a4.88,4.88,0,0,0-.12.75c-.11-.21-.23-.42-.34-.64Z"/><path class="cls-26" d="M44.66,61.58c2-5,1.35-9.79,7-9.7s6.59,4.87,7.81,8.85c.19.63-2.81,3.24-4.23,3.16C51.78,63.7,48.38,62.47,44.66,61.58Z"/><path class="cls-27" d="M29.94,56.38l7.72,5.21c.07,1.25.13,2.51.19,3.77l0,0-10.51-1.8Z"/><path class="cls-19" d="M29.94,56.38l-2.58,7.16,10.51,1.8c-6.72,3.42-12.24,4-13.47-5.67l1.5-3.25,2.25-2Z"/><path class="cls-17" d="M12.84,84.35c-.41-4.3-1.32-8.79,4-11l-2.28,9.7c-.36.6-.72,1.2-1.07,1.8Z"/><path class="cls-19" d="M19.07,133.05,13,131.19Z"/><path class="cls-19" d="M58.92,43.48,63,47.4Z"/><path class="cls-19" d="M13.53,84.89c.35-.6.71-1.2,1.07-1.8q-.76,2.68-1.54,5.39C13.22,87.28,13.37,86.09,13.53,84.89Z"/><path class="cls-17" d="M28.15,54.43l-2.25,2,2.43-3.57Z"/><path class="cls-19" d="M37.85,65.36c-.06-1.26-.12-2.52-.19-3.77C39.68,62.75,41.53,63.91,37.85,65.36Z"/><path class="cls-19" d="M69,59.42l.81,3.06Z"/><path class="cls-17" d="M17.07,71.56l2.11-4c-.11.57-.22,1.15-.34,1.73Z"/><path class="cls-19" d="M17.07,71.56l1.77-2.25-1.62,4.24Z"/><path class="cls-19" d="M21.05,65.46V63.55l2.86-2.11.07-.07Z"/><path class="cls-19" d="M12.7,92.59,13,90.43Z"/><polygon class="cls-16" points="23.86 61.23 23.77 61.49 23.98 61.37 23.91 61.44 23.91 61.34 23.86 61.23"/><path class="cls-1" d="M9.1,91.11l1,3.38Z"/><path class="cls-17" d="M23.91,61.34v.1l-2.86,2.11C21.25,61.84,20.74,59.2,23.91,61.34Z"/></g></g></svg>