<svg xmlns="http://www.w3.org/2000/svg" viewBox="0 0 88.28 138.24"><defs><style>.cls-1{fill:#0a0909;}.cls-2{fill:#0c0809;}.cls-3{fill:#121212;}.cls-4{fill:#151313;}.cls-5{fill:#515151;}.cls-6{fill:#646464;}.cls-7{fill:#49252c;}.cls-8{fill:#4e4e4e;}.cls-9{fill:#8d8d8d;}.cls-10{fill:#494949;}.cls-11{fill:#373737;}.cls-12{fill:#616060;}.cls-13{fill:#ef6e87;}.cls-14{fill:#532831;}.cls-15{fill:#100d0e;}.cls-16{fill:#090707;}.cls-17{fill:#13090b;}.cls-18{fill:#391a20;}</style></defs><title>Asset 12</title><g id="Layer_2" data-name="Layer 2"><g id="Layer_1-2" data-name="Layer 1"><path class="cls-1" d="M.25,124.11a1.1,1.1,0,0,1-.25-.8q.93-2.79,1.84-5.59l8.3,4.44h0c2,4.64,5.6,3.45,9.13,2.36L68.13,123,66.81,127C44.56,127.54,21.92,137,.25,124.11Z"/><path class="cls-2" d="M13.08,78.05l3.07-4.56,1.07-2.28q1.13-2.05,2.26-4.11l6.65-6.72C28,73.17,18.92,82.54,15.74,93.75a.68.68,0,0,1-.27.59c-4.71.45-2.88,10.74-10.43,6.93l.07-3.18,2.41-4.76,1.82-2.22c.31-2.16.63-4.33.94-6.49l1.93-4.19Z"/><path class="cls-3" d="M53.08,21.75l-3,2.41c-8-2.38-5.51,9.23-11.93,9q-3.21-8.94-6.44-17.88l1.56-2,3-5.06h0l1.9-.11,2.46,0q-.69,5-1.39,10.07l1,2c3.51,2.06,5.36.76,6-3L50,12.74Q51.56,17.24,53.08,21.75Z"/><path class="cls-4" d="M54.81,56.2q2.2,5.43,4.4,10.88c.42,2.66.83,5.33,1.25,8l-5.54,1.17-1.72-.11-.58-1.44C52.52,71,55.49,66,48.67,65l-1-2.23c.31-2.43,1.91-5.49-2.7-5.51l-1.32-2.47q-.75-3.81-1.49-7.62l5.9-.93,0,0Z"/><path class="cls-5" d="M.25,124.11C21.92,137,44.56,127.54,66.82,127l5,.43c-21,6.22-42.6,4.43-64,3.88C5.21,131.26,2.76,126.62.25,124.11Z"/><path class="cls-6" d="M38.08,8.05l-1.9.11c2.12-13,15.44.59,19.35-8.16,3.29,3.41-9.7,7.92.73,10.85-8,4.12-2.26-6-6.09-5.94-12.56.35-5.66,7.18-4,12.25-.65,3.74-2.5,5-6,3l-1-2q.7-5,1.38-10.07c0-.51,0-1,0-1.54Z"/><path class="cls-7" d="M5,101.27c7.55,3.81,5.72-6.48,10.43-6.94-2.73,9.1-8.21,17.67-5.33,27.83l-8.29-4.43c-.24-1.89-.47-3.79-.7-5.68l2.34-1.89-2.44-1,.84-3.78,1.28-.28,1.44.1-.77-.93Z"/><path class="cls-8" d="M71.79,127.44l-5-.43c.43-1.36.87-2.71,1.31-4.06l0,.13c4.88,2.76,8.59-.09,7.77-4.18-1.85-9.19-5.43-18-8.31-27l-1.27-3.72c-.18-1-.36-2-.53-3-.2-1.33-.4-2.67-.59-4,4.33,14.26,19.28,26,10.38,43.34C74.88,125.78,73.07,126.47,71.79,127.44Z"/><path class="cls-9" d="M56.25,134.53c10.57,2.19,19.5,0,28.37-2.89,1-.35,2.43.26,3.66.43a13.53,13.53,0,0,1-2.72,2.39c-11,5.29-22.79,3.36-34.34,3.74-.6,0-1.22-.72-1.84-1.11Z"/><path class="cls-10" d="M48.05,46.22l-5.9.93L38,45.92q-.68-5.41-1.34-10.84l.18-1.82,1.26-.11c6.42.24,3.89-11.37,11.93-9C43.32,31,38.9,38,48.05,46.22Z"/><path class="cls-11" d="M46.18,17.16c-1.67-5.07-8.57-11.9,4-12.25C54,4.8,48.23,15,56.26,10.85L59,10.68l1.1,3.39C56,15,52.7,16.69,53.08,21.75q-1.53-4.5-3-9Z"/><path class="cls-6" d="M36.66,35.08q.68,5.41,1.34,10.84-2.88,2.14-5.78,4.27l-2.85,5-3.24,5.24L19.48,67.1Q28.06,51.08,36.66,35.08Z"/><path class="cls-6" d="M38.1,33.15l-1.26.11-8-17.9,2.8-.09Q34.89,24.21,38.1,33.15Z"/><path class="cls-8" d="M60.46,75.07c-.42-2.66-.83-5.33-1.25-8Q62,73.65,64.89,80.24L61.6,76.93Z"/><path class="cls-6" d="M1.15,112.05c.23,1.89.46,3.79.7,5.68-.62,1.86-1.23,3.72-1.85,5.58l.87-13.73C1,110.4,1.05,111.23,1.15,112.05Z"/><path class="cls-4" d="M61.6,76.93l3.29,3.31.27.91c.19,1.34.39,2.68.59,4l-6.81-3-1.8-.91Z"/><path class="cls-10" d="M54.81,56.2l-6.72-9.94Z"/><path class="cls-6" d="M36.17,8.17l-3,5.06L26.87,10.8Z"/><path class="cls-11" d="M26.87,10.8l6.35,2.43-1.56,2-2.8.09L27,13.44c0-.86-.1-1.72-.14-2.59Z"/><path class="cls-6" d="M5,101.27l-1.2,3-.67.83-1.28.28C3,102.94,4,100.51,5.11,98.09Z"/><path class="cls-6" d="M10.28,84.62C10,86.78,9.65,89,9.34,91.11l-1.28,0Z"/><path class="cls-6" d="M60.13,14.07,59,10.68l3.25,1Z"/><path class="cls-12" d="M1.15,112.05c-.1-.82-.19-1.65-.28-2.47L.8,109.3l.25-.15,2.44,1Z"/><path class="cls-12" d="M8.06,91.14l1.28,0L7.52,93.33Z"/><path class="cls-6" d="M17.22,71.21l-1.07,2.28Z"/><path class="cls-6" d="M26.83,10.85c0,.87.09,1.73.14,2.59C26.92,12.58,26.87,11.72,26.83,10.85Z"/><path class="cls-6" d="M13.08,78.05l-.87,2.38Z"/><path class="cls-13" d="M10.14,122.16c-2.88-10.16,2.6-18.73,5.33-27.83a.65.65,0,0,0,.27-.58c3.61-7.06,6.22-14.92,11.1-21,5.1-6.31,1.2-21.59,16.8-18L45,57.24l2.7,5.51c.33.75.67,1.49,1,2.23q2,4.86,3.95,9.71l.58,1.44q2.19,5.27,4.39,10.53l1,2.36q2.48,6.35,5,12.69l1,2.31,2.31,4.53q.63,7.26,1.27,14.53l0-.13-48.86,1.58-9.13-2.36ZM41,73.14c-.62-.47-2.25-2.78-3.93-2.82-4.52-.1-6.59,3.47-6.66,7.37,0,1.37,3.1,4.13,4.48,4C38.2,81.19,41.64,79.67,41,73.14Zm4.32,7c-3.06,3.64-5.4,5.79-6.78,8.45-.4.78,1.94,3,3,4.54C44,91,46.76,89.15,48.74,86.68,49.21,86.09,47.13,83.47,45.32,80.1Z"/><path class="cls-7" d="M10.14,122.17l9.13,2.36C15.74,125.62,12.19,126.81,10.14,122.17Z"/><path class="cls-7" d="M43.64,54.77c-15.6-3.57-11.7,11.71-16.8,18-4.88,6-7.49,13.9-11.1,21C18.92,82.54,28,73.17,26.13,60.38l3.24-5.24c3.43-.22,5.07-1.47,2.85-5q2.89-2.13,5.78-4.27l4.15,1.23Q42.89,51,43.64,54.77Z"/><path class="cls-11" d="M38.08,8.05l2.41-1.51c0,.51,0,1,0,1.54Z"/><path class="cls-11" d="M39.15,18.15l1,2Z"/><path class="cls-14" d="M52.62,74.69q-2-4.84-3.95-9.71C55.49,66,52.52,71,52.62,74.69Z"/><path class="cls-15" d="M61.6,76.93l-4.46,4.36-2.22-5.05,5.54-1.17Z"/><path class="cls-14" d="M54.92,76.24l2.22,5.05,1.8.91-1.35,4.46Q55.38,81.4,53.2,76.13Z"/><path class="cls-7" d="M47.66,62.75,45,57.24C49.57,57.26,48,60.32,47.66,62.75Z"/><path class="cls-12" d="M3.17,105.09l.67-.83.77.93Z"/><path class="cls-15" d="M57.59,86.66l1.35-4.46,6.81,3c.17,1,.35,2,.53,3-1,.58-2.65,1.07-2.74,1.76-.15,1.12.76,2.37,1.22,3.56l2.79-1.6c2.88,9,6.46,17.83,8.31,27,.82,4.09-2.89,6.94-7.77,4.18q-.65-7.26-1.27-14.53L64.51,104l-1-2.31Q61,95.37,58.55,89Z"/><path class="cls-4" d="M67.55,91.88l-2.79,1.6c-.46-1.19-1.37-2.44-1.22-3.56.09-.69,1.77-1.18,2.74-1.76C66.7,89.4,67.12,90.64,67.55,91.88Z"/><path class="cls-16" d="M32.22,50.19c2.22,3.48.58,4.73-2.85,5Z"/><path class="cls-17" d="M41,73.14c.64,6.53-2.8,8-6.11,8.5-1.38.18-4.51-2.58-4.48-4,.07-3.9,2.14-7.47,6.66-7.37C38.75,70.36,40.38,72.67,41,73.14Z"/><path class="cls-18" d="M45.32,80.1c1.81,3.37,3.89,6,3.42,6.58-2,2.47-4.72,4.33-7.17,6.41-1.09-1.56-3.43-3.76-3-4.54C39.92,85.89,42.26,83.74,45.32,80.1Z"/><path class="cls-14" d="M58.55,89q2.48,6.35,5,12.69Q61,95.37,58.55,89Z"/><path class="cls-14" d="M64.51,104l2.31,4.53Z"/></g></g></svg>