<svg xmlns="http://www.w3.org/2000/svg" viewBox="0 0 67.18 119.12"><defs><style>.cls-1{fill:#050505;}.cls-2{fill:#3f403f;}.cls-3{fill:#090b08;}.cls-4{fill:#121411;}.cls-5{fill:#121710;}.cls-6{fill:#0d0e0d;}.cls-7{fill:#273423;}.cls-8{fill:#1d211b;}.cls-9{fill:#4a5247;}.cls-10{fill:#545454;}.cls-11{fill:#44523f;}.cls-12{fill:#475940;}.cls-13{fill:#141912;}.cls-14{fill:#3a3a3a;}.cls-15{fill:#101010;}.cls-16{fill:#838383;}.cls-17{fill:#161815;}.cls-18{fill:#84bf70;}.cls-19{fill:#2b3d25;}.cls-20{fill:#10170d;}.cls-21{fill:#212320;}.cls-22{fill:#212221;}.cls-23{fill:#171816;}.cls-24{fill:#282828;}.cls-25{fill:#84bd70;}</style></defs><title>Asset 4</title><g id="Layer_2" data-name="Layer 2"><g id="Layer_1-2" data-name="Layer 1"><path class="cls-1" d="M19.61,18.36,21.19,18l3.36-.14,2.05-2.57a2,2,0,0,0,.12-1Q24.8,10.07,22.89,5.8l2.7-3.48,3.05.1,2.85,1.92c.84,2.41-1.09,6.7,4.15,6.12l4-1.15,11.92.15.05,2.8h0l-4.17,5.09L45.6,20.77l-6.36.48-2.61,5.22C29.68,31,23.52,25.29,16.94,25Z"/><path class="cls-2" d="M47.36,17.36l4.17-5.09c-5.05,5.44,14.57,12.08-.8,16.92a43.84,43.84,0,0,1-9,1.51c-2.23.21-5.12-1.62-5.35,2.76-.18,3.47.34,5,4.54,5.68,13.37,2.15,26,5.86,26.27,23.13l-1.64-1.22.42-.17-.4-.16-2.37-2.46c-1-3-1-7.19-3.06-8.74-10.8-8.16-23-11.42-36.54-8.21,2.67-1.3,6-1.55,5.48-6.21-.56-5-3.71-4.79-7.34-5.73-3-.78-5.47-3.81-8.17-5.84l6-5.17L16.94,25c6.58.34,12.74,6.06,19.69,1.52,5.09,2.87,10.92,4.87,15.21.08S48.58,20.65,47.36,17.36Z"/><path class="cls-3" d="M23.59,41.31c13.51-3.21,25.74,0,36.54,8.21,2,1.55,2.09,5.76,3.06,8.74l-3,3-.69-.78-1.79-2.23a.82.82,0,0,1-.33-.62c-7.83-19.54-24.05-11-37.65-11.28-3.2-.48-4.49.94-4,4.08L9.51,60.3l-5.65-1,8.82-13.85Z"/><path class="cls-4" d="M60.15,61.28l3-3,2.37,2.46,0,.33,1.64,1.22c-.22,3.43-.45,6.86-.67,10.29l-9,17.64C55,91.6,52.15,94.61,51,88.93,60.83,82,61.86,72.08,60.15,61.28Z"/><path class="cls-5" d="M61.65,111.4l-1.2,1.85c-8.67-.45-19.53,3.34-21.11-10.88,1.07-1.71,2.14-3.43,3.22-5.14a40.37,40.37,0,0,1,3.56,4.43c2.69,4.45,3.77,11.49,11.7,6.66l.89-1.71C63.39,105.93,60.64,109.82,61.65,111.4Z"/><path class="cls-6" d="M3.86,59.34l5.65,1q-.55,7.49-1.1,15L4.57,77.48.09,75.28,0,71.85c0-1.68.07-3.35.1-5,.23-1.18.45-2.36.67-3.54Z"/><path class="cls-7" d="M35.58,118.24c-7.55,3.8-8.53-5.94-13.86-6.72l-2.83-2.82,1.58-2.35c3.23,1.4,6.47,3.67,9.64-.12l5.32,7Z"/><path class="cls-8" d="M6.94,101.68l1-1.25c6.33,0,5.39-5.4,6.7-9.12l1.17-.1,2.81-1,1.19,2.88-.1,3.29-1.83,2.17-2,2a1.61,1.61,0,0,1-.33.7c-7.67-1-.58,12.68-9.94,10.06Q6.23,106.49,6.94,101.68Z"/><path class="cls-9" d="M35.58,118.24l-.15-5q1.95-5.42,3.91-10.83c1.58,14.22,12.44,10.43,21.11,10.88C53.19,120,42.11,107.78,35.58,118.24Z"/><path class="cls-10" d="M18.6,90.24l-2.81,1-1.17.1c-1.31,3.72-.37,9.09-6.7,9.12C16.13,93.15,7.69,90,4.24,85.68l.61-.63,3.4.42c3.74,8.46,3.6-2.47,5.91-1.18Z"/><path class="cls-11" d="M58.71,106.61c-.3.57-.6,1.14-.89,1.71Q54.39,98.62,51,88.93c1.18,5.68,4,2.67,6.59,1.27.39,1,.77,2.07,1.16,3.1s.81,2.15,1.22,3.22Z"/><path class="cls-12" d="M5.54,111.31c9.36,2.62,2.27-11,9.94-10.06q-1.32,5.86-2.63,11.75l-6.42,2.38,9.6,2.28c-5.89,1.59-12,3.69-11.61-6.33Z"/><path class="cls-2" d="M24.55,17.88,21.19,18c0-3.79-.39-7.67.29-11.34.42-2.27,2.06-5.28,4-6.11,3.94-1.74,6.79.72,8.4,4.48l-.36.33-2-1L28.64,2.42l-3.05-.1L22.89,5.8q1.91,4.27,3.83,8.53a2,2,0,0,1-.12,1Z"/><path class="cls-13" d="M16,117.66l-9.6-2.28L12.85,113l2.56-.89,2.8-3.1a1.46,1.46,0,0,1,.68-.31l2.83,2.82Z"/><path class="cls-9" d="M58.72,93.3c-.39-1-.77-2.07-1.16-3.1l9-17.64C68.46,81.18,61.09,86.3,58.72,93.3Z"/><path class="cls-10" d="M3.86,59.34.77,63.28A22.85,22.85,0,0,1,12.68,45.49Z"/><path class="cls-9" d="M58.71,106.61l1.23-10.09c2.51,4.74,5.34,9.44,1.71,14.88C60.64,109.82,63.39,105.93,58.71,106.61Z"/><path class="cls-14" d="M51.51,9.46,39.59,9.31l6-4.76L47,4.12C50.88,3.85,52.22,5.79,51.51,9.46Z"/><path class="cls-10" d="M.09,75.28l4.48,2.2c0,1.64-.09,3.27-.14,4.91l.42,2.66-.61.63Q2.16,80.49.09,75.28Z"/><path class="cls-2" d="M51.51,9.46c.71-3.67-.63-5.61-4.55-5.34L53,4.63l-1.47,7.63Z"/><path class="cls-2" d="M45.6,4.55l-6,4.76-4,1.15q-1.06-2.54-2.15-5.08l.36-.33C38.1,12.66,41.64,3.8,45.6,4.55Z"/><path class="cls-10" d="M5.54,111.31l-1.12,0,2.52-9.65Q6.24,106.5,5.54,111.31Z"/><path class="cls-10" d="M.1,66.82c0,1.68-.07,3.35-.1,5C0,70.17.07,68.5.1,66.82Z"/><path class="cls-15" d="M47.36,17.36c1.22,3.29,8.73,4.45,4.48,9.19s-10.12,2.79-15.21-.08l2.61-5.22L47,24.41,45.6,20.77Z"/><path class="cls-14" d="M26.72,14.33Q24.8,10.07,22.89,5.8,24.8,10.07,26.72,14.33Z"/><path class="cls-16" d="M45.6,20.77,47,24.41l-7.77-3.16Z"/><path class="cls-14" d="M33.49,5.38q1.08,2.55,2.15,5.08c-5.24.58-3.31-3.71-4.15-6.12Z"/><path class="cls-14" d="M25.59,2.32l3.05.1Z"/><path class="cls-14" d="M24.55,17.88l2.05-2.57Z"/><polygon class="cls-17" points="65.54 61.05 65.56 60.73 65.96 60.88 65.54 61.05"/><path class="cls-18" d="M18.89,108.7a1.46,1.46,0,0,0-.68.31c-.93,1-1.86,2.07-2.8,3.1l-2.56.89q1.32-5.88,2.63-11.75a1.61,1.61,0,0,0,.33-.7l2-2,1.83-2.17c0-1.1.07-2.19.1-3.29L18.6,90.24l-4.44-5.95-5.57-7-.18-2q.54-7.48,1.1-15l6.14-9.85,1.8.94.08,2.89-.83,2.06c0,1.31,0,2.62,0,3.92l1.9,1.85,2.07.64c5.27-.22,10.53-.46,15.8-.63,2.84-.09,6.31.88,8.3-.43,1.35-.9,1.32-5.18.54-7.47C44.92,53,41.61,52.73,39.6,52l3.12-3,1.87.46,2.11.59,10.64,7.58a.82.82,0,0,0,.33.62l1.79,2.23.69.78C61.86,72.08,60.83,82,51,88.93q3.42,9.69,6.85,19.39c-7.93,4.83-9-2.21-11.7-6.66a40.37,40.37,0,0,0-3.56-4.43c-1.08,1.71-2.15,3.43-3.22,5.14q-2,5.41-3.91,10.83l-5.33-7c-.28-1.25-.57-2.49-.85-3.74l-1.63-1.56-2,.25-2.15,1-3,4.21Z"/><path class="cls-19" d="M44.59,49.48,42.72,49C35.9,47.63,29,44.69,22.6,50.27l-5.07,4c0-1-.05-1.92-.08-2.89.75-1.67,1.49-3.34,2.24-5,13.6.27,29.82-8.26,37.65,11.28L46.7,50.07Z"/><path class="cls-20" d="M19.69,46.37c-.75,1.68-1.49,3.35-2.24,5l-1.8-.94C15.2,47.31,16.49,45.89,19.69,46.37Z"/><path class="cls-19" d="M59.46,60.5l-1.79-2.23Z"/><path class="cls-21" d="M8.41,75.27l.18,2-2,5-2.16.08c.05-1.64.1-3.27.14-4.91Z"/><path class="cls-13" d="M29.25,102.49c.28,1.25.57,2.49.85,3.74-3.16,3.79-6.4,1.52-9.63.12l3-4.21,2.15-1,2-.24Z"/><path class="cls-12" d="M19.79,93.12c0,1.1-.07,2.19-.1,3.29C19.73,95.31,19.76,94.22,19.79,93.12Z"/><path class="cls-12" d="M17.86,98.58l-2,2Z"/><path class="cls-22" d="M14.62,91.31l1.17-.1Z"/><path class="cls-23" d="M6.59,82.31l2-5,5.57,7C11.85,83,12,93.93,8.25,85.47,7.7,84.41,7.14,83.36,6.59,82.31Z"/><path class="cls-24" d="M6.59,82.31c.55,1,1.11,2.1,1.66,3.16l-3.4-.42-.42-2.66Z"/><path class="cls-12" d="M15.41,112.11c.94-1,1.87-2.07,2.8-3.1C17.28,110,16.35,111.08,15.41,112.11Z"/><path class="cls-20" d="M17.53,54.28l5.07-4L39.6,52c2,.7,5.32.95,5.75,2.19.78,2.29.81,6.57-.54,7.47-2,1.31-5.46.34-8.3.43-5.27.17-10.53.41-15.8.63l-2.07-.64-1.9-1.85c0-1.3,0-2.61,0-3.92Z"/><path class="cls-25" d="M39.6,52l-17-1.76C29,44.69,35.9,47.63,42.72,49Z"/><path class="cls-19" d="M16.7,56.34c0,1.31,0,2.62,0,3.92C16.73,59,16.71,57.65,16.7,56.34Z"/><path class="cls-19" d="M18.64,62.11l2.07.64Z"/><path class="cls-25" d="M44.59,49.48l2.11.59Z"/><path class="cls-12" d="M25.59,101.18l-2.15,1Z"/><path class="cls-12" d="M29.25,102.49l-1.63-1.55Z"/></g></g></svg>