<svg xmlns="http://www.w3.org/2000/svg" viewBox="0 0 66.24 147.73"><defs><style>.cls-1{fill:#0d0b0c;}.cls-2{fill:#2e1d2a;}.cls-3{fill:#595659;}.cls-4{fill:#131013;}.cls-5{fill:#141113;}.cls-6{fill:#989898;}.cls-7{fill:#0b060a;}.cls-8{fill:#0f0a0e;}.cls-9{fill:#424042;}.cls-10{fill:#0b080b;}.cls-11{fill:#535353;}.cls-12{fill:#363636;}.cls-13{fill:#353535;}.cls-14{fill:#f06bd2;}.cls-15{fill:#121212;}.cls-16{fill:#e7e7e7;}.cls-17{fill:#747474;}.cls-18{fill:#0b0b0b;}.cls-19{fill:#2e2e2e;}.cls-20{fill:#090909;}.cls-21{fill:#592b4f;}.cls-22{fill:#232323;}.cls-23{fill:#442c3f;}.cls-24{fill:#120b11;}.cls-25{fill:#b652a0;}.cls-26{fill:#1e1e1e;}.cls-27{fill:#787878;}</style></defs><title>Asset 16</title><g id="Layer_2" data-name="Layer 2"><g id="Layer_1-2" data-name="Layer 1"><path class="cls-1" d="M66.1,84.12c-.08,1.55-.17,3.09-.25,4.64L64.62,91l1.52,3q.06,3,.1,6l-1.41,0-3.78,1c-3.8-1.75-2.68-4.48-2.46-7.87A67.94,67.94,0,0,0,50.83,56c-7.9-16.14-17.33-11.55-27.11-2L19,55.1c0-1.94-.82-4.55.13-5.69C22,46,25.54,43.07,28.82,40l3.39-1.21,2.62.34,3.32-.37,3.56.1h4.08l2.29,1,7.56,5.2.07.09,2.68,3c.23.52.45,1,.67,1.55,0,.77-.07,1.53-.11,2.3l-2.22,2.22,3.26.31L61.78,62c-3.11,3.36-.84,5.26,1.92,7a1.58,1.58,0,0,1,.19.88c0,1-.09,2-.13,3L60.11,75l3.72.89,1.25.28c.08.91.16,1.82.25,2.72L65,78.57l-.42.16-2.86,4.12Z"/><path class="cls-2" d="M50.83,56a67.94,67.94,0,0,1,7.76,37.12c-.22,3.39-1.34,6.12,2.46,7.87l3.82,0,1.2,1.09c0,1,0,2,0,3L64,107c-.13,2.28-.25,4.55-.38,6.83L62,118l-4.25,9-3.84-1.81-.27-.26c2.37-2.32,5.88-4.46,1.27-7.9A137.16,137.16,0,0,0,50.83,56Z"/><path class="cls-3" d="M55.64,45.05l-7.56-5.2Q49,34,50,28.07l-1.15-3-2-8.07c-1.55-4.42-2.76-9-4.92-13.12-.49-1-5.09-1.12-6.25,0-1.7,1.62-2,4.7-2.91,7.17v1.85L31.36,14l1.46,1c0,.28-.06.56-.08.84l-2.24.72c-1.57-6.13-.31-12,4.93-15.22C39.86-1.42,44.82.1,46.3,5.93,49.62,18.92,52.55,32,55.64,45.05Z"/><path class="cls-4" d="M0,122.9c0-2.31,0-4.62,0-6.93l.39.27.47-.07c0-1.54.09-3.08.14-4.63-.09-2.23-.19-4.47-.28-6.71L1.08,102l7.7-5,1,1-.31,1.86C5.64,108,6.21,116.5,7.91,125.05l.92,1,2.06,5.09c-4.86,1.53-9.1,2-9.09-5.14Z"/><path class="cls-5" d="M8.78,97l-7.7,5L1.6,95.2l1.27-1.11c5.1-1.76.68-5.55,1.75-8.17,0-1.66,0-3.32,0-5l.25-2,.57-3.33L6,73.93l.65-2.18c.18-.88.37-1.77.55-2.65L12.79,62l1.26-.13,1-.41Q11.9,79.2,8.78,97Z"/><path class="cls-3" d="M15,61.41l-1,.41c-.25-1-.49-2-.74-3L12.79,62,7.21,69.1c4.42-18.95,24.57-30.94,23.21-52.45.2.78.4,1.56.61,2.33q-.68,6-1.33,12-.45,4.52-.88,9c-3.28,3.11-6.83,6-9.69,9.45-.95,1.14-.14,3.75-.13,5.69L23.72,54,20.84,58Z"/><path class="cls-6" d="M48.06,145.3l-15.9-2.6c5.27-.92,10.51-2.26,15.81-2.58,3.25-.19,6.61,1.2,9.91,1.88Z"/><path class="cls-7" d="M27.58,127.93l-1.85,1-3.56-.21c-.15-.56-.3-1.12-.46-1.69l1.21-7.28c7.2-5.72,11.79-5.71,11.38,5.21l-3.5,1.91Z"/><path class="cls-8" d="M49.86,128.9l-4.44-.42-6.07-1.64,7.28-11.13C57.33,117.75,47,124.94,49.86,128.9Z"/><path class="cls-9" d="M49.86,128.9c-2.89-4,7.47-11.15-3.23-13.19,1.34-.45,2.79-1.45,4-1.22,1.53.29,2.88,1.58,4.3,2.44,4.61,3.44,1.1,5.58-1.26,7.9l-.29.56.55-.3,3.84,1.81c0,.56,0,1.11,0,1.67A.69.69,0,0,1,57,129l-7.37.09Z"/><path class="cls-3" d="M57.76,128.57c0-.56,0-1.11,0-1.67q2.13-4.47,4.25-9l1.59-4.15c.13-2.28.25-4.55.38-6.83l1.93-1C64.47,113.93,66.06,123,57.76,128.57Z"/><path class="cls-10" d="M10.89,131.13,8.83,126c6.32-.07,4.39-7,7.87-9.45L15.86,128l-1.06,2.09Z"/><path class="cls-9" d="M39.35,126.84l6.07,1.64-4,1.8L32.67,130l-1.75-1.63-.12-1.57,3.5-1.91Z"/><path class="cls-3" d="M59,52c0-.77.07-1.53.11-2.3L62.93,62H61.78L60,54.52C59.64,53.68,59.29,52.84,59,52Z"/><path class="cls-3" d="M.73,104.83c.09,2.24.19,4.48.28,6.72-.05,1.54-.1,3.08-.14,4.62l-.47.07L0,116Z"/><path class="cls-9" d="M61.78,62h1.15q.39,3.49.77,7C60.94,67.24,58.67,65.34,61.78,62Z"/><path class="cls-9" d="M66.1,84.12l-4.34-1.27,2.86-4.12c.54,1.1,1.07,2.2,1.61,3.29C66.19,82.72,66.14,83.42,66.1,84.12Z"/><path class="cls-3" d="M49.63,129.13,57,129C54.59,132.66,52.11,131.19,49.63,129.13Z"/><path class="cls-11" d="M4.62,85.92C3.55,88.54,8,92.33,2.87,94.08l-.3-3.82L2.79,86Z"/><path class="cls-3" d="M4.62,85.92,2.79,86l1.87-5Z"/><path class="cls-3" d="M22.17,128.68l3.56.21-7.95.75c0-.59,0-1.18,0-1.77l2-.14Z"/><path class="cls-3" d="M32.67,130l8.78.25C38.47,132.25,35.5,133.56,32.67,130Z"/><path class="cls-3" d="M63.76,72.86c0-1,.08-2,.13-3l1.19,6.32-1.25-.28C63.8,74.9,63.78,73.88,63.76,72.86Z"/><path class="cls-3" d="M2.57,90.26l.3,3.82L1.6,95.2C1.93,93.55,2.25,91.9,2.57,90.26Z"/><path class="cls-3" d="M5.48,75.62,4.91,79Z"/><path class="cls-3" d="M58.39,48.14l-2.68-3Z"/><path class="cls-9" d="M17.77,127.87v1.77l-3,.49L15.86,128Z"/><path class="cls-12" d="M12.39,145.61l2.28.72a21.29,21.29,0,0,1-2.91,1.35c-.5.16-1.14-.14-1.72-.23Z"/><path class="cls-3" d="M66.23,82c-.54-1.09-1.07-2.19-1.61-3.29l.42-.16.29.35Z"/><path class="cls-9" d="M64.62,91l1.23-2.24c.08.7.15,1.4.23,2.1Z"/><path class="cls-3" d="M64.62,91l1.46-.14L66.14,94Z"/><path class="cls-3" d="M30.8,126.83l.12,1.57-3.34-.47Z"/><path class="cls-9" d="M65.93,105.93,64,107,66.11,105Z"/><path class="cls-3" d="M0,122.9,1.8,126Z"/><path class="cls-13" d="M31,19c-.21-.77-.41-1.55-.61-2.33l.09-.11,2.23-.72Z"/><path class="cls-3" d="M6.66,71.75,6,73.93Z"/><path class="cls-3" d="M66.07,102l-1.2-1.09a6.85,6.85,0,0,0,0-.91l1.41,0C66.19,100.64,66.13,101.32,66.07,102Z"/><path class="cls-14" d="M39.35,126.84l-5.05-1.92c.41-10.92-4.18-10.93-11.38-5.21l-.84-.84c-.14-1.25-.28-2.49-.43-3.74l-4.95,1.46C13.22,119,15.15,126,8.83,126l-.92-1q.78-12.61,1.55-25.23L9.77,98,20.84,58,23.72,54c9.78-9.57,19.21-14.16,27.11,2a137.16,137.16,0,0,1,4.11,61c-1.42-.86-2.77-2.15-4.3-2.44-1.22-.23-2.67.77-4,1.22ZM32.68,70.36l2.26.08,1.85-.5C39.25,68.67,42.85,68,43.92,66c2-3.77,3.13-8.37-.75-12.19l-2.25-2-3.07-1c-5.69-.93-7.52,3.61-10.08,7.11l-1.52,1.9-.17,3.3.59.92.84,2,1.33,2.91,1.95,1.17Z"/><path class="cls-15" d="M46.86,17l2,8.07,1.15,3Q49,34,48.08,39.85l-2.29-1-1.74-4c-.22-1.18-.45-2.35-.67-3.52L44,29l2.93-1-2-1.05-4-6,1.84-.65L40.92,20l-.33-2.91Z"/><path class="cls-16" d="M43.38,31.29l.67,3.52-2.34,4-3.56-.1-3.32.37-2.62-.34q.33-2.86.67-5.72Z"/><path class="cls-13" d="M32.88,33q-.35,2.85-.67,5.72L28.82,40q.43-4.5.88-9l4-7Z"/><path class="cls-9" d="M63.76,72.86c0,1,0,2,.07,3.06L60.11,75Z"/><path class="cls-17" d="M41.71,38.82l2.34-4,1.74,4Z"/><path class="cls-9" d="M59,52c.34.85.69,1.69,1,2.53l-3.25-.31Z"/><path class="cls-9" d="M64.83,100a6.85,6.85,0,0,1,0,.91l-3.82,0Z"/><path class="cls-17" d="M34.83,39.09l3.32-.37Z"/><path class="cls-9" d="M63.62,113.8,62,118Z"/><path class="cls-18" d="M46.86,17l-6.27.09c-.34-.27-.69-.53-1-.79l-.27-4.4-2.47-.08-4-.78c.9-2.47,1.21-5.55,2.91-7.17,1.16-1.11,5.76-.94,6.25,0C44.1,8,45.31,12.55,46.86,17Z"/><path class="cls-19" d="M32.78,11l4,.78c.39.61.78,1.22,1.18,1.83l1.29-1.75.27,4.4-5.86,7.67-4,7q.66-6,1.33-12l1.71-3.16c0-.28,0-.56.08-.84,0-.71,0-1.41,0-2.12Z"/><path class="cls-20" d="M50,28.07l-1.15-3Z"/><path class="cls-13" d="M32.77,12.86c0,.71,0,1.41,0,2.12l-1.46-1Z"/><path class="cls-21" d="M20.84,58,9.77,98l-1-1Q11.9,79.19,15,61.41Z"/><path class="cls-21" d="M9.46,99.82q-.77,12.62-1.55,25.23C6.21,116.5,5.64,108,9.46,99.82Z"/><path class="cls-11" d="M.87,116.17c0-1.54.09-3.08.14-4.62C1,113.09.91,114.63.87,116.17Z"/><path class="cls-22" d="M12.79,62l.51-3.15c.25,1,.49,2,.74,3Z"/><path class="cls-10" d="M22.08,118.87l.84.84q-.6,3.65-1.21,7.28l-.95-.8Z"/><path class="cls-9" d="M20.76,126.19l.95.8c.16.57.31,1.13.46,1.69l-2.39-.94C20.11,127.22,20.43,126.7,20.76,126.19Z"/><path class="cls-2" d="M53.94,125.09l-.55.3.29-.56Z"/><path class="cls-7" d="M20.76,126.19c-.33.51-.65,1-1,1.55l-2,.13-1.91.17.84-11.45,4.95-1.46c.15,1.25.29,2.49.43,3.74Z"/><path class="cls-23" d="M40.92,51.78l2.25,2Q42,57.39,40.84,61c-1.44,1.38-2.7,3.15-4.42,4-.87.41-2.56-.93-3.87-1.48,4.54-7.15.2-6.61-4.78-5.52,2.56-3.5,4.39-8,10.08-7.11Z"/><path class="cls-24" d="M27.77,57.92c5-1.09,9.32-1.63,4.78,5.52,1.31.55,3,1.89,3.87,1.48,1.72-.81,3-2.58,4.42-4,3.09,5-2,6.32-4.05,9l-1.85.5-1-.77L30.83,69l-2,0L27.51,66l-.84-2c-.2-.31-.4-.61-.59-.92.05-1.1.11-2.2.17-3.3Z"/><path class="cls-25" d="M36.79,69.94c2.08-2.66,7.14-4,4.05-9q1.17-3.57,2.33-7.14c3.88,3.82,2.77,8.42.75,12.19C42.85,68,39.25,68.67,36.79,69.94Z"/><path class="cls-25" d="M26.25,59.82c-.06,1.1-.12,2.2-.17,3.3C26.13,62,26.19,60.92,26.25,59.82Z"/><path class="cls-23" d="M30.83,69l3.09.72-1.24.69-1.89-.26C30.8,69.72,30.82,69.33,30.83,69Z"/><path class="cls-25" d="M40.92,51.78l-3.07-1Z"/><path class="cls-25" d="M32.68,70.36l1.24-.69,1,.77Z"/><path class="cls-25" d="M30.83,69c0,.38,0,.77,0,1.15l-1.95-1.17Z"/><path class="cls-23" d="M26.67,64l.84,2Z"/><path class="cls-17" d="M33.69,23.94l5.86-7.67c.35.26.7.52,1,.79L40.92,20c0,.33,0,.66-.05,1l4,6L44,29l-.6,2.3L32.88,33Z"/><path class="cls-26" d="M44,29l.9-2,2,1.05Z"/><path class="cls-18" d="M40.87,21c0-.33,0-.66.05-1l1.79.34Z"/><path class="cls-27" d="M39.28,11.87,38,13.62c-.4-.61-.79-1.22-1.18-1.83Z"/></g></g></svg>