<svg xmlns="http://www.w3.org/2000/svg" viewBox="0 0 85.76 112.15"><defs><style>.cls-1{fill:#4f4e4c;}.cls-2{fill:#252113;}.cls-3{fill:#090907;}.cls-4{fill:#1f1f1f;}.cls-5{fill:#929292;}.cls-6{fill:#525252;}.cls-7{fill:#262626;}.cls-8{fill:#121212;}.cls-9{fill:#4d4d4d;}.cls-10{fill:#080703;}.cls-11{fill:#141102;}.cls-12{fill:#0f0f0d;}.cls-13{fill:#0f0f0f;}.cls-14{fill:#f6c506;}.cls-15{fill:#bf9a0a;}.cls-16{fill:#685405;}.cls-17{fill:#969696;}.cls-18{fill:#c2c2c2;}.cls-19{fill:#ddd;}.cls-20{fill:#d1d1d1;}.cls-21{fill:#606060;}.cls-22{fill:#9c9c9c;}.cls-23{fill:#1c1600;}.cls-24{fill:#2a2101;}</style></defs><title>Asset 3</title><g id="Layer_2" data-name="Layer 2"><g id="Layer_1-2" data-name="Layer 1"><path class="cls-1" d="M79.15,96c-23.29,7.22-48.21,9.25-70.39,2.39-16.74-5.17-5.31-23,.1-32.89C19.84,45.38,37,28.54,38.92,3.89,39,2.35,43.37-.24,45.45,0c5.28.65,4.78,5.87,5.77,9.74L48.94,8.52c-1.57-4.36-2.76-9.85-8.3-2.91l-1,5.82-1.78,4.23q-1.1,8.4-2.2,16.81C23.94,43.28,16,56.68,8.8,70.66c1.79,6.71-9.61,10.46-4.05,18,.41,14.87,11.81,8.31,19.09,9.79Z"/><path class="cls-2" d="M84,90.74l-4,4.38c1.4-10-6.94.44-8.21-3.94,11-11.33-2.78-19-4.26-28.42l-1.2-1.71-1.78-3.3-2.37-3.56-.89-.9L58,50.4l-.6-2.2,3.68-3.75,4.45.09q2.07,2.67,4.16,5.32c-1.45,3.5.84,3.68,3.29,3.74l1.63,3-1.22,1.07c.23.19.59.58.65.53a5.68,5.68,0,0,0,.9-.87l.93,1.23C78.92,69.2,85.65,78.91,84,90.74Z"/><path class="cls-3" d="M71.79,91.18c1.27,4.38,9.61-6,8.21,3.94-.29.28-.57.57-.85.85l-55.31,2.5,4-4.11c13.42-.92,27.24,3.46,40.23-3.07Z"/><path class="cls-4" d="M56.6,28.62l.48,4L57,34.69l.81,4,0,1.93L39.76,35.08l6.11-.57c3.13.32,5.59.17,2.74-3.81l-2.85-1.91,5.12-5.54.34.34L54.8,26.9Z"/><path class="cls-5" d="M15.53,107.77l19.54,3.44c-2.87.33-5.77,1.12-8.59.9-6.16-.47-12.29-1.46-18.44-2.24Z"/><path class="cls-6" d="M84,90.74c1.61-11.83-5.12-21.54-8.18-32.18C81.57,68.53,89.22,78,84,90.74Z"/><path class="cls-7" d="M48.94,8.52l2.28,1.24.64,2.91H50.58l-4.88,2L43,14.83l-3.37-3.4,1-5.82C43.88,5.25,44,13.75,48.94,8.52Z"/><path class="cls-8" d="M45.7,14.68l4.89-2,2.22,3.22,1.09,4.77-3.07.76-4.31-.47-1.31-.65Z"/><path class="cls-1" d="M57.81,40.66l0-1.93,7.73,5.81-4.44-.09Z"/><path class="cls-1" d="M50.83,21.41l3.07-.76,1,3-3.64-.07-.34-.34C50.86,22.64,50.85,22,50.83,21.41Z"/><path class="cls-9" d="M51.22,23.59l3.64.07.23.32-.17.37L54.8,26.9Z"/><path class="cls-9" d="M73,53.6c-2.45-.06-4.74-.24-3.29-3.74Z"/><path class="cls-1" d="M54.8,26.9l.12-2.55,1.68,4.27Z"/><path class="cls-1" d="M52.81,15.88l-2.22-3.22h1.27Z"/><path class="cls-1" d="M57,34.69l.11-2.09Z"/><path class="cls-9" d="M74.93,57.33a5.68,5.68,0,0,1-.9.87c-.06,0-.42-.34-.65-.53L74.6,56.6l.43.25Z"/><path class="cls-10" d="M57.81,40.66l3.26,3.79L57.39,48.2v-.08l-.16-1.8L55.71,47l-2.26-.86-.6-1.62c-1.31-1.61-.72-6.66-5.06-2.8-4.46-.46-9.37-4-12.86,1.94l-12.11,18L14.06,72.78,8.8,70.66c7.15-14,15.14-27.38,26.81-38.19l3,.16,1.15,2.45Z"/><path class="cls-11" d="M27.85,94.35l-4,4.12C16.56,97,5.16,103.55,4.75,88.68l6.11-5q.39,3,.8,6.08a1.61,1.61,0,0,1,.4.64Z"/><path class="cls-4" d="M38.61,32.63l-3-.16q1.1-8.4,2.2-16.81h5l.38,4.47-.82-.31-2-.95-.27.6,2.24.45c-.11,1.84-.23,3.68-.35,5.52l1.85,2.39-2.18,3.1.06.45Z"/><path class="cls-12" d="M10.86,83.66l-6.11,5c-5.56-7.56,5.84-11.31,4.05-18l5.26,2.12Q12.46,78.21,10.86,83.66Z"/><path class="cls-13" d="M48.94,8.52c-4.94,5.23-5.06-3.27-8.3-2.91C46.18-1.33,47.37,4.16,48.94,8.52Z"/><path class="cls-8" d="M42.8,15.65h-5l1.78-4.23L43,14.83C42.92,15.11,42.86,15.38,42.8,15.65Z"/><path class="cls-14" d="M12.06,90.38a1.61,1.61,0,0,0-.4-.64L22.82,61.66l12.11-18,13.48-.64,2.45,1.54,2.59,1.58,2.26.86,1.67,1.09v.08l.6,2.2,3.3,2.89.89.9,2.37,3.56,1.78,3.3,1.2,1.71C69,72.23,82.76,79.85,71.79,91.18l-3.71.11C49.39,92.29,30.68,94.3,12.06,90.38ZM36.47,67.49c3.54.34,9.37,2.14,10.23.79,5.16-8.17-5.66.7-4.61-3.93l-6.47,2.1-2.93,2.07c.26.36.73,1,.75,1C34.48,68.9,35.47,68.19,36.47,67.49ZM37.41,60c7.9-.45,11.08-2.37,11.18-6.78.1-4-2.07-6.78-6.77-6.59s-7,2.14-7,7C34.7,58.12,36.6,60.11,37.41,60Z"/><path class="cls-15" d="M61.29,53.29,58,50.4Z"/><path class="cls-15" d="M64.55,57.75l-2.37-3.56Z"/><path class="cls-15" d="M67.53,62.76l-1.2-1.71Z"/><path class="cls-16" d="M12.06,90.38c18.62,3.92,37.33,1.91,56,.91-13,6.53-26.81,2.15-40.23,3.07Z"/><path class="cls-9" d="M43.82,27.82,42,25.43c3.23.24,7.07,1.1,4.55-4.49l4.31.47c0,.62,0,1.23.05,1.84l-5.12,5.54a.9.9,0,0,1-.73.34Z"/><path class="cls-17" d="M38.61,32.63l3.09-1.26,3.65,1,.52,2.17-6.11.57C39.38,34.27,39,33.45,38.61,32.63Z"/><path class="cls-18" d="M45.87,34.51c-.17-.73-.35-1.45-.52-2.17.07-.5.14-1,.2-1.5l3.06-.14C51.46,34.68,49,34.83,45.87,34.51Z"/><path class="cls-19" d="M48.61,30.7l-3.06.14a3.22,3.22,0,0,1-.81-.11l.29-1.6a.9.9,0,0,0,.73-.34Z"/><path class="cls-1" d="M42.8,15.65c.06-.27.12-.54.16-.82l2.74-.15c-.16,1.87-.33,3.74-.49,5.61l-2-.17Z"/><path class="cls-20" d="M43.18,20.12l2,.17,1.31.65C49,26.53,45.2,25.67,42,25.43c.12-1.84.24-3.68.35-5.52l0-.1Z"/><path class="cls-16" d="M22.82,61.66,11.66,89.74q-.4-3-.8-6.08,1.59-5.44,3.2-10.88Z"/><path class="cls-15" d="M48.41,43.05l-13.48.64c3.49-5.89,8.4-2.4,12.86-1.94Z"/><path class="cls-2" d="M48.41,43.05l-.62-1.3c4.34-3.86,3.75,1.19,5.06,2.8l-2,0Z"/><path class="cls-15" d="M50.86,44.59l2,0,.6,1.62Z"/><path class="cls-2" d="M57.38,48.12,55.71,47l1.51-.71Z"/><path class="cls-21" d="M44.74,30.73a3.22,3.22,0,0,0,.81.11c-.06.5-.13,1-.2,1.5l-3.65-1-.06-.45Z"/><path class="cls-22" d="M44.74,30.73l-3.1.19,2.18-3.1L45,29.13Z"/><path class="cls-8" d="M42.32,19.91l-2.24-.45.27-.6,2,.95Z"/><path class="cls-23" d="M37.41,60c-.81.07-2.71-1.92-2.63-6.4.07-4.83,2.48-6.78,7-7s6.87,2.54,6.77,6.59C48.49,57.67,45.31,59.59,37.41,60Z"/><path class="cls-24" d="M35.62,66.45l6.47-2.1C41,69,51.86,60.11,46.7,68.28c-.86,1.35-6.69-.45-10.23-.79Z"/><path class="cls-24" d="M36.47,67.49c-1,.7-2,1.41-3,2.06,0,0-.49-.67-.75-1l2.93-2.07Z"/></g></g></svg>