<svg xmlns="http://www.w3.org/2000/svg" viewBox="0 0 79 126.94"><defs><style>.cls-1{fill:none;stroke:#000;stroke-miterlimit:10;}</style></defs><title>Asset 14</title><g id="Layer_2" data-name="Layer 2"><g id="Layer_1-2" data-name="Layer 1"><path class="cls-1" d="M49.06,26.19,46.74,13C55.82,11.75,62.5,7.5,62.5,2.45c0-6.08-9.13,4-21,4s-22-10.08-22-4c0,5.31,7.35,9.73,17.12,10.77L39,26.9C30.41,30.18,18.63,39,11.5,52.45c-9.43,17.8-11,43.44-11,58,0,16,8.67,17.27,19.13,15.27,3.7-.71,7-9.25,10.87-10.27,4.79-1.28,8.06,8,12,8,5.22,0,10-8.26,15-8,5.49.28,13,5.92,16.34,2.36,2.9-3.07,4.66-8.39,4.66-17.36C78.5,73.85,63.93,32.2,49.06,26.19Z"/></g></g></svg>