<svg xmlns="http://www.w3.org/2000/svg" viewBox="0 0 80.63 125.54"><defs><style>.cls-1{fill:none;stroke:#000;stroke-miterlimit:10;}</style></defs><title>Asset 11</title><g id="Layer_2" data-name="Layer 2"><g id="Layer_1-2" data-name="Layer 1"><path class="cls-1" d="M79.2,114S62.87,93.63,58.87,80.63s-14.51-43-14.51-43a6.2,6.2,0,0,0-3.49-2.73s-2-7.35,0-10.83,0,1.52,5,.52,8.35-16,8.35-16A5.09,5.09,0,0,0,49.79.52L39.87,7.63,30.26,2a5.09,5.09,0,0,0-3.17,8.72l7.78,7.57V36.19a6.43,6.43,0,0,0-1.4,1.72L1.28,115.73A6.28,6.28,0,0,0,6.94,125l67-1.53A6.28,6.28,0,0,0,79.2,114Z"/></g></g></svg>