<svg xmlns="http://www.w3.org/2000/svg" viewBox="0 0 83.66 81.32"><defs><style>.cls-1{fill:none;stroke:#000;stroke-miterlimit:10;}</style></defs><title>Asset 13</title><g id="Layer_2" data-name="Layer 2"><g id="Layer_1-2" data-name="Layer 1"><path class="cls-1" d="M48.66,50.39a12,12,0,0,0-3.53.08c0-.69-2-15.38-2-16.08,0-9.45-1.37-14.65-4-17.51L45.64,5.66a2,2,0,0,0-3.46-2l-6.32,11a17.2,17.2,0,0,0-4.93-1L32.58,2.8a2,2,0,1,0-3.95-.6L26.91,13.4H25.16A11,11,0,0,0,20,14.6L13.71,4.82A2,2,0,0,0,10.34,7l6.45,10c-5.52,5.6-8.68,17.24-13.63,31.38-6.35,18.16-.66,29.22,10,31,7,3.21,24.8,0,35,0,21.82,0,35,2,35-9S75.16,57.39,48.66,50.39Z"/></g></g></svg>