<svg xmlns="http://www.w3.org/2000/svg" viewBox="0 0 74.39 146.23"><defs><style>.cls-1{fill:none;stroke:#000;stroke-miterlimit:10;}</style></defs><title>Asset 15</title><g id="Layer_2" data-name="Layer 2"><g id="Layer_1-2" data-name="Layer 1"><path class="cls-1" d="M73.89,103.72c0-10.39-3.9-15.45-13.18-17.87A32.48,32.48,0,0,0,38,30.74L44.34,10c2.8-1.83,4.55-4.4,4.55-7.26,0-5.52-6,1-14,1s-15-6.52-15-1c0,5,5.27,9.08,12.16,9.86l-6.2,20.26A32.49,32.49,0,0,0,13.57,85.32c-7.49,1.93-8.68,9.15-8.68,18.4,0,7.26-2.76,14-3,22-.16,5.27-3.6,9.13,1,13.2,2.11,1.88,7-12.2,12,1.8,1,2.91,11-6.78,15-6,4.64.9,9.59,10.61,16,11,5.28.32,4-9.62,8-10,6.58-.62,9.88,10.77,13.58,8.65,5.74-3.3.23-14.24,1.42-19.65C70.81,115.93,73.89,111.69,73.89,103.72Z"/></g></g></svg>